<mxfile host="Electron" agent="Mozilla/5.0 (Windows NT 10.0; Win64; x64) AppleWebKit/537.36 (KHTML, like Gecko) draw.io/28.0.6 Chrome/138.0.7204.100 Electron/37.2.3 Safari/537.36" scale="1" border="0" version="28.0.6">
  <diagram name="Page-1" id="fvQuShhsWiInyDJqeMbN">
    <mxGraphModel dx="772" dy="501" grid="1" gridSize="10" guides="1" tooltips="1" connect="1" arrows="1" fold="1" page="1" pageScale="1" pageWidth="850" pageHeight="1100" math="0" shadow="0">
      <root>
        <mxCell id="0" />
        <mxCell id="1" parent="0" />
        <mxCell id="nwe9QO-fqDBaUatCqOqn-1" value="&lt;b&gt;&lt;font style=&quot;font-size: 27px;&quot;&gt;Project Architecture&lt;/font&gt;&lt;/b&gt;" style="text;html=1;align=center;verticalAlign=middle;whiteSpace=wrap;rounded=0;" parent="1" vertex="1">
          <mxGeometry x="342.5" y="20" width="315" height="40" as="geometry" />
        </mxCell>
        <mxCell id="nwe9QO-fqDBaUatCqOqn-19" style="edgeStyle=orthogonalEdgeStyle;rounded=0;orthogonalLoop=1;jettySize=auto;html=1;" parent="1" source="nwe9QO-fqDBaUatCqOqn-3" edge="1">
          <mxGeometry relative="1" as="geometry">
            <mxPoint x="125" y="240" as="targetPoint" />
          </mxGeometry>
        </mxCell>
        <mxCell id="nwe9QO-fqDBaUatCqOqn-3" value="" style="rounded=1;whiteSpace=wrap;html=1;" parent="1" vertex="1">
          <mxGeometry x="40" y="80" width="170" height="100" as="geometry" />
        </mxCell>
        <mxCell id="nwe9QO-fqDBaUatCqOqn-5" value="" style="image;aspect=fixed;html=1;points=[];align=center;fontSize=12;image=img/lib/azure2/general/Folder_Blank.svg;" parent="1" vertex="1">
          <mxGeometry x="50" y="100" width="30" height="24.35" as="geometry" />
        </mxCell>
        <mxCell id="nwe9QO-fqDBaUatCqOqn-4" value="" style="verticalLabelPosition=bottom;html=1;verticalAlign=top;align=center;strokeColor=none;fillColor=#00BEF2;shape=mxgraph.azure.file_2;pointerEvents=1;" parent="1" vertex="1">
          <mxGeometry x="70" y="110" width="20" height="20" as="geometry" />
        </mxCell>
        <mxCell id="nwe9QO-fqDBaUatCqOqn-8" value="&lt;b&gt;CSV&lt;/b&gt;" style="text;html=1;align=center;verticalAlign=middle;whiteSpace=wrap;rounded=0;" parent="1" vertex="1">
          <mxGeometry x="35" y="124.35" width="60" height="30" as="geometry" />
        </mxCell>
        <mxCell id="nwe9QO-fqDBaUatCqOqn-9" value="" style="image;aspect=fixed;html=1;points=[];align=center;fontSize=12;image=img/lib/azure2/general/Folder_Blank.svg;" parent="1" vertex="1">
          <mxGeometry x="105" y="100" width="30" height="24.35" as="geometry" />
        </mxCell>
        <mxCell id="nwe9QO-fqDBaUatCqOqn-11" value="" style="verticalLabelPosition=bottom;html=1;verticalAlign=top;align=center;strokeColor=none;fillColor=#00BEF2;shape=mxgraph.azure.file_2;pointerEvents=1;" parent="1" vertex="1">
          <mxGeometry x="120" y="110" width="20" height="20" as="geometry" />
        </mxCell>
        <mxCell id="nwe9QO-fqDBaUatCqOqn-12" value="&lt;b&gt;CSV&lt;/b&gt;" style="text;html=1;align=center;verticalAlign=middle;whiteSpace=wrap;rounded=0;" parent="1" vertex="1">
          <mxGeometry x="90" y="124.35" width="60" height="30" as="geometry" />
        </mxCell>
        <mxCell id="nwe9QO-fqDBaUatCqOqn-13" value="" style="image;aspect=fixed;html=1;points=[];align=center;fontSize=12;image=img/lib/azure2/general/Folder_Blank.svg;" parent="1" vertex="1">
          <mxGeometry x="160" y="100" width="30" height="24.35" as="geometry" />
        </mxCell>
        <mxCell id="nwe9QO-fqDBaUatCqOqn-14" value="" style="verticalLabelPosition=bottom;html=1;verticalAlign=top;align=center;strokeColor=none;fillColor=#00BEF2;shape=mxgraph.azure.file_2;pointerEvents=1;" parent="1" vertex="1">
          <mxGeometry x="180" y="110" width="20" height="20" as="geometry" />
        </mxCell>
        <mxCell id="nwe9QO-fqDBaUatCqOqn-15" value="&lt;b&gt;CSV&lt;/b&gt;" style="text;html=1;align=center;verticalAlign=middle;whiteSpace=wrap;rounded=0;" parent="1" vertex="1">
          <mxGeometry x="145" y="124.35" width="60" height="30" as="geometry" />
        </mxCell>
        <mxCell id="nwe9QO-fqDBaUatCqOqn-17" value="&lt;b&gt;AUTOLOADER&lt;/b&gt;" style="text;html=1;align=center;verticalAlign=middle;whiteSpace=wrap;rounded=0;" parent="1" vertex="1">
          <mxGeometry x="65" y="154.35" width="120" height="30" as="geometry" />
        </mxCell>
        <mxCell id="nwe9QO-fqDBaUatCqOqn-37" style="edgeStyle=orthogonalEdgeStyle;rounded=0;orthogonalLoop=1;jettySize=auto;html=1;entryX=0;entryY=0.5;entryDx=0;entryDy=0;" parent="1" source="nwe9QO-fqDBaUatCqOqn-18" target="nwe9QO-fqDBaUatCqOqn-29" edge="1">
          <mxGeometry relative="1" as="geometry" />
        </mxCell>
        <mxCell id="nwe9QO-fqDBaUatCqOqn-18" value="" style="rounded=1;whiteSpace=wrap;html=1;fillColor=#ffe6cc;strokeColor=#d79b00;" parent="1" vertex="1">
          <mxGeometry x="120" y="380" width="170" height="140" as="geometry" />
        </mxCell>
        <mxCell id="nwe9QO-fqDBaUatCqOqn-21" style="edgeStyle=orthogonalEdgeStyle;rounded=0;orthogonalLoop=1;jettySize=auto;html=1;" parent="1" source="nwe9QO-fqDBaUatCqOqn-20" edge="1">
          <mxGeometry relative="1" as="geometry">
            <mxPoint x="60" y="360" as="targetPoint" />
          </mxGeometry>
        </mxCell>
        <mxCell id="nwe9QO-fqDBaUatCqOqn-20" value="&lt;b&gt;DATABRICKS&lt;/b&gt;" style="text;html=1;align=center;verticalAlign=middle;whiteSpace=wrap;rounded=0;" parent="1" vertex="1">
          <mxGeometry x="80" y="240" width="100" height="30" as="geometry" />
        </mxCell>
        <mxCell id="nwe9QO-fqDBaUatCqOqn-23" style="edgeStyle=orthogonalEdgeStyle;rounded=0;orthogonalLoop=1;jettySize=auto;html=1;entryX=0;entryY=0.5;entryDx=0;entryDy=0;" parent="1" source="nwe9QO-fqDBaUatCqOqn-22" target="nwe9QO-fqDBaUatCqOqn-18" edge="1">
          <mxGeometry relative="1" as="geometry" />
        </mxCell>
        <mxCell id="nwe9QO-fqDBaUatCqOqn-22" value="&lt;b&gt;ETL&lt;/b&gt;" style="text;html=1;align=center;verticalAlign=middle;whiteSpace=wrap;rounded=0;" parent="1" vertex="1">
          <mxGeometry x="30" y="360" width="60" height="30" as="geometry" />
        </mxCell>
        <mxCell id="nwe9QO-fqDBaUatCqOqn-25" value="" style="rounded=1;whiteSpace=wrap;html=1;" parent="1" vertex="1">
          <mxGeometry x="145" y="400" width="120" height="100" as="geometry" />
        </mxCell>
        <mxCell id="nwe9QO-fqDBaUatCqOqn-26" value="" style="shape=datastore;whiteSpace=wrap;html=1;fillColor=#e1d5e7;strokeColor=#9673a6;" parent="1" vertex="1">
          <mxGeometry x="170" y="420" width="60" height="60" as="geometry" />
        </mxCell>
        <mxCell id="nwe9QO-fqDBaUatCqOqn-27" value="DATA LAKE" style="text;html=1;align=center;verticalAlign=middle;whiteSpace=wrap;rounded=0;" parent="1" vertex="1">
          <mxGeometry x="155" y="480" width="90" height="30" as="geometry" />
        </mxCell>
        <mxCell id="nwe9QO-fqDBaUatCqOqn-28" value="&lt;b&gt;BRONZE LAYER&lt;/b&gt;" style="text;html=1;align=center;verticalAlign=middle;whiteSpace=wrap;rounded=0;fillColor=#ffe6cc;strokeColor=#d79b00;" parent="1" vertex="1">
          <mxGeometry x="120" y="530" width="170" height="30" as="geometry" />
        </mxCell>
        <mxCell id="nwe9QO-fqDBaUatCqOqn-44" style="edgeStyle=orthogonalEdgeStyle;rounded=0;orthogonalLoop=1;jettySize=auto;html=1;" parent="1" source="nwe9QO-fqDBaUatCqOqn-36" target="nwe9QO-fqDBaUatCqOqn-43" edge="1">
          <mxGeometry relative="1" as="geometry" />
        </mxCell>
        <mxCell id="nwe9QO-fqDBaUatCqOqn-29" value="" style="rounded=1;whiteSpace=wrap;html=1;fillColor=#f5f5f5;fontColor=#333333;strokeColor=#666666;" parent="1" vertex="1">
          <mxGeometry x="410" y="380" width="180" height="140" as="geometry" />
        </mxCell>
        <mxCell id="nwe9QO-fqDBaUatCqOqn-30" value="" style="rounded=1;whiteSpace=wrap;html=1;" parent="1" vertex="1">
          <mxGeometry x="440" y="400" width="120" height="100" as="geometry" />
        </mxCell>
        <mxCell id="nwe9QO-fqDBaUatCqOqn-31" value="" style="shape=datastore;whiteSpace=wrap;html=1;fillColor=#e1d5e7;strokeColor=#9673a6;" parent="1" vertex="1">
          <mxGeometry x="470" y="420" width="60" height="60" as="geometry" />
        </mxCell>
        <mxCell id="nwe9QO-fqDBaUatCqOqn-32" value="DATA LAKE" style="text;html=1;align=center;verticalAlign=middle;whiteSpace=wrap;rounded=0;" parent="1" vertex="1">
          <mxGeometry x="455" y="480" width="90" height="30" as="geometry" />
        </mxCell>
        <mxCell id="nwe9QO-fqDBaUatCqOqn-50" style="edgeStyle=orthogonalEdgeStyle;rounded=0;orthogonalLoop=1;jettySize=auto;html=1;entryX=0;entryY=0.5;entryDx=0;entryDy=0;" parent="1" source="nwe9QO-fqDBaUatCqOqn-38" target="nwe9QO-fqDBaUatCqOqn-49" edge="1">
          <mxGeometry relative="1" as="geometry" />
        </mxCell>
        <mxCell id="nwe9QO-fqDBaUatCqOqn-38" value="" style="rounded=1;whiteSpace=wrap;html=1;fillColor=#fff2cc;strokeColor=#d6b656;" parent="1" vertex="1">
          <mxGeometry x="375" y="124.35" width="250" height="134.35" as="geometry" />
        </mxCell>
        <mxCell id="nwe9QO-fqDBaUatCqOqn-39" value="&lt;b&gt;SILVER LAYER&lt;/b&gt;" style="text;html=1;align=center;verticalAlign=middle;whiteSpace=wrap;rounded=0;fillColor=#f5f5f5;fontColor=#333333;strokeColor=#666666;" parent="1" vertex="1">
          <mxGeometry x="410" y="530" width="180" height="30" as="geometry" />
        </mxCell>
        <mxCell id="nwe9QO-fqDBaUatCqOqn-40" value="&lt;b&gt;&lt;br&gt;&lt;span style=&quot;color: rgb(51, 51, 51); font-family: Helvetica; font-size: 12px; font-style: normal; font-variant-ligatures: normal; font-variant-caps: normal; letter-spacing: normal; orphans: 2; text-align: center; text-indent: 0px; text-transform: none; widows: 2; word-spacing: 0px; -webkit-text-stroke-width: 0px; white-space: normal; background-color: rgb(236, 236, 236); text-decoration-thickness: initial; text-decoration-style: initial; text-decoration-color: initial; float: none; display: inline !important;&quot;&gt;(LAKEFLOW DECLARATIVE PIPELINES)&lt;/span&gt;&lt;br&gt;&lt;/b&gt;" style="text;html=1;align=center;verticalAlign=middle;whiteSpace=wrap;rounded=0;" parent="1" vertex="1">
          <mxGeometry x="400" y="570" width="200" height="30" as="geometry" />
        </mxCell>
        <mxCell id="nwe9QO-fqDBaUatCqOqn-41" value="" style="shape=image;aspect=fixed;image=data:image/png,iVBORw0KGgoAAAANSUhEUgAAATcAAACiCAMAAAATIHpEAAABFFBMVEX///8ypvY2n/c5mvcvq/U2oPc4nPdAj/lHg/s7l/g/kfkzpPZPdv0xqPVJgPswqvUsivk9lPhNevxEifpCjPpLffzT4v2Zt/ynu/1Bd/y4x/49gftCcvzr8f4/mfj2+v8zefvf7f3g5/7t9v5aj/uAt/rM4f3J1/48d/wYlvY6cvwalfbL5fy52PxouPjX6f3V3/46av2LwPqszvus0vugxvtdufdZiPyLqvxFpvbA3PxfsPfC4vuWz/mt1vu81vyKvvp5sfq5z/1um/xuv/dfrPid0vlnqfmGyfhKofeu0ftsqvlptvh8xPhOs/ZGo/djoPq5xv6Xqv6hw/xYlvqItPujtf6Ho/1zj/2Nt/u9yf4hZfzvgblhAAARgklEQVR4nO1dC1vaSBfOhQQhpRBR3BYxYCpuDBgFcSsgYite6q27rrZu////+M6ZCbnATNS2nwrkfbZrTDCG13POnOsgCDFixIgRI0aMGDFixIgRI0aMGDFixIgRI8YYKvVW/6Lfqlde+kEmCaWGpKqSBP9TLbkRU/c4GJuqpCAkAtW+MF/6kSYBdcIayJoFoGJn7bz0Q71+NFRkzersOKZhOvU1SwbmrLWXfqzXjk0UNrUR0MwdSwWJu3i5R5oENCRNkfZKoXNGB9TV6r/MA00G2qqmSZ2x0w1bVe32CzzPhMCQNE0Zpw2IQ4kznv15JgUNRVMU5pWBqsqNZ36aiYGBWlpjXjJRU2OBY2NHYWspoiWrVvNZn2ZyMFB44kYFbu9Zn2ZigGrKtm6IQayoHDjgu/Hd26as2jxhnG3Ugbd97tWqpVr1Z3yaycGOpEk97lXHmsmFway12+1aZEIIeFP4ElWZQd66RyKFJh51ua/qwXLKTxjNnrz1MplMFgFfM6KW4eliG+SNHxPUZ8y+VRLikDQxQ5lLsNW1ArzxXbQGrKfO/+shXx96hLWMKCZ2jzYTmigS5ti5DYjqVa4FVMF/Gz1XaPYPB4f95vTxeZpJIGtHXddlrR1pyJx2zHrxJhg4ngmrWao8CJ1x1nQ9hdD1tL42XdQdZxKJbGY3KETmrgbEKSwj15X4AQOGC0HzVjnRUysUhLv0SYnzkxOImgi0iaMUtYE4UWFV9zSFtzK0ITy1At+39JSMjOkUyFxyelZbkLaEOB4cORrYO5Hx+jpauCrjgol5ywAvA1uW5ZR+0qxWSpVq6ySNzKUPf9uDvyzAuCUyLH+tBuuDxgqpBiBw6ripMrACLfnfn9nIWt9X/1IfmUuf/PozvwKYSNsl89IpEsf6EXBFlDGJKyFttq/Yg5Qs22dhe1aRkbipKBfuZ4E3zjWMHVhLQ00lZcBQwmjHUkOLQgukzR5n6DydSiUPfuWBXwnAuGWY/gagBwLHTO22LVKsbw2ly9iRZBA32zduJTZtggArrJ6e/BRdBdRU5L4N4E1hXqyR3hDJUi5azVb/2pJVbBEJuCADWBLOmPdET67/aw/9CtADl/eKe3VTExVOCaaj0qYaFUHaQ64DTksFxE1ntyg5SV3PTbzAnWYTGX4a8lgTNV7yo7sXbEey1FA43wdx45n/cxC4iffijsC88dOQXeDtlHfRUElDErYkyWsjqyvEWzavI66Q1vWvP/OsrwlHWbbzRgEunMb2UQTMYCrShdOu18cTnaimbOuG0KdAUX+Btz2GE+eiDrzxk3QQ6qcLj3/EV4nLSD1ta+yIAVECX8TiXAPnzeY7ac20np50F+4Y5I1rwYR9je34IlBN+5xrsCzYHFEEHKQnf2HoZqP8kA74b7ycWYSaPsBbG3hrPf4RXyUMDE956VtTAd4410qwmqq8uzamXt6E3QhFRTU94lxrRqip0LRl6wv3V7amwL4JXQy02AJnYJjF61qIUlOhbfPdXur4Tn7GPAEWbpd5BaIsMcv5qUqUmgqmLY/XZzyA35t8yhO+TqDAMUOtY0y/jclFqdZuVytETSNaK9UIAwfmTT//uWd9VQALlxXHU0lI26gXUr+QXGACjqfCBube5JVrzuUVfQrMG8DA2qk4GhZckvKCqGz6p06BLI2ARPQqO1Yq9W0bxA0Ejl24B69XT/+mR39ZmNjgkEkEw60ulu1FInFDVW1T0hQfKiNV4nTAtCFp+I+13FTS05AOoTBJa0gmu++gCBnOfgbrzqLYRebcdrdLibCm7m02ThsdOtOmjiaDq3vAmqrK9lkdJY4hkaaup/TUM7ynZ4FxRYhDzcwSKcNq/ZWBxXkRhxUMrNJrmpTpDZmoXpBU+XWQmbqCNQZgbQBLQlUHEyePlpkrSFtu8p0QDz3R70YizSHuitCjFg1pU5RQw0hlD/NvnvE3mrLL2hpNvOHisKKHNbKFhcAk3yOeQBj7bicSSp3ml2pKGc1dCzqjWtewPFUtNSyZpDBtf9itT4iTvwx/zGim0lh4nvTQdAzO/m4WCMpuHocU6ZKKHKMZumkpEk6dOhc4DYhjz80gty0dG0N0/azfbDb7Z2na6DBV0haJLhLHrLE2sIxVHVikMGNfjzoe1ZROW2rc7pCUnk5NkW17CDXgTWKHsHtkvp4UZgas+KCluw1JtJdrWhyQx6ED4sbJ+jqWO12/xqvCHJykaTdSOn0+DVHC42HiWsqrowxQU61GZAu6Uwf7Vp8hBaXogbjxsnC4P4E64F2cbVyCuHHHmA1QVF4AP+MA86bw9fBaknhVrRmHJmoS/yqEqtYUNe3+RgBv/MFJ4QLkLd7jh4WYt59DJsINAUcEeIt3RmJhE3jjO1/W2LrQbjZaXzwRLBUA1SGG93GC3wBM7xWFEWO5fnN/82l15Jdu3Swt3az736+ub21tkSMDDrbcv/J6CPRptgjc37Ea+o7eCLDFfbMsmN1er9dlqNw+8MadAISAITxR37Jt24J/wyJh0w0XSMiQHDbhp5OAQLa8kM8NkV+48c/fFPOI4kLwvXyaK84BikXvhUvlt+U8OSptlMsb7ovL5fKfHv4ip+42CD7TF7xdRmz/7d/67TbgB+/NjqN7lHFnKLWr3ohSOgonqkdAZK8GE0MDW1VJolx2U29fdC88hQDV5c3JIY05/49UyKUJkM5kzuuOO88vUOR9joSPlEuk86N7agmI/ECOSuW5ubLL29sAFunlP94tIjboa5fnEcvvvVuXtt8Ath8rcL2sO0PpDlFehpnTIhQVwiwrcK2JEzO2bGN5QSfniby5E1r6cOjjhghhIBNHeKPyhsS5F27yyNhCHtkrDnV1CWkDYcMvxfcP8vbnn+WAvCFv88AbecX7jVHe/l5G3pb/eRRr5lUo1UuYC5X/IGDQODuGtNRwuIDS1oevNVlesUnnYKHVajVPgLaVJhy5kb07ebQS4i1XNUyzckOIo2eRtlu8CtQV/6XnVilfZuk9OXiIt89h+4a8zc0vvrvDb76/m38b5u074e3N8mNo67qTp2L26PJyl1RkMplAQGqS0gJzxE2o4KoQyLo53oY1Tm5Q96V2DSRuJfBjScpbzrPIhDcqt7cLyWSeCNcq8kZuslr++sm921dk6xMeIXHF9WjeFoea7AJ4e3f3DkQOjo2NeTgO8mYQNQVFHV2HGDjGqbZs5qrnOhNmL0umT93mLtPN9moSQ1MNzCEFxa2Kakpj2ZCqj/CGjTWov/6QW4C3AxC4HGnHrCJvB+G7GcS4eYdzlJen8LaxtQGKCn+x9Y355a3lIG//Lb9ZRlVdvuPSNURPxMGPbKhVtU2qgEic4bKmMIkzsJk85PSivKn2Wns08Brh7StWnnGOwRvVCvB2D7zlyU0LaNfmbg+Cd1tHsm7pcbFcdLXX5818mLfSZ1BUWEO/gawJId4+L7/ZJrq6yGHLf6OEttG2GuMKiNMuhX0FYgVgrVEjxI04I1VVouWFAGxa0rKtcIN5mLdSEheIfjrQHk14I2ShuCUXXGLIUpov5m89X+1mDnhz19aSJ4XI29xngmLYvn34iPg2pA95W30PivpdEEBN/wnzBmr6F1kbth+KuBMJ9lTbJhKnYdVZUzYrdFhXUzKBjpAKKaBaI701uHceeiHAnRwQxDBvoKLJtlAAI+dNalE/BFcEpM1VTuHed0MWXJOz5Jm3IAhvRVxk8SC0nhK/o/w2yFsJFVXY2piHZTXI2/r2m+U/iC8CXyKxj5POzCauhEgcOk3pUO3pqsTI7e1j073h7HQsiUEbKf4R700OzcuEeTujgoYND8O+JI83RN7zT26LPnOrD/HmYdR/A+LmgrwJb+fBysGSsCEYQd6+LZMVYf4Nil0UsEmVMwxoaoQ2X8IqxMiR+RgcLKLjWYx0ZqVvE+8NhY7Nm5GjfVy3qKhB3qjzlswF457buTnivi3kFx7irUwwxhsRuDBvd7iqzs2/+xbmbZsatjtU1Mj5Chysz3BSuaT7LbRcnErBbiSg7YJzc6c5sFdQ4LwhhRBvpP8NfLlDXFFdM4i8JW8ODu7BCcmFC2OFm69E6orkbp8C9s3Hk9bTVVDRRXR4Nz6FeNsC3r7/cXf3DXn7j/3WKK7QvPEuIm/hRId5qkiSy5mEvPHvbBwCcSmvfhXi7ZxWt2jIcE/PkXUBdMTIg8CNDSEZH4G4OSJlBd/5EG7L+Q800nwib8I7EiiAUAV5+wedXgxY8ct3/nujo8682VOIEhizC87O5kDT9i6abRWs21gSoNRuuONFph1sgAvxltQDcBtWCW8oUOfo9bqKWjq4d4OEUnHIm+D7b4IfoT6Vt2+EOOAmyNubILZ5tAhkdiGR4eYcaxHN5ALmK8cFzklbskWNehV58zy+IG+opkkaimLIQHXZ462AXi8VwtVyPpenKrme9wLUJU9Rb34uXkDe1jEyRR8uwBuq6TYF8rYucBE1Io5erSjyr0KIBQI3mrC8Rrf3sFpxmjZ3XTgE2ugfC7MiyT459HgTkn54+i8uB+dbqwUS37s+HQkYil8/rX8MSB4/Pp37QPEXVWiXNwN5w5ghwBssBy5ZxBP5xn/rl2Dd+LMyZNiZf1XoMAYYKjZ1e2k+xJ9dC/KGdm14CPEWPfZ5w7g+R1WyUiRuL11Qi8PkzpabD4HT+bL7K6LySGQ9XZz38iHIm/AZFBV9ugBv875yLkYr6hHIG7sDnyATzZvDErgq9lsSJySlB7oaArxV0/6Y+D0c0yjB583ElcE1a4V8znPffN9ji1CGUudx+ZT8G+HtPcb0QpC3VXB63XQm9UT4SbgHeBOjeRMGkqKO+b1Gw6Y4DBrOQ0+whMOkSxCgnQNDR2xVARO99PTXfC5XdF9h3OepdJ0H72YskciguOTHWeUiO9/rpXw3vHwvSXaUfmz8wK/Gj2G+9257+cfQ+dj6sb39g6+ol1FuyIN6KtSw+43hwjntdvv3NYOsrh+sj6d1SoXCrxXRDCHSs43EMcgbayMfChxq403LUOxJ4Rz5rID4IVzJaEf7IQJJiMxkjwPxe7lDu5sRM7suUOBmqhPQxRU3rHdnTx8oKLctIO63P9XrRy/LF7gjELcI544C912ZxU/jyeLWb8yFiWxi9uCO2XV1RgUO85ZZxopM0m+8TwsIQArXs2YGVyBx2cQYcSaEpuxNGkewo0pkqzyj4jiz1AVnYl0mO+qMdDWkjZthCgIUVW6sqTZ+/Jh93ZiZ5ucuKZ+Kl4GVs7KphSvPUdhRad6cbMtFBgH/Tw/62tAWE6Rav9sjalnpXdG9ezcf+kGKpkoHGFSZMqfaZzPSRVijPTU4zYbFUpE2iPD3sAlhQGZlZEvprK0NQFuJzM3IBJa5SztE/NYajbEtLQvGNZn68DpBSk3VQuJm5bOguldicC989v7aDFyjsIV3GNkhA+IzE+07pwkyTB/92Qsj6GBcP1pjMM7kyE1+pg6G0213oz/rIwxcSscL9oJwIsvxhxrxYViKpDJLqCBxqf4zP83koKUqEjsfTDZTjXvzOcDCM2fZbdhyalbW1KeiDeLGG6A0sOj8rE8zOWhIisqNqdZW+NvQzjj2JIX/GbF1e2aihqfCUiLmdUvAW//5nmWCYFqRfVy6vDItn+vxe1GyIra3FARbXomn7ll4mLdY3ljAaIFffwBHJDUVn4by+4GNqtyLjj1DOZGnoQN+CLcS07RnKiXyFOyoCr/H4RoC1DgjwgQuDDxFrcTLKR8Dfo/DAMIs7g43s46axdvJAT+1Yha7Hx6JjjSyJYGLiq3Gq0IETOziGjdjmLVMxU5vBKpI3GgXST08uRCDgR2LbJoX8DgqA7LHdpwkj0bdJltbuoPhlS8DnD61ORuXx/DhqDJhzrLhPxv38GV/mmKMUbTwMxXVIWT7LF5JHwejqViWjJIGEteJWXsCSvVW/+Ki34xJixEjRowYMWLEiBEjRowYMWLEiBEjRowYrxv/Azg9FLpl1WzFAAAAAElFTkSuQmCC;" parent="1" vertex="1">
          <mxGeometry x="380" y="170" width="100" height="52.09" as="geometry" />
        </mxCell>
        <mxCell id="nwe9QO-fqDBaUatCqOqn-42" value="" style="shape=image;aspect=fixed;image=data:image/png,iVBORw0KGgoAAAANSUhEUgAAAe0AAAFqCAYAAAA3AQKbAAA7lElEQVR42u3de1yUZf7/8dfISdQxRURS0QQVBE9oJlu562FN3XZNNs08tQc1NW1dd/NQbZRr2tamu2allW6afclfnloPtSxIUh5QUgxbxFHAFA8BGUooIIffHwO3jAyKCjLA+/l4zIM5XPd9M5+Zud9z3XPf1w0iIiIiN+Lp6RkPFOtya5eS+omISD1hquHlFxcXF+tVuNUXz2RyhNdQRETukAYqgYiIiEJbREREFNoiIiL1j3Nt+4cLCgsoKCrAuYEzzk6O/e8XFReRX5CPyWTCzdlN7zYREan9Pe3Es4mYppjKXYJeCuLpj57m3IVzRtt5m+fhPsOdx9973OGLu/3wdtxnuNNwekO900REpG70tIuKiioM88SziUQfjWbfs/to4tbEphcrIiKi0K5By8cux8fDh4zsDML3hxN5JJLEs4msi1vHpAcnMfnByTwU+BCtmrZy+OKGdAghYmYEzg3sl7mouIgGJu1WICIitTS0B/gPwN/bH4BxfcfR9aWuWNItrNq1ikkPTiLmWAybDm7ifr/76dG2BzuSdrD4v4sJ8A7Az8uPD2M/JL8wnwkhExjZaySzN8xm/4n93NPiHl4f+TrB7YIBSM9O54V/v0DUkSjyC/Lp26Evz//ieePxp8Kf4kTmCcb1HUeMJYYdSTsI9glmdJ/RjOo9ygjdJZFLeO/L97CkW+jXsR+Dugxi6k+n0qppK5IzklkSuYSGLg0ZGDAQgNwruSzYvoANBzZgSbfg6+nL0KChLApdxF3ud1V62SIiUv84xOAq35z+hm5/7QZA0vwkI7RLA2x5zHIACpYXMHfTXBZHLia0Zyibpm1ibexannj/CbszN7uZyc7LNm57mb349pVvKSwqJCAsgLSstHLT7J27lxDfEIJeCiLxbKLd+Ub/KZoB/gNYF7eOMSvHAPCA3wPsTt5tXN81ZxdbE7Yy/K3h1if6jnUQmaFLhxKRGFFunoF3BxL/l3hcnV0rtWzQ4CoiUvM8PT3jMzMze6oSt1y/Q5mZmcGVbe/w22aDfa4+lx8u/XDdtlGzokian4SX2QsAHw8fLAssfPC7D4ze9fH046zctZK0rDTMbmbSXk0jZ1kOg7sMBuC1iNds5hnSIYScZTkkzU/C7GYGYF/qPgCW7lgKwNj7xrJtxjYOhx3m0eBH8W7qzaX8S+X/vyNRRmCv+e0arrx9hYiZ1tuJZxNZG7u20ssWEXEEmZmZPYuLi9Hl1i43+4XH4UM7PTvduN7MvVmF7bzMXgwKGIS/t78R9MN7DKeTVyeGBA0x2uUW5HLo1CHj9uQPJjNyxUiSM5IB2Hxos818R/cZTSPXRvh7+9O7fW8AI5AHB1qDPnx/OM1nNWfcqnH09e3LyidW0si1Ubn/sTRwzW5mxoeMx9nJmYcCH6J7m+7WXn7K3kovW0RE6h+HP047xhIDQGevztc9LtvVyfXqkyppZ+/YaBMmcvJzrk7nbJ2uW5tudGvTrVx7j0YeV7/hXLPT2Jwhc3B3cWf1ntVY0i0knE5gzsY5vLHjDVIXpZabV15BHgAtzS1t5uXR2LqM/IL8Si9bREQU2g7j3IVzrPhiBZFHIgGY1n9alczXZDIReHegcTt8UjiNXBsRmxLL4dOHad6oeaXmk3sll9kbZgOwcepGWppbsi1hG5PWTiItK43oo9HlpglqHQRASmYKCWkJdG/bnTNZZ9hp2QlA1zZd9Y4UEZHaE9oBLwaUu29Y0DCm9JtSZcsY13cc87fNJzsvm35/74dfSz/WH1gPwJJRSyo1j4YuDYlOisaSbmFbwjZCg0PJupQFWDd/B/sEE5saazPNiJ4j8PX0JSUzhR4LetC/c38jsM1uZiY+MFHvSBGp8zSy5a1ziG2uJXtBlxPSIYQXf/kim6Ztwt3V3foPl2wmLv1rb9prHzOV2cHahIlOXp2ImhWFr6cvB08eNAJ73tB5zBgwo8L/zamBk838Nk7dyMPdHiYtK41lny9j7b61mN3MvDvhXVqaW9osF6yb66NmRRHSIQTACOzOXp2JeSaGFk1aVHrZIiKORCNb3qG8rOHl1+j5tAuLCknNTCU7N5vOrTrT2K3xLc3n3IVzJGck49HYg/Yt2tvdCc3eNCe+P0GbZm1o27xthV9cKvFlRykuIjW+Hi976K49gXcHGiNbPrPhGZtDdx2ZvUN3q6HTWun1eL0O7dpOoS0ijhja9ka2BHhvwntMenASR88d5dvz39KqaSt6tO3h0E8uIzuD+FPxODdwNgbJKut2R7a82fW4s95vIiJSlTSyZfWNbKmetnraIiJV2tPWyJbVN7KlDv4VEZFqpZEtq25kS4W2iIhUK41sWXUjW+o3bRERqVYa2dL+shXaQO+FvTl48uB122T9M8vYWcAen7k+pGWlEfnHSH7e5ed224RtCWPB9gVM6DuBD37/gT6VIiLX0MiWVa/OhXbuldwbtrnRzm8XLl8A4ErhlQrblH6bKv3WJSIiVhrZUqFdaYtHLSY717qn4apdq4hIjMDL7MWbY9402jRxa6JPlYhIFbreyJZDgoYwb+g8GrpYRxWrypEtn1z7JAdPHjS2sN7KyJbzNs9j++HtLPt8mRG+NxrZcuzKscSmxtqMbLlu8rpqH9myTh/yNevjWfxzxz8JvDuQ/730P+P+o+eOErYljEOnDlFQVEC/Tv0Y1nUYo+8dDUDTPzQlOy+b10e+zv7U/Xz17Vf4tfRjzpA5xubyeZvm8WrEqzzW+zH+35P/D4D4k/G8uPVF9qXuo5l7M/r792fhiIV4NvGszg+JDvkSkTq7Hr+R+jayZb3bES2vII8+i/oYx/15mb1Ys3cNa/auoWnDpgzrOsxo+8yGZ4zrKZkpRB6JZOefd/Kzzj8rN9+EtAR6Lexl3E7PTseSbiHqSBRxz8UZOymIiEjVcWrgREevjrc9H++7vPG+y7vap7ld9e6Qr/iT8fh4+BDSIYSLSy9y5rUzxvGAcSfiym3WOff3cxx/+Thtm7UF4NX/vGp3vmFbwgAY3GUwP77xI2deO4PZzUxKZgofxX2kT5aIiCi0b1aIbwgfP/kxj/R8hDErx9B6TmvjGMKCogKbtjMHzaRV01b4tfQz9no8cPKA3fmWHpuXnJHMqHdGMXHN1Z0RPk/6XO80ERG5bfVu83hsSiw/efUngHXIubH3jeXTw59iSbeUa1u60wCAc4Prl+py/mWjXekxg6Xj1Fb3IQAiIqLQrpM2HNwAQK92vfjqua+4lH+JVbtWAeUPBVt/YD2hPUMpLC5ky9dbrAHc2n4Ad2/bnd3Ju/H39ueTpz4BYOPBjZzPOW8c1yciIqLQvgmlB+Qf++4YL3/6MtFJ0cZOadcel73+wHr2Ju8lvzDf2IR+7aEEpab3n87u5N3G4PI5eTnGgflxz8XpnSYiIretTv+mbe9YuNH3jqZfx35k52UTtiWMnLwcHg1+FIDN8bbj1T7W+zEuXL5gBPbCEQsJDQ61zvuaXfvH3DeGZY9bj/HbmrCV6KPRmN3MhE8M59729+qdJiJSSb0X9sY0xXTdS+kgWBXxmeuDaYqJqCNRFbYJ2xKGaYqJJ/71RC3KtZpVY8f3nTp/CpPJRNvmba/brqCwgOSMZNp5tMPd1f2G872cf5lj6cdwcXKho1dHXJxcqu/F03HaIlLzqnw9fr3TWpb64R8/0KxRswofLx1v49OnP7U5lLcse+Nt3PEQ1nHalePj4VO5Ajk525wX9kbcXd3p3ra7PsYiIrdII1sqtEVEpJYYGjTUuL4neQ8RiRF4NvFkVO9Rxv03GtmyVOLZRFbvWW13ZEt77vTIlgptERGp0+rzyJYN9PKLiEhtUp9HtqzR0Pb09DxkMpnQ5dYunp6eh/TxFZEa0g7oURMLrs8jW9bo5vHMzMxgve9vq34qgohUd8euCOhZEtA9gf6Af8n9OTXxT9XnkS31m3bt5QGcVxlEpBp1BI4C2VgPSyq7y3Ye8Abw8p3+p+rzyJYK7dqpHbAPOAG8DaxVSUSkGqQAU4BX7eRFA2BhTYR2fR7ZUjui1U4nARcgpCS0i4ENwECVRkSqUAHwLtAc+A9woUwv+46EtUa2vLYeUlu9C0y+5r4fSr6IrQDmqUQiUkW2YN1M/gTgBRSW6XlrZMvbCWGNbFlvDAUulvSyi0u++V4EvgMWqzwiUgW6A1nAr0puRwL5wPwybYrl1pWsv9XTricKS3rWF7FuMh8BJKssIlIFZmDdmvdTrm4WDwNewvan1RrradcFN9vT1m/atVtMyd9LwCJggUoiIlXgY6yHdfUoE9gA4UBflafmKLRrt/8DLgPLgI+AL7HumCYicis6AeeA9cDTdh4/DsSpTCK3pjnW35u8ytz3bEmvW0TkZkwELECrm5nI09Mznqv71uhyk5eS+kk99zdgrsogIpW0BlipMojUnBVYB0UQEamID5CK9VAuEalh64DRKoOI2DEO61En96gUIo7jM6zHdIuIlFoBfKgyiDimvViHPBWR+s0TSEQ/nYk4vCNAgMogUm/9GsgAuqgUIrXDWcBbZRCpd/4JbFQZRGqfS4C7yiBSLzQBDgIzVQqR2skV68lFRKRuGwZkA8EqhUjt5oX1bGAiUje9AnyqMojUHZ2xnh9XROoOJ2A3ME+lEKl7+gD7VQaROmEAUADcr1KI1F2Dgf+qDCK12otAtMogUj+Mwnr+XBGpfXYAL6kMIvXLJOA9lUGk1ggB8oGBKoVI/fQM8HeVQcThzcE6PLGLSlG/NFAJpIzXsR7D/bxKIeKwtgEtgJ8AV1QOEXkTmK4yiDiUnsBF4GGVQkSutRYYrzKIOIQ/APGAWaUQkYpsBX6pMojUqPXAUpVBRCrjS+BBlUHkjvPHOtzwSJVCRG5GAtBNZRC5YyYDSVjPEyAictNOAj4qg0i1Wwu8qzKIyO26iHaEEaku7YBv0Q6gIlJFGgCFKoNIlRtfEtjtVAq5HmeVQG5CEeAJnAc8VA6RKvEu4A60VylEpDp0AFJUBpHb4oV1Z7PJKoWIVLdg4KDKIHJLRmI9nMtfpRCRO2UAOoevyM16A+uAKSIid9wIYLPKIHJDZqxDkT6tUohITfot8L7KIFKhh7EeMtlTpRARR/BH4B8qg0g5r2I9nabIbdP5tKWq/BPIAl5SKUQAcAH2At+jE++IiIP6R0mvW6Q+GwTkAyEqhYg4uvex/s4tUh+9BESpDCJSm2zGume5SH0SDbyoMohIbV2BDVAZpB64HyjQ+11EaruDWEdPE6mr5gG7ASeVQkTqghSs45WL1DWfAq+oDCJS13yPzgwmdUcw8CMwTKUQkbqqEI0NILXfTKw/+zRWKeRO0/m05U5qhnUAlqYqhdRSG4FTQC+VQkTqAx/gpMogtUwXIAP4tUohIvVNV+CwyiC1xBQgEfBUKUSkvnoQ+FJlEAf3IbBCZRARsZ5EYavKIA7oHqw/44xTKURErhoPrFUZxIE8AaRi3f9CRESuMR14U2UQB7ASWKMyiIhc3/PAyyqD1BBvwAJMVClERCrn78AzKoPcYaOAs0AnlUJE5Oa8C0xWGeQOWQZ8rDKIiNy6j0t6PyLV5S7ga2CGSiEicvv+CwxWGaQa/ArrcLrdVQoRkaqzH+ijMkgV+juwRWUQEakeR4HOKoPcJldgH9rRUUSk2n0HeKkMcot+DuQB96kUIiJ3Rl5Jb0nkZvwViFQZpK5ooBJILXEXcEFlkJuwE7iCdmgUEakR3lgHwRC5ngeBIuBnKoWISM0KAI6oDFKB57Ce8tWkUoiIOIYQYK/KINf4DFioMoiIOJ4hwH9UBgF6AznAUJVCRMRxjQbWqQz12izgK6CRSiEi4vimACtUhnppM7BEZRARqV3mAn9TGeqNQOB7YIRKISJSOy0CnlUZ6rypwP8AD5VCRKR2exuYpjLUWeHAcpVBRKRurdjHqAx1ii+QptdVRKRu2g78QmWoE34LJANtVAoRkbprN3C/ylCr/Qt4X2UQEakf/od1T2OpXe4GjgG/UylEROqX00BrlaHWGA2cATqqFCIi9dOPQGOVweG9hUa4ExGp95yxnldZHFNz4DDwlEohIiIAnkCGyuBwHgHOA11VChERKcsPOK4yOIzXgU9UBhERqUhvrGeFkprTENgP/FmlEBGRGxkERKkMNeIh4DLQR6UQEZHKehTYoDLcUS8DESqDiIjcit8DqyrRrliX2758ATyvt5zI7TGpBFLP/QnruNbX+321uLi4WJW61ZWMyQTwU+BLVUNEoS1yu/6K9TjuBQrtagttrWtEqkADlUCEMKAl8LRKISIKbRHH9wfgXuAJlUJEFNoiju83WPcqH65SiIgjclYJRGw8AsQAWVj3eBYRcRjaOUTEvkMlPe+v0Y5ot7eS0Y5oIgptkTvgBPAz4IRCW6EtotAWcXxZwF0KbYW2iEJbpHbQ5nGFtohD0N7jIiIiCm0RERFRaIuIiCi0RURERKEtIiIiCm0RERGFtoiIiCi0RURERKEtIiJSJ+ksXyI14FL+JeZtmleptpMenET3tt1VNBFRaIvUVGgv+3xZpdoODBhYraH92TefsXTHUgAe7/M4v73/t3qBRBTaIuKITmedJiIxAoBe7XqpICIKbRG5ni+e+YLWzVrbfezuu+4ud9/l/MtcvnIZj8YeN5x3YVEhGdkZtGjSAhcnFxVbRKEtIrejg2cH2jZve902VwqvsOizRXyw9wNSMlMA8PX0pX/n/vy61695uNvDNu0PfHuAZzY8w07LTuO+7m26M3vIbMb3HQ/AyBUjiT8Vbzy+avcqdh3fxdLRSwluF6wXRkShLSK3Ytyqcaw/sN7mvpTMFFIyU/jXnn/xybRPeKTnIwB8cugTQpeHlptHwukEJvxrAlmXspgxYAZfHv+S9Ox04/H07HTSs9P54dIPKriIA9I5bkVurMrPp535YyYt/9zSuB3SIYRGro3Ktfvjz//Ir7r/iozsDLye8TLu/8PAPxB4dyCr96wmNjUWgPF9x7P292u5lH+JDs91MMI48O5AhgQO4f/2/59NQOe+lcuGAxv49JtPCd8fDsDgLoMZ2Xskv+z2ywo319/0Skbn0xZRT1ukLikN3muN7D3S6CGHdAgB4JGejzBvqPVwsYKiAmPao+eOArD98HYjnL3MXnw5+0s8GnuwKHQRXn/2IjsvG4CvTnzFuL7juHzlshHa97a/lyf7PakXREShLSI3y9XJFYBBAYMYNG8QR88d5T//+w/T/m8ah08fZnfybqNtYXEhAMfSjxn3/aLrL4yd1Rq6NOR/L/2PS/mXAG74G7qIKLRFxI5Tfzt13RAtLi7mqfCnWPHFihvOKyUjxbjewbODzWM+Hj4qtohCW0Sq0ztfvGMT2LMGzWJAwADcnN0YsnSITdu73O8yrl+7Q9mFyxcoKCww2jk7aRUgotAWkSr138T/Gtf/Fvo35g6dC1Bub3IAv5Z+xvXdx3dTVFxEA1MDCgoL8JnrY/ym/fULX5cbaa2YYhVbxIHphCEitUBBUYFxPePHDC7lX+Lzo5/bHb98UMAg43rct3HM+GgG2w9vZ/LayUZg92rXy+7QqLEpsexL3Wf87i0iCm0RuUn9OvUzri+OXEzjpxszcMlAY5AVgPSL1j3G/b39mfrTqcb9y2OW88s3f8nqvauN+0r3PgcI8A4wru+07CTkbyHEpsSq6CIKbREBMF1z2HLJscwVmjlwJqN6j7K5z9fTlx2zdhi307LS2H54OwBvPP4Gzw17rtx8zG5mtk7fajOvkA4hTOg7QS+KSK1Yd4jIjVT54Cq36nj6cb49/y2+nr7l9gy35+Llixz97ihnss7g7+1PJ69OODVwqrDt+UvncW7gjJfZC1dn16pZyWhwFRGFtkh9DO1auZJRaItUGW0eFxERUWiLiIiIQltEREShLSIiIgptERERUWiLiIgotEVERMRh6IQhItUo6VwSS3csrXT7gQEDy418VpHYlFjC94cD0N+/P78O/vV12xcXFzPjoxnGCUTeGvuWXiARhbaIlEr7Ia1S58Au1dClYaVD+8i5Iyz7fJn1g9zA+cahTTFvx7xt3H5zzJs3HD5VRByLNo+LiIiopy0iD3Z8kOMvH7e5r+NfOhrX3//N+zZn8GreqPnVnnFxMRk/ZuDRyANnp8p/VC9evoi5ofmWetHFxcV8d/E77nK/C3dXd72AIgptkfqjoUtD/Fr6Vfi4j4dPucfjT8bzp/V/Yqdlp3HfQP+B9OvUj5mDZtoEe1kvb3+Z9/e8T0pmCmY3M7/q8SveHPNmhe3L+u7id/xp/Z/Y+vVWm3NuT+8/nd8/8Hu9kCIKbRG51sGTB+m9sHe5+6OPRhN9NJqtCVuJey6OBibbX7b+seMfNrez87IJ3x9ObEos8X+Jp6l70wqXeeL7E3Sf390I67L/y8QPJnLi+xP8dfhf9eKIOAD9pi3iQEr3Bgfo074Pb455k5d+9ZJNkB777pjdac1uZsb3Hc8Dfg8Y96Vkphg7q1VkzsY5RmB7mb34yy/+YrMz3ILtC4g7EacXR0Q9bREp69T5U4R0CAFg87TNeN/lzeX8y7y9823Ss9ONIPb39i83bdxzccb9E9dM5F97/gXAipgVPP+L5+0u7+yFs6w/sN64vWfuHmNz/e9W/47Ve1cbXyb63NNHL5CIQltESv2/J/8fl/MvE5UUxRvRb3A84zgxlhgjsCsS2jPUJsinD5huhHZaVhp5BXm4OLmUmy41M9Xm9pLIJcb1Y+lXe/TRSdF6cUQU2iJS1jenv+H+V+8v9/vyjXTy6mRzu71He5vb3//4Pd53eZeb7uT5kza3yx7HXdb5nPN6cUQU2iJSKvdKLoP+McgI7Af8HmDsfWPp26EvC7Yv4N9f/7vCaQ+fPmxzu2wvGaCluaXd6TybeBrXfT19+fPgP9ttd70d2UREoS1S7xz97qixGdzsZuazP3yGuaEZgCNnj1x32s/+9xmX8i/RyLURYN3bvGwYuzi5UFRcVG66soeb/Zj3I7+7/3fG8dkpGSnEn4oHwLupt14gEYW2iJS6UnjFuJ6dl835nPNcuHyB5THLsaRbjMfshS/Aw8seZnr/6XyX/R3Pf3J1x7PrHWfdzqMdnb06Y0m3kJ6dzuj3RvOHgX8gIzuDv/z7L6RkpgDWIU8f6PiAXiQRhbaIAHTx7oLZzWxsHr/nuXvstvvh0g92799p2WkzIAtYD+F6qv9TFS7TqYETH078kPteuQ+ArQlb2Zqw1aZN22ZtmfjARL1AIg5Ax2mL1CATV4cabezWmA1TN2B2M9u0mfrTqSwYvsC4/Y+of5Sb9ukBTzMkcIjNdL3a9WLfs/tuOCJan3v6sHvObnq161XusdCeocS/EE9Dl4Z6sUQcYp0hIjdSXFxcfMcW9mPej3xz+huKiosI9gm+qTHAS6e9p8U9dvcWv56i4iJOnj+J5TsLTdya0OXuLpUaAvWGKxnrGOha14hUVWh7enrGZ2Zm9lQ5bo2np+ehzMzMYFVCoS0KbZE70dPWSkkrJVFo6/Mh4uD0m7aIiIhCW0RERBTaIiIi9dAtH6ddUFhAQVEBzg2ccXZy7MO9i4qLyC/Ix2Qy4ebsplddRERqf0878Wwipimmcpegl4J4+qOnOXfhnNF23uZ5uM9w5/H3Hnf4J7n98HbcZ7jTcLqONRURkTrS0y4qsj88YuLZRBLPJhJ9NJp9z+6jiVsTm16siIiI3OHQLmv52OX4ePiQkZ1B+P5wIo9Ekng2kXVx65j04CQmPziZhwIfolXTVg7/JEM6hBAxMwLnBvafblFxEQ1M+nlfRERqaWgP8B+Av7c/AOP6jqPrS12xpFtYtWsVkx6cRMyxGDYd3MT9fvfTo20PdiTtYPF/FxPgHYCflx8fxn5IfmE+E0ImMLLXSGZvmM3+E/u5p8U9vD7ydYLbWcciSc9O54V/v0DUkSjyC/Lp26Evz//ieePxp8Kf4kTmCcb1HUeMJYYdSTsI9glmdJ/RjOo9ygjdJZFLeO/L97CkW+jXsR+Dugxi6k+n0qppK5IzklkSuYSGLg0ZGDAQsJ4GccH2BWw4sAFLugVfT1+GBg1lUegi7nK/q9LLFhERuVNsBlf55vQ3dPtrNwCS5icZoV0aYMtjlgNQsLyAuZvmsjhyMaE9Q9k0bRNrY9fyxPtP2F1I2ZMggPUkBt++8i2FRYUEhAWQlpVWbpq9c/cS4htC0EtBJJ5NtDvf6D9FM8B/AOvi1jFm5RjAeg7i3cm7jeu75uxia8JWhr813PpE37EOkjF06VAiEiPKzTPw7kDi/xKPq7NrpZYNGjyiHtDgKrezktHnQ6TKVHqbcLDP1VE6KzrLUKmoWVEkzU/Cy+wFgI+HD5YFFj743QdG7/p4+nFW7lpJWlYaZjczaa+mkbMsh8FdBgPwWsRrNvMM6RBCzrIckuYnGSdU2Je6D4ClO5YCMPa+sWybsY3DYYd5NPhRvJt6cyn/Uvn/70iUEdhrfruGK29fIWKm9Xbi2UTWxq6t9LJFREQcLrTTs9ON683cm1XYzsvsxaCAQfh7+xtBP7zHcDp5dWJI0NWzEOUW5HLo1CHj9uQPJjNyxUiSM5IB2Hxos818R/cZTSPXRvh7+9O7fW8AI5AHB1qDPnx/OM1nNWfcqnH09e3LyidW0si1Ubn/sTRwzW5mxoeMx9nJmYcCH6J7m+7WXn7K3kovW0RE5E6p9AHWMZYYADp7db7ucdmuTq5XZ17Szt6x0SZM5OTnXJ3O2Tpdtzbd6NamW7n2Ho08rn7TuGansTlD5uDu4s7qPauxpFtIOJ3AnI1zeGPHG6QuSi03r7yCPABamlvazMujsXUZ+QX5lV62iIiIw4T2uQvnWPHFCiKPRAIwrf+0KlmwyWQi8O5A43b4pHAauTYiNiWWw6cPV/qUgLlXcpm9YTYAG6dupKW5JdsStjFp7STSstKIPhpdbpqg1kEApGSmkJCWQPe23TmTdYadlp0AdG3TVe8MERGpPaEd8GJAufuGBQ1jSr8pVbbwcX3HMX/bfLLzsun39374tfRj/YH1ACwZtaRS82jo0pDopGgs6Ra2JWwjNDiUrEtZgHXzd7BPMLGpsTbTjOg5Al9PX1IyU+ixoAf9O/c3AtvsZmbiAxP1zhAREYfT4Nrerz0hHUJ48ZcvsmnaJtxd3a0TlmwmLv1rb9prHzOV2YHUhIlOXp2ImhWFr6cvB08eNAJ73tB5zBgwg4r+N6cGTjbz2zh1Iw93e5i0rDSWfb6MtfvWYnYz8+6Ed2lpbmmzXLBuro+aFUVIhxAAI7A7e3Um5pkYWjRpUellV4I3MAXQ+KkiInJbHOJ82oVFhaRmppKdm03nVp1p7Nb4luZz7sI5kjOS8WjsQfsW7e3uhGZvmhPfn6BNsza0bd62wi8u1y2i/UNamgJvAI8DqUAXvd1qLR3ydTsrGR3yJVK3QruOrZScgNeBaUARkAc8CkTXoafsXObichu3XapwXtW17JeBl/T5UGiLKLTr1krJHQgD5pYEtXvJw8eAX9bCsKrotjNQUOZy5TZuX6nCeVXnsvX5UGiLKLTr2EppNTC6TFhTEt5ZwIVaGlb2bhfUw5dYH47bd7TkknTN9e9VmvrB09MzPjMzs6cqccv1O5SZmRms0K660HYCJgKvAA2BxmWCW+cEler+UuHoPVn/kkvANdepIMyP6mWte+9T5cxt54xJoV2FxSxz1zjgNaAZ1s3JC4G/qlJSj0O7Ii0qCHN/wFJBmGfqJVdoK7RVzKoM7VKhJT1v75IAF1FoV17nCsLcRMWb20WhrdC+Fb0X9ubgyYPXbZP1zyzjNJj2+Mz1IS0rjcg/RvLzLj+32yZsSxgLti9gQt8JfPD7DxwttEv1AL7W204U2lXaO7fXQ7dUEObqnSu060RoO1fXAnKv5FbmFbzu4xcuXwDgSuGVCtuUjhNeOp64g1Jgi1Sd74E9JRd7vfPSAP8J8NuS6w2uCfOyoa4kcVAFhQUUFBXg3MD5uue8cARFxUXkF+RjMpnsnm+jqlRbFRaPWkx2rvUc2qt2rSIiMQIvsxdvjnnTaNPErYnelSJSlSwll63X3O9xTc/8d2V66Mewv7k9Q+WseolnEwl6Kajc/YF3BzLQfyDP/+J5vO/yBmDe5nksjlzMo8GPsmHqBod+XtsPb2f4W8OtHdJ3qu97YLWF9tCgocb1Pcl7iEiMwLOJJ6N6jzLuP3ruKGFbwjh06hAFRQX069SPYV2HMfre0eVe5NV7VvPVt1/h19KPOUPmVLi5HCD+ZDwvbn2Rfan7aObejP7+/Vk4YiGeTTz1iRGpn84De0suFfXO/cv0zv2xHhFS0W/n6p3fao+0qKjCME88m0j00Wj2PbvPplNXVFykwlV3aN9IXkEefRb1ITvP2hv3MnuxZu8a1uxdQ9OGTRnWdZjR9pkNzxjXUzJTiDwSyc4/7+RnnX9Wbr4JaQn0WtjLuJ2enY4l3ULUkSjinoszTr8pIlLJ3nlpD/03Za4fx/7mdvXOb8Lyscvx8fAhIzuD8P3hRB6JJPFsIuvi1jHpwUlMfnAyDwU+RKumrRz+uYR0CCFiZgTODezHalFxUZWc2rnGQjv+ZDw+Hj40bdiU//7xvzRybUTrOa1Jz04n7kScTWiHdAjhk6c+4ce8H+n/en/SstJ49T+v2g3tsC1hAAzuMpjN0zZzMfci/i/4k5KZwkdxHzG9/3R9UkTkdnvnncoEeN8yge6M/cPUjmId1ljKGOA/AH9vf8B61seuL3XFkm5h1a5VTHpwEjHHYth0cBP3+91Pj7Y92JG0g8X/XUyAdwB+Xn58GPsh+YX5TAiZwMheI5m9YTb7T+znnhb38PrI1wluF2x03l749wtEHYkivyCfvh368vwvnjcefyr8KU5knmBc33HEWGLYkbSDYJ9gRvcZbWwdLiouYknkEt778j0s6Rb6dezHoC6DmPrTqbRq2orkjGSWRC6hoUtDBgYMBKz7di3YvoANBzZgSbfg6+nL0KChLApdZOyEXZllO0Roh/iG8PGTH7M1YStjVo4h7kQc6dnpABQU2Q66NXPQTFo1bUUrWjGt/zSe/+R5Dpw8YHe+e1Osn6/kjGRGvWP7hD9P+lyhLSJV4VjJZds19zfHdo/235S5nlxBmKernODi5MKgLoOwpFuITY2lsKgQy3cWIhIjjJM/nck6w2f/+4zP/veZzbQHTx4k7N9hxpbblMwUhr4xlG9f+ZbCokJ6v9ybtKw0o31afBob4zeyd+5eQnxDiLHEkHg20Wa+KZkpbIzfSPSfohngP4CPv/qY2RtnA/CA3wN8efxLvjz+JZGJkeyas4uMHzOISIyw+b9GvD3C5r6UzBTejnmbnZadxP8lHldn10otu6wGNfUCxabE0nV+V57d/CypmamMvW8snb06221bejpMoMJND6Uu51822rk6u+Lq7MrAgIE80uMRurbpqk+GiFSnH0p65quBZ7GO1RCI9ffxh4F3gLMlvfOFwOEyPfr3gXkl03SpyfVzTQn2Cb5ayEs/XLdt1KwokuYn4WX2AsDHwwfLAgsf/O4Do3d9PP04K3etJC0rDbObmbRX08hZlsPgLoMBeC3iNdvOZIcQcpblkDQ/CbObGYB9qfsAWLpjKQBj7xvLthnbOBx2mEeDH8W7qTeX8i+V//+ORBmBvea3a7jy9hUiZlpvJ55NZG3s2kov2yF62hsOWvcE7NWuF1899xWX8i+xatcqoPyhYOsPrCe0ZyiFxYVs+XoLAF1b2w/g7m27szt5N/7e/nzy1CcAbDy4kfM55wlqHaRViog4Yu+87J7tE8pcT8H+5vY62Tsv3doK0My9WYXtvMxeDAoYZAR9RGIEw3sMp5NXJ5uxP3ILcjl06pBxe/IHkwHrlliAzYc228x3dJ/RNHJthL+3P73b92anZacRyIMDBxObGkv4/nDC94fTvU13xoeMZ/KDk+2eBro0cM1uZsaHjKeBqQEPBT5E9zbdSTidwN6UvUx8cGKllu0QoR14d6D1XfzdMV7+9GWik6KNTRvXHpe9/sB69ibvJb8w33hRZwyYYXe+0/tPZ3fybrYmbGX4W8PJycsh+qj1rJhxz8VptSEijtg7jy25XKtjmQDvUxLo/oArFf92XlhbCxFjiQGgs1fn6x6X7erkejXEStrZOzbahImc/Jyr0zlbp+vWphvd2nQr196j0dUdla/daWzOkDm4u7izes9qLOkWEk4nMGfjHN7Y8Qapi1LLzat07JCW5pY28yrdGbp0jJHKLPuOh7bJzmBNo+8dzeo9q/ny+JeEbQmjT/s+PBr8KBvjN7I5fjN/+/XfjLaP9X6Mz775zAj1hSMWEhocap23yXbeY+4bw/c53/P0uqfZmrDV+Kbzzvh3uLf9vVo9iEhtcrzkcm3vvBm2v51PKHM9FfuHqTls7/zchXOs+GIFkUciAZjWf1rVZI/JZHQQAcInhdPItRGxKbEcPn2Y5o2aV2o+uVdymb3B+nv2xqkbaWluybaEbUxaO4m0rDSjY1hW6ZbdlMwUEtIS6N62O2eyzrDTshPgln+uvSOhveSxJSx5bInNfY3dGvPF7C84df4UJpOJts3blpvu4hsXjesFhQUkZyTTzqMd7q5Xz375SugrvBL6is10MwbMYOIDEzmWfgwXJxc6enXExclFH38RqSuybtA7L93c3gcYX3LdlYrPqFYVvfN2wFDg3cpOEPBiQLn7hgUNY0q/KVVWqHF9xzF/23yy87Lp9/d++LX0Y/2B9dZsGrWkUvNo6NKQ6KRoLOkWtiVsIzQ4lKxLWUanMNgnmNhU25diRM8R+Hr6kpKZQo8FPejfub8R2GY3MxMfmOi4oX09Ph4+lftHnZyNQwMqw93Vne5tu+ujLSL1tXe+3U7vvOxv5+PKXD9RQZh/dxPL9Qf+CQwHfnm93q89IR1CGBI0hHlD59HQxXo249LNxKV/7U177WNlt+yaMNHJqxNRs6J4cu2THDx50Dgnxryh88r9zFp2/qU7QJfOb+PUjczbPI/th7ez7PNlRvi+O+FdWppbltui7ObsRtSsKMauHEtsaqwR2J29OrNu8jpaNGlR6WXbtCv5q4Hcb3MTDPXrhA3iWIr1/pPb5If9M6q5UfGocPZ657ll7h90zZaAGs2ZwqJCUjNTyc7NpnOrzjR2a3xL8zl34RzJGcl4NPagfYv2dndCszfNie9P0KZZG9o2b1vhF5fK5IxCW6EtCm2RijSj4jOqnbAT5s+U6WVfxHqI2xzlTNXljEJboS0KbZFb7Z1fG+bdsf523rhMz/s00B84pZy5/ZxxBvD09DxkMpl6qiy3xtPT81Bmpk7XKyL1SnLJ5dNrvkCW1QBojXXQGKmK8FYJRNTTFqkCMcBPgR+x7uScDLwHbAJOoS26VdfTFhERuQ2hwAPAbmBNSVB/r7Kopy0i6mmL43Ep6V1fvt77VD3t2+9pN1ApRETkNl25QWBXi94Le2OaYrru5cLlC9edh89cH0xTTEQdiaqwTdiWMExTTDzxrydqvNAKbRERqZVyr+TesM2NeveloX7tOS/KKh0nvHQ88Zqk37RFRKRWWjxqMdm51nNSrNq1iojECLzMXrw55k2jTRO3JnXqOSu0RUSkVhoaNNS4vid5DxGJEXg28WRU71HG/UfPHSVsSxiHTh2ioKiAfp36MazrMEbfO9pmXolnE1m9ZzVfffsVfi39mDNkDj/v8vMKlx1/Mp4Xt77IvtR9NHNvRn///iwcsRDPJp4KbRERkZuVV5BHn0V9jDNEepm9WLN3DWv2rqFpw6YM6zrMaPvMhmeM6ymZKUQeiWTnn3fys84/KzffhLQEei3sZdxOz07Hkm4h6kgUcc/FGaffrA76TVtEROqk+JPx+Hj4ENIhhItLL3LmtTN4mb0AiDsRZ9M2pEMI5/5+juMvH6dtM+tZJ1/9z6t25xu2JQyAwV0G8+MbP3LmtTOY3cykZKbwUdxH1fqcFNoiIlInhfiG8PGTH/NIz0cYs3IMree0Jj3belrxgqICm7YzB82kVdNW+LX0M87nfeDkAbvz3ZuyF4DkjGRGvTOKiWuunmbz86TPq/U5afO4iIjUSbEpsfzk1Z8AEHh3IGPvG8unhz/Fkm4p17b0dJgAzg2uH42X8y8b7VydXQEYGDAQgK5tuiq0RUREbtaGgxsA6NWuF1899xWX8i+xatcqoPyhYOsPrCe0ZyiFxYVs+XqLNYBb2w/g7m27szt5N/7e/nzy1CcAbDy4kfM55wlqHaTQFhERuVmBdwcCcOy7Y7z86ctEJ0UbO6Vde1z2+gPr2Zu8l/zCfGMT+owBM+zOd3r/6exO3s3WhK0Mf2s4OXk5RB+NBiDuubhqfU76TVtERGo9k52RfEffO5p+HfuRnZdN2JYwcvJyeDT4UQA2x2+2aftY78e4cPmCEdgLRywkNDjUOm+T7bzH3DeGZY8vA2Brwlaij0ZjdjMTPjGce9vfW83PU0RqO409LrXifVpTY4+fOn8Kk8lE2+Ztr9uuoLCA5Ixk2nm0w93V/YbzvZx/mWPpx3BxcqGjV0dcnFyqL6xLxh7XB11EoS1Sp0O7TmxJ0AlDREREaheFtoiIiEJbRERERETK0g+F4vA8PT3jS96rutzCpaR+IqLQFpHaQpvHRUREFNoiIiKi0BYREVFoi4iIiEJbREREFNoiIiIKbREREVFoi4iIiEJbREREoS0iIiIKbREREVFoi4iIKLRFREREoS0iIiIKbREREYW2iIiIKLRFREREoS0iIqLQFhEREYW2iIiIQltEREQU2iIiIqLQFhERUWiLiIiIQltEREQU2iIiIgptERERUWiLiIiIQltEREShLSIiIgptERERUWiLiIgotEVEREShLSIiIgptERERhbaIiIgotEVERBTaIiIiotAWERERhbaIiIhCW0RERBTaIiIiotAWERFRaIuIiIhCW0RERBTaIiIiCm0RERFRaIuIiIhCW0RERKEtIiIiCm0RERFRaIuIiCi0RURERKEtIiKi0BYRERGFtoiIiCi0RUREFNoiIiKi0BYRERGFtoiIiEJbRBzFYOAC8Jtr7v8NkAU8pBKJ1E0mlUCkVsoFCoDLgCeQCTQEXAE3lUdERMRxzAPygOIyl1zgWZVGRETE8Vy2E9oiIiLi4L1t9bJFRERqSW9bvWwREZFa0ttWL1tERMTBuQCrse41LiIiUr95enrGY7vDly43cSmpn4hUAR2nLXJjxcXFxarCra5kTCata0SqiEZEExERUWiLiIiIQltERKQeclYJRKpeQWEBBUUFODdwxtnJsT9mRcVF5BfkYzKZcHPWsOUi6mmL1AGJZxMxTTGVuwS9FMTTHz3NuQvnjLbzNs/DfYY7j7/3uMM/r+2Ht+M+w52G0xvqRRZRT1ukbigqKqowzBPPJhJ9NJp9z+6jiVsTm16siIhCW6QGLR+7HB8PHzKyMwjfH07kkUgSzyayLm4dkx6cxOQHJ/NQ4EO0atrK4Z9LSIcQImZG4NzA/uqgqLiIBiZtlBNRaIvUUgP8B+Dv7Q/AuL7j6PpSVyzpFlbtWsWkBycRcyyGTQc3cb/f/fRo24MdSTtY/N/FBHgH4Oflx4exH5JfmM+EkAmM7DWS2Rtms//Efu5pcQ+vj3yd4HbBAKRnp/PCv18g6kgU+QX59O3Ql+d/8bzx+FPhT3Ei8wTj+o4jxhLDjqQdBPsEM7rPaEb1HmWE7pLIJbz35XtY0i3069iPQV0GMfWnU2nVtBXJGcksiVxCQ5eGDAwYCEDulVwWbF/AhgMbsKRb8PX0ZWjQUBaFLuIu97sqvWwRqVoa8EDkxoqLi4v55vQ3dPtrNwCS5icZoV0aYMtjlgNQsLyAuZvmsjhyMaE9Q9k0bRNrY9fyxPtP2J252c1Mdl62cdvL7MW3r3xLYVEhAWEBpGWllZtm79y9hPiGEPRSEIlnE+3ON/pP0QzwH8C6uHWMWTkGgAf8HmB38m7j+q45u9iasJXhbw23PtF3rIPIDF06lIjEiHLzDLw7kPi/xOPq7FqpZYMGVxGpStrmJVIFgn2Cjes/XPrhum2jZkWRND8JL7MXAD4ePlgWWPjgdx8Yvevj6cdZuWslaVlpmN3MpL2aRs6yHAZ3GQzAaxGv2cwzpEMIOctySJqfhNnNDMC+1H0ALN2xFICx941l24xtHA47zKPBj+Ld1JtL+ZfK/39HoozAXvPbNVx5+woRM623E88msjZ2baWXLSIKbRGHk56dblxv5t6swnZeZi8GBQzC39vfCPrhPYbTyasTQ4KGGO1yC3I5dOqQcXvyB5MZuWIkyRnJAGw+tNlmvqP7jKaRayP8vf3p3b43gBHIgwOtQR++P5zms5ozbtU4+vr2ZeUTK2nk2qjc/1gauGY3M+NDxuPs5MxDgQ/RvU13ay8/ZW+lly0iVUu/aYtUgRhLDACdvTpf97hsV6erJ+MqbWfv2GgTJnLyc65O52ydrlubbnRr061ce49GHle/iV+z09icIXNwd3Fn9Z7VWNItJJxOYM7GObyx4w1SF6WWm1deQR4ALc0tbebl0di6jPyC/EovW0QU2iIO49yFc6z4YgWRRyIBmNZ/WpXM12QyEXh3oHE7fFI4jVwbEZsSy+HTh2neqHml5pN7JZfZG2YDsHHqRlqaW7ItYRuT1k4iLSuN6KPR5aYJah0EQEpmCglpCXRv250zWWfYadkJQNc2XfXCiyi0RWqPgBcDyt03LGgYU/pNqbJljOs7jvnb5pOdl02/v/fDr6Uf6w+sB2DJqCWVmkdDl4ZEJ0VjSbewLWEbocGhZF3KAqybv4N9golNjbWZZkTPEfh6+pKSmUKPBT3o37m/EdhmNzMTH5ioN4BIDdG2LJGb6P3aE9IhhBd/+SKbpm3C3dXd+sEq2Uxc+tfetNc+Ziqzg7UJE528OhE1KwpfT18OnjxoBPa8ofOYMWBGhf+bUwMnm/ltnLqRh7s9TFpWGss+X8bafWsxu5l5d8K7tDS3tFkuWDfXR82KIqRDCIAR2J29OhPzTAwtmrSo9LJFpIrXQyqByA3V6Pm0C4sKSc1MJTs3m86tOtPYrfEtzefchXMkZyTj0diD9i3a290Jzd40J74/QZtmbWjbvG2FX1wq8WVH6xoRhbZI3Q/tOrKFQusakSqgzeMiIiIKbREREVFoi4iIKLRFREREoS0iIiIKbZHapvfC3pimmK57uXD5wnXn4TPXB9MUE1FHoipsE7YlDNMUE0/86wkVXUShLSK3IvdK7g3b3Ogws9JQv1J4pcI2peOEl44nLiK1m4YxFakBi0ctJjvXeg7tVbtWEZEYgZfZizfHvGm0aeLWRIUSEYW2SE0bGjTUuL4neQ8RiRF4NvFkVO9Rxv1Hzx0lbEsYh04doqCogH6d+jGs6zBG3zvaZl6JZxNZvWc1X337FX4t/ZgzZA4/7/LzCpcdfzKeF7e+yL7UfTRzb0Z///4sHLEQzyaeemFEFNoicrPyCvLos6gP2XnW3riX2Ys1e9ewZu8amjZsyrCuw4y2z2x4xriekplC5JFIdv55Jz/r/LNy801IS6DXwl7G7fTsdCzpFqKORBH3XJxx+k0RcUz6TVvEAcWfjMfHw4eQDiFcXHqRM6+dwcvsBUDciTibtiEdQjj393Mcf/k4bZu1BeDV/7xqd75hW8IAGNxlMD++8SNnXjuD2c1MSmYKH8V9pMKLKLRF5GaF+Ibw8ZMf80jPRxizcgyt57QmPTsdgIKiApu2MwfNpFXTVvi19DPO533g5AG7892bsheA5IxkRr0ziolrrp5m8/Okz1V4EQenzeMiDig2JZafvPoTAALvDmTsfWP59PCnWNIt5dqWng4TwLnB9T/Sl/MvG+1cnV0BGBgwEICubbqq8CIKbRG5WRsObgCgV7tefPXcV1zKv8SqXauA8oeCrT+wntCeoRQWF7Ll6y3WAG5tP4C7t+3O7uTd+Hv788lTnwCw8eBGzuecJ6h1kAovotAWkZsVeHcgAMe+O8bLn75MdFK0sVPatcdlrz+wnr3Je8kvzDc2oc8YMMPufKf3n87u5N1sTdjK8LeGk5OXQ/TRaADinotT4UUcnH7TFqlhJjunmh5972j6dexHdl42YVvCyMnL4dHgRwHYHL/Zpu1jvR/jwuULRmAvHLGQ0OBQ67xNtvMec98Ylj2+DICtCVuJPhqN2c1M+MRw7m1/r14MEYdfX4jIjRTfaHSy6nLq/ClMJhNtm7e9bruCwgKSM5Jp59EOd1f3G873cv5ljqUfw8XJhY5eHXFxcqm+lYz1i4PWNSIKbZG6Hdp1YiWj0BapMto8LiIiotAWERERhbaIiIiIyLU8PT3jgWJdbu1SUj8RqQL/H1uiuwFPiNtvAAAAAElFTkSuQmCC;" parent="1" vertex="1">
          <mxGeometry x="480" y="146.69" width="145" height="106.47" as="geometry" />
        </mxCell>
        <mxCell id="nwe9QO-fqDBaUatCqOqn-43" value="&lt;b&gt;GOLD LAYER&lt;/b&gt;" style="text;html=1;align=center;verticalAlign=middle;whiteSpace=wrap;rounded=0;fillColor=#fff2cc;strokeColor=#d6b656;" parent="1" vertex="1">
          <mxGeometry x="375" y="270" width="250" height="30" as="geometry" />
        </mxCell>
        <mxCell id="nwe9QO-fqDBaUatCqOqn-45" value="" style="edgeStyle=orthogonalEdgeStyle;rounded=0;orthogonalLoop=1;jettySize=auto;html=1;" parent="1" source="nwe9QO-fqDBaUatCqOqn-29" target="nwe9QO-fqDBaUatCqOqn-36" edge="1">
          <mxGeometry relative="1" as="geometry">
            <mxPoint x="500" y="380" as="sourcePoint" />
            <mxPoint x="500" y="300" as="targetPoint" />
          </mxGeometry>
        </mxCell>
        <mxCell id="nwe9QO-fqDBaUatCqOqn-36" value="" style="shape=image;aspect=fixed;image=data:image/png,iVBORw0KGgoAAAANSUhEUgAAATgAAACiCAMAAADiKyHJAAAAxlBMVEX///88Oj7iWhw5NzskISc2NDgtKi8lIigeGyEhHiQzMTUoJSo1MjcwLTLgSgDhUgDgTADiVxTgRgB+fX/s7OzNzc739/eGhYfX19ccGB/m5ubz8/PhVAu9vL1EQkawsLFZWFtmZGeioqNubW+KiYuamZv88Oyop6hNS07DwsP429LmdUzjYSh1dHbS0tKWlZfyva3toov1zcHlbD3pjW5dXF/xuanvrJj21Mr76+bohmXrlnrupY7ne1Xph2bkZjMAAAgSDBYL/0/PAAAWd0lEQVR4nO1d12LbyA4VPSTFIqpXqrdIcpPtRHYcx5vN///UDjswAxbZm7iehxsvxQqiHmB4S6UPiO7t4/n5j6uXvo03h9tmrXFy0qjVb176Tt4WHqonIZo/X/pe3hJ+1k9iVO9e+m7eDr43TwCan9ZaFI0ThPqXl76hN4K7Ghbc6PGl7+iNoH4ioPpprEVwJQnupPHS9/Qm8NiQBFe7fumbegtoSnLjkfX+pe/q9eNUtlRuq2cvfVuvH7c1QnAnn6VXLr6NKMGd1F76vl49fsmxwRfcw0vf2GtHlZTbZ3zIw32a4BpfX/rWXjduQFAdIautf7KaWQCF6ugB+7vP+JCFH4ms6jenKBkuEB+6N9ePJ/XG2c/Tv3CrrwtAUNV7ITfJiQ/ff35t1j3G/aRRaz52/9INvxJ0gY41+X+iMiIjPpzePVYDoUV2fv4X7/oVABRcvpgwVULHh/urf+rVmpj+fTBi4ArGBm/DVxxZxf2/3DyMqjWy2JD2fdd4SGRQu/U23GfEh+/Xv5p1ukLjqH4oxv0MBNXv/pYHVPTH8eH07owLjS7PPqLgqvKDI8H5ju/+9ke9Ljk1SXAv+iB/GbDgGoXbcHwYPT405EhAoPGhWjyg4Eoe/AyJqZHq1DA+FoMHCq5aPPtwT5HpuQr3sfI4UCmAnO2aJIWz0fz+go/x93EOgiooNwtaJ8BH4z2BUcKgeJNG0sUQosXog5F3sOD6BX84ywqjjVq9LgSQj9bBBkF19A3+kBofuNCqj3ensOI48XmVj4WfIKjisTgqPjRG9ebXn34QuEO53gcLDCWBxcQ/ifFhVGueP9yEpNsNUsjq7d+/8xcGUCvR2mB8aNSqtW9XSSmKieL6x+KTSqXuFfTwEikU/ug5tR+3SKpfkJ3WPlSpVfpy+9isA7nJwyI8PnhO7exOaiecw4iKo/E7x/3d16ZQt4/kBPa6eX59Q3QSzqD7a9Q+DJl0+vOcYDtqBElOi+Qbzde9c3z3iG8qua0X7e/doaLiY0yo33yrpxLfzYLdPSERef9rIro3/1TT2wUcxU4jdCS+5R/xpvHl6jGjyeKh8aPYiZCZj9732OaX2zMxhEqoNYvZHJoted/U5c1jntR4WXByXSw0PCKtfc8LcG5O6nlSa/66K5pRPODK/v3O2Xw5yxYbl9rZbfE87BYnIu93eu4+U2wjXoJeHWNseIlh/f0ua/1STZfbqF7/dmTqikdea//8mZt+DfiaIrdGrV57OJp57KLph/fcYqD7LUeEUAz0GhqNdzxFSKz7OCqEYvxAlf27bjGcS5ba+HpECMW4/kAtBrnZUntya+AKB9S/1WJot9vYJXSHXQ5xty7fTzrW7XT6wrmos7bdEMmexEqjWvOfp+kKdnB/KzDsf6u/V2iLbZgc5RaW3cxQ/x2jLd21pdp2ubyLt3T+Vf8N/+R/deLtiln2EP9YKgmNzxCj+sndEwqlWzxSffwJnoKhoSjaHG7pmooPR4OS66iKYq3hfjvbYd5+eiLOjaMdgr/csmIO4+1GcEZ4ne/0FAMPED+OVzs08fB0kz8KPct7drilbyuMKxxTHCinLReStgQbpgMuW9VWbTMx1lbFCpV3pytOcsaywgwOpNkpqwKfpHY3uK913MFPg2soXCIm9F5TnU1KXXfC2CzZOLYVjatcsqEzUJi64Mf1Z8nBW6ZPg78WDlCvsc4U6cqnGVNuR6sdegu1v8H7LjU2nyh2B2xaWdoF/2dvsW2yUWHaUoPW5zDmAF8fwFTsUP0uKs4+3rx2Khfype+yRo4a9cYxaofT6eqfz3/7hlLuLzVnA7Ydgv9casAyp7pidnXFvoQbUDz14Dm28E+FAdcnXCDCdfawVq35WLxeRdNJz1gL0t9t1vvVfjGWHg7joHF7XFmVFtjGvdO07a51JTI7fxt3XjPmxFtmDDm8AGNdYYeZDy3WPQ5LYVuOyVjY/66Zw8bVRz8L5sSnmFN6EofZX89MW3ccy7Ic3VaX4u0C8FCpdkpThzu1GG0ePp1y2VI0Fm9bO4oxLLUsqxdtMWAwjXfjgYYFUBQj3jw0g82q9BZPz6lPPECj+1q0mEBfJyHa13noLljZYgqAZpN24mPL2NwPo8lTljq2fxjTtdjpd1U/E9k4sdfj0k3MNgb3gpbuQ1PAu7jkYdrm+JdwPVejDFZuVA3YyCIuC/e3ju5D700HSS2ArtAWy0Mlmy2XcwbtauNwWdv2bJHst3IUNl8uZ0xRwy1ccPquJIIxa78bc+y4g0zCAQ/T28sOB3kTN1/TiLnqD19i3aV8JQL/wIx6VKwrFmHnOLLUfPUZLKj9vUyEaRpDSSw3SFxIlNoDJdqvHAVSQ0nMNkLXiH+fa05yxZUl7wtx+qNJlBGjWhAaxvpAit4UBJU7hptqmYS2hbBb8v48MmqhYVlJ7pDkYvF5rdACWaJmBy2KqslTcZOPgqoOFfIAggqN++uqUPQ3mkEzeTjnkbpYdoGKuCM+hTPcpqhbaK5yJsVtcu4Z1pgbVpKtGqL3cj3t8vebsLjo2vEQYm9cd3eRvBHPJIO/2maim6WS5yE9C860uNsGdHa1kyABnpoVBZQgmfiCpx+KZtBtR8uSG5ecaC4LJ1Ia7tbiogsXmR7mPLUI/roAqd2cvybHLus2ZZKXie4FYdrTWJNQeojE2TWaQVR0Z16gYodiEsBzwUVJkraebqYhVGwvXZNZoRh2NjOiELqztQra73LA9FA4e11Liq552bsiMxPveLD0MH5PdW0Wb96pmg87NbhHCJ1d7TxwUIuBrwvZDhI+Ecptin2dr6vlyk1RBii2rnlGGpqTO9lOopC3mEywUS956hr+OZ5slUQbxzNDNdgq2cDPEhr5frtNnOb0MPdxkPMXCfcP1Xo47tDf6sFtO2Rgo4C+CVlsAmKWY6c+GMs/0XFo//9FYfcqSMH2g0gViEw7DSjCFPmgy0ovIDeu9HKV9EpxqSSRjsi0uVsmD0OMZiN/NKxjFJKbovzOSQteC3oG8DyqzNiXWp73uD+XBqfxlw5yGU3RwTFeo9pylE1Jg18fLpEiGPIOe7vs/dOs1es/rmB1dXUUo7nHCRxTZ5tOvzNdejkQNFQrhyp5NZhCzwMJiBAbVVG9uParEbSwH5Lh8/MjGM3hAMtnG8mnvbTBdnv+ZtrbHssSQ6avxlwhdS8LCJvacLkDJtGzPzWyh5dRHHidjZmYaW4W9XrQgl5GrJx5Yuk9pvc4IP2IVyV9Lc5ooogK+wQcUzW8uvZWzNTDDPpskRRzfQfoU6/fMZvnrYP7eY0/W5XBaF5Ce1TKgoB6vv+z30we4qMMn0igr8ISya+K5a8ZNoSvA2Wp3AKGBrmbNGFvy0xLSWM39M1IFbos1Ea/Fs7hj08yv9JyAWMnbi176BsWK8Rn+bf1nPjRdTvj6XQ67rjPjEJ9ZEOYVNpG7s9nXzJXmAfhIb1i3UKHQMTuVhEzbe/WF1tb9SYfJsv17ugnd6ctxSzbPmtnl81JrxBpm4Id8to2/OkQB0Lfgsk5Cuz30rsPKKYG+c2RuFwxU7cq4QtgmqUPDseUGO5aMfUKen+WbrQKhSN3vNivej5Wq1XANGyQ85mBvZfJL/6YAf1VaogMdgmXqbKt5mC4tmxLolY0XV0N8w/20JkbVJ9DqZiHPNG110zVHcuqWAGMQE9XKI0DLF4PPKvf4v6e6+QyOBKhsrLXqXtSt96jn9p7pUaRM3W25VRiRjMyqctubyC8sZA1XqI0LrmLNYy2fhj8kv/9kXSNmwkPbtDNJBJ7Axu6IDolj0Frz9VMHjCryhuXpWuHcWACz5k0QKYo2Or+S6nnLDDJ8nGtinj5om4utSkWgQ32mSfYDPJoQDZIc5YtVd47bC6gX+Kxlg6qLK3AJfkr0LMiREZU3YhPz7RiQTGrKRZBz3CZ3YOdezx/jbTsDwSDGMaBNhJc1PTpY7nNklPdPNTSv7qXQZD0y4oAbZu+dwxXyVG3AE7qufpWEdaZPzkluTl18XCCBZdCYdPHLcO3XBHuil6OzlHNYoErkuJY+X2hTgF1C841o0+wMwqeQDHluqVHMtbhIOMYkUoB3T+sZMnNw/3tmWy09cyVvmv57Tl5Se94IB2TBvpcR5xAGYjhameS+4XNBfQ8YXo1gdqtTWhf1L3Cq6yjLmMahsQz6Nk9zOkRj63YBG98jNz4GYSUMKVDEjYXULSr+L3BGQzAjGVkmP7XEEYNjlH9JK9BuCJyCltksSB29GMzRlufPLvRoU7ASw4OyvEJWfk+xbuGzQVMKnlvbYnk5hA9CIj724ez8/Oz6/xWfpd6g3Z6JtGXH5s5tqlttxNb1eUnB83lAK5sahXdVJYrXj3N9bKcUquodCUSkWCv4GekBp75tpDT03PkdgxIn6GmdWaGtvhgljlb9AO/4Y6XclJcFkp2RTyBY7Z2sf24C018k4jtmgq/MqsS1FxBHJBIpT2MsuwpxXg6yChFRDMfW0GnLHOFbqa9GohdM8y5XAiSdfSN4K03Ysy2QVMZVVQKM2dBgb/qBUHVRemV2sUFg/E/M9kHqnQyyKx9j4XMjJ4Uo9yJcLoyjItjVTgB4RTaE/x24AA7EoS1FTWog+6vskOtwkGBMYrjMKGc8oAYHnCFnhgjX6GQoILxStGjVuhuRneCdS6Z/0WFAZMzsim+NLqalNg8H0OS5CAuhHhPxUkrqeYCzZf80kMPZs1S6rshrscSkqMDfyA81j6dd6AU4dkgIp0iDiiV/LFfKDdi3UYIrDHJChKssRk1Cr5SolowNhCENW4FINCu59m4JJMzkSpBqZqVUcK7yLckCoNbHFlVMea7jEgzoUZZRJ6+TSvl0oLds0GmtcxBafY4Z7gAoId42EjEbSRPPYslRjaZzBzBoEqNvkmcRXStoxjaozClrBUrBXqdRmZKJIgo3Io8kJrdklFIQhL6AGL0bUjXsWKn/f/FmnpbDpgE7cOI5uS8wjkM1FGTDmpRXn8DjYDEygVvwZYjcj+N5LOf0zjLw4q6KuDSUVWbN8yNMvyQT9zBC2RrrCCDaAQEZSPE6NsudUZSpAr+V1xQxGpS78BMIne0FqXwoW60gOSJVXACoIzAQDp4HfIxi1R+tVJ0+vxJmBNZUOxeEFls5r5A6OTCfESXN2UAetRIcOOcbKSXnsblj60/BzP5wiyasYftiQINWPjcgZSwEuae4AJ4yWjtDqQpKZ2dZxDyxdYmPRVE8RX5VZiD5a0SKuExtUBwU7EjnA3oUiPPAGlKafStJCSaCuZhsvOn54JY8hCVmvCmiIAmAr78YHckiXzDgWE1elEHJm+DwElQB0vOKbpW5Eloy6E1sCrEdJk5ZynhjCuIqnNJBzMBzTJK2aAnIVZuCqRSu4PTumO67cejL03vB7U0TA+KLBaBpwlGv5HK5jscyJGHlQN6eWX5FLjcMCTyT/+jg8xjkZwOXi0KaLPcsxByhupALT8QAC07FBLSKGI9JR4454lUVyC4jh0qOg49IRkKEpL1cUF1I8e/HHURAcvSUEhIo3T5kLVUIe+wFth/do2LQCMGIQ1GyQIad5CqcWRnBaILzGdCIU1ztJ4YOF9iY/2zOQl2FeFzowq/kncKVOQHUkKCIzy7CEJI0O1VCFKJGDjv4mf5szmJoHKB4FDAyl2vjbqfob6gGiqX5oFyjoQEU0nqDNTA+RhzF05Wy/gI0ALAcxG+j2vjvltOYEfvuRLmT8hz5472wEAQUTHbY0ilyBsI1cT/k5NsaCJ+jAeQvUthwqaSk0siIqUcspDI2HPn8KC/iISEaja5ZSUMnIfl9BCrHHOen5OMmU7bPBac/7UuvIliJuATQA8XXwKNdVAFEwIMBKGQkEblkkrxLU6Fzs9z17t0Jl5TnjQ6ZKpBlS8QNpk8Ztci2Vs8xGjkZHLQS4ZCQhpFrKfEA+eJMxCM9Xk5SX8WDNuRmQUKDkFPpCe0j8yM50bdfhZHYDzzp6UTZF3PO0FyJBQSysHlb8oJA+cJjSAS6nnvLAPu3IwXmcgqt8ONEj86iYSNNEuTAHNT4P3iZDS1f9L1F/MAjxhVeIucHByNR4Av0InGmh+ZUtBuGckl5FeHLS2s8eVRmRRiqD1BuglvUpjUVmmGxK0MvH/As0ZC6uWQSikD5yWcjnu/ZY91p6C7whNFliCBLp6rCd+cvHBfp4cthYkZ2NQWEmulTAWIjcG0EjavKIZDrad4KXrg3ENbuH3jKVMkc7GzgAcw+wy/nYEf1dvEWJo1kb86KM6S43crqq2zFc/Q2eqB94OBIKIxIVdIlB70wHmAjWCslnR0PuROkJN84ZOro1CoBlpxSXXAmHGBHrx/YYieEHsTcbhNYeYcKEZ74wd6v8EA7zJK4+QyDoEcOI8gfFvlSTmJLAPNbHWG3irAlik2HcpBujim+24Vdbu49FVyeLneqiLvzsSmnOQpFc22WtNOv9+Zrrbh5+t8BYOpRSgkN6dbhAcNNPyjaKzlJ4zgUFO/FV3l0KWRFTv+wCwpuGCM1a5U+P8QE0/S1A45/Wk53hcJ9Tgk+QoGbzJM4zrH9AalbGcjvPqsfCoFbtEvtIDLZ/Td0kHUc+I8JgVfwWAgCMfEEKlEZBSwbUt8jEqYxym0EEbAMqOJJjxDZBCHwockMKh0o8D3r3wFA0YdCQlRqUQydECkktQxF4Yin5KTyG2FFCSjhU9QOFJu0u0T8K0Q3GLUSoS1hEM8NfIzBHmyEIz1CRPBrWJyALN4KVNAGUhb+UeucoDwSQEYCKJuNCKV5LNnfcVAPoEix48C6Katz0UwE2130+bO0qCVU1PMvHU1focCphZRAxWRSnKhKPYG5SuL2h6n/u3NdDrdlC79+fdpFjlND2BiwM9miDl/HvRtRszqZK+A8xUMkUqBkIZH9QZJ3mstGKsa2nN7ulDH09Le+15Z/3fmeM40z81pKnynKHPV8pZcajlLfLMXbfoKtpZ7g5hUyusN0r0FoQ2V6GXbG1vbr/lRrX12C2+TLTl7hlQGNYfdRebaZlae5baSemKJAS/tvTHIB4QNDlTxEN0i1OZImSIT11PFHI/r9UVW42W/pPVzBsLGGfdulYWIeIF7nO4hdTW9Zk+KDD/2Z1KZEYDpqpcCwdQi9OFwCQP1rdUL1BtM0XlxCV3EbQWCm3Z6481l3iRdeyYtywpuyjH2oiFIPc7OViUG4/mhh6Izo5fzgfR1P80xZoHbGdgx1FlwwIoXKBGohaG4N5jG8orGGhY3geA2JTbpdvJHEMcT6VsKzFEn4tqqEipvI8q438PfNdQc3dwujqlj2puDYTtWRWOMaZajl9XlNDq+AxAmFutWggui0vytAvyb9v76v8sIalCMu79LvuDWS64TBe79smepenjrFUe3vYWAxG5DosfpHb2eW2bZ1wrTmu93TxizvZzuLw7b7WzeWuf9v0fkwW1DpO427LsQ/b7vkH22nh/VHZaGBZv97njdmm+326xbhwFNaAR3+aX7/T/wZdp3AYoc+0QBbORRtU8UAUGOfaIIIDlWYIr1ExEgOUY0gj+RBpCN/OFp0PcFF/TdcodlPpEAkWNv6xutLwvYdyswg/qJCJAcKzD1/IkIiBz7k+s+3xsgYfOZxh0BYKlPHi37iOgClj1/YfMnYri/nRiZX5b7BIa7XoRYr9cfN6j+B11RrZ+PGhjlAAAAAElFTkSuQmCC;" parent="1" vertex="1">
          <mxGeometry x="465" y="360" width="70" height="36.34" as="geometry" />
        </mxCell>
        <mxCell id="nwe9QO-fqDBaUatCqOqn-46" value="" style="shape=image;aspect=fixed;image=data:image/png,iVBORw0KGgoAAAANSUhEUgAAAOEAAADhCAMAAAAJbSJIAAAAw1BMVEX/////aUomKjgZHi+BgokeIjJgYmrDxMcSGCr/ZkYGDyWhoqf09PX/YkAABiH/YD3P0NKrrLAAAB0iJjVvcXf/XTgXHC0OFSj/9/b/f2b/8O3k5Ob/vLD/ZUP/5eDu7u//jXeNj5X/kn7/xLn/p5f/blD/3tj/0ckwNEH/2tP/mof/c1b/6+i7vMDb3N54eoH/sKL/hm//oZBSVV9ER1KJi5H/el//pZX/t6r/y8L/wbZLTlgAABX/clZkZ286PUr/VSuxBsOvAAAIvklEQVR4nO2ca3uiPhPGFaQCgihUoqWI2Nrag4fWtttut/X//T/VgycIIQkBbB9fzO/VXpjQ3DnMTIZkazUAAAAAAAAAAAAAAAAAAAAAAAAAAAAAAAAAAAAAAAAAAAAAAAAAAAAAAAAAAAAAAIAt/X7pmsdsxk/R/zuq+4PLMjWXb+ZkfHv0Fh2ZS8vS6nXNql8VrNh/t8yopt+bnLbGkVXfY73dFal49XWoqfWWP9W6I/Bk1mO03vhRtN7doKclNXt/frKNlRhbdRy/dy1kOh7HuL6NxPefbmlJbtMCI8zJ39xa/aXvk/V6wqP/u7xpZEujqTq44Vf6mJiZWnX//ndaXJCbXrap2+V4wakz6GW7ZSPxJD3jkjIY29ZqS0Z7L54tqr7IEp+ky7jPLKe4vV/UBl/WGX0SLeCT9BjPTIXRVH0aksXvHjKGCeuTk7Smt9R1eNBopT3HxT1rgu4UZjpEDEPgSQUmvDZHngMP5Ma87qhrT2X+ftA9axCPOg35mBI/ONOuTnqOZ17hXo6LoeB1VzZCuEKj2ZDbsn3UQRxwBzHSaD4nU3XMNDN1f1zwD3utlYscSZJjhUZzMdVlSZLaR1V4x516G8x6HOT0v5j9YRYLabxPXY3kSZjCUNLl3aPjKqyN2eb0gPV2mIHM/ijqKjptaU+s8Ew+PBJWGHRnAqUecwdxY1Xv90HOiD6I2qRgQNNBWYVKMYXRKpb/tURK/mEvrgTf36UA7ujGpld081xVYbSKEVIkVUhhn+8xDlgP2yDngVZYeysosJrCIFzbu1UsprB2xfcYsQxrsz3+Q1u2VqHcQGWFzX/OvqSgQtoWiorvLykbyhKeoqpCXSqokL6HomFNlpQx9Dl7rdNQKOIx9miUkmVC7t9W+ChiTpmiJ8UF/rrC2lLM2FAptfP9dYWccCwPf1RC4O8rrH0IG5vMEIoFpN6sFb6G3Y5RQKE3CxuLRjjz2Aq7wgprTyUHUSgg9cKpjVTXdVG7/d0UU2h01zZyZVl2kT1tBXSFzsvZnjC3EcNyxkar5+szQlc9uGhJUvTVXEDhbI2SOo6qhNjMTRRKjrJDPc9vx3MpidZH7ou9F6ytW41olqswtNN1JLRO5iqmMH6ngELB8JQYwlHuezu6kmmP3Z1zFdYa7UwdBXUqKqxdsjyGZjKH18pNXcxlJ9OcaERa8WaQolDuIkodR5lXVNhnKPQfbu58xrZwkPdSY50dwW1z439RFDJQphUVMtLD/kO0uX2sUyWaufHauZoeBlkhh5StUHHddHG1UVEhdRflv23D6iFVYm5+bW5jrXDlz0Xj/FN2hRQi6fw1bKwUvIuQRypU0A77W0ThDUWh9rDfNwxNisReXu7iG2u13di1z0vbSbpCx+3u3EMQ6klpt0EoVBrNPR3anyd5zM5S7SvWMKQNcM4bPdxxNePHc2wZ0hUq68TFd/DnQVphgahtw0V2lHwsYhlTBjHnja1kiqEm9nzu8i2NI+GBWjNxHWhWTeHRx3DlZHRkpNMU6ulw8zx2Lcp3JYXDY6/DILGE7SD9E+IpdNbpwvO4Pxy3kkLqN4wqtrSTRMgr4qdzhaNQfiVKv8Q9ZXtVFNI/JnL9IX9jkYQmmZZ0eVGb3iRKN+TUT6UVMpI1vJiGnycNXWabuZG3TW4Ik/5A3QoKmWlTXlzKzWAkXY/mxE+ey1GY2ePP0pLKKqRms3PgB6aLWKFKjkrAW4eIfFHzKArLJaMs3olGnkLHYSvUyRd1jqGQEtAIYXIcBmeWBrzdk07O0qOM4aiswmf2OzFLQ4aN3B2wTTjPo1ga7qEMLhyf2I09dSYnljSSNoZkfxBGuZRC0Y8zWTjGBtsDkNu3kGdLM+1epR1JGYXvVXLezK+jiUuQVOKndTZiTRQqZ+nCieHdmdlEoZufRNxBibkLwD6yl0RbKD1Nk8/49Mg7bZiSOH2nPTGtitDGt0bPX4iLNq9Z732NB9GZpuxjMu2oCtMND1Sio5JtpyOTRonOkGJmJu+WsEbmSRN8qPCZF2K5NOoOGOGzL+mOvSAD210K5Weop4bMx/49/RxpFvbHmU8sA/EZe/0GnkmiZzH0xWHM5y9uRg82BdTPreE1yJAiBTUg3diPm4GgAWKGpzNMiyIvml4QdFrTVP6NkYlyp2HH87zmQsUeH9YntoGWHLRerV4c3oKkJ7t32ey/vlCuX3tgvfwllXTSdRfpajqfyMq1Oa6+AX/oLvZFPTtVMoI7W6/pInb79z7zSHB6EFnh6RzRUt55GWFGFlmJrdU3WYKXL71gRDOH3e3wSWiqsjxGN5u93TTobMpTmCRmcNQk1JkTE4GrkHkQOj5hccU++Zz0B9NjhHa2rYrkSZy9hWtMs6Po2PgZthbxVo5C9tlEzEIu8z0H+4RwS88k8qeewds9oZo3JUdRcdPBKtFxHIWc86VWkoUZjvKWI+dzfnOd+pTk6GcBf38YhWbGWapfHH1FuoOWi3cCWyH3jHAPsx+39ZzlyMu7ha6u7CQ5rr3exCUBUve0DwZy1d5/g0D/tv3yaavbbKSjqPaacsrSO7fRPl3pKG2mt+B/Fv0PX12Um0A4/HPes8VaQTqSVq+7yWa0Yg6Nn3Vjdg/mre911PyX7xa5f94TdBefkuy60st5l+Xxc87qL1PHuXLO6ud9iDICLyh8+NcwcqoYRsAtUvS+xRsnkMv/mPj/gHNnhn4v9Ip2qeuUFb6z7j35rHtP/aXJ6JXeSd57ou2bNhN0xDlPmblceah1knfXqO7QGuQc+b15opgc80TvyWZPpovcIa19ZK94WcWP0f4Oz+XuAUcrOL2EC5/W/z3wq85F7nL3r/Fg9WQvOm+IJWoF7+M/xhGAz84ongSXZsn/UyEyOT1f00xKbHBi9C9HkQEVMDBZbp4Ho+Wp69tS/v82AQAAAAAAAAAAAAAAAAAAAAAAAAAAAAAAAAAAAAAAAAAAAAAAAAAAAAAAAAAAAAAAOAn+B42ytRhV5CYlAAAAAElFTkSuQmCC;" parent="1" vertex="1">
          <mxGeometry x="470" y="82.17" width="60" height="60" as="geometry" />
        </mxCell>
        <mxCell id="nwe9QO-fqDBaUatCqOqn-49" value="" style="shape=image;aspect=fixed;image=data:image/jpg,/9j/4AAQSkZJRgABAQACWAJYAAD/2wCEAAgGBgcGBQgHBwcJCQgKDBQNDAsLDBkSEw8UHRofHh0aHBwgJC4nICIsIxwcKDcpLDAxNDQ0Hyc5PTgyPC4zNDIBCQkJDAsMGA0NGDIhHCEyMjIyMjIyMjIyMjIyMjIyMjIyMjIyMjIyMjIyMjIyMjIyMjIyMjIyMjIyMjIyMjIyMv/CABEIA9QD1AMBIgACEQEDEQH/xAA1AAEAAgIDAQAAAAAAAAAAAAAABgcEBQEDCAIBAQACAwEBAAAAAAAAAAAAAAAEBQECAwYH/9oADAMBAAIQAxAAAAC/wAAAAAAAAAAAAAAAAAAAAAAAAAAAAAAAAAAAAAAAAAAAAAAAAAAAAAAAAAAAAAAAAAAAAAAAAAAAAAAAAAAAAAAAAAAAAAAAAAAAAAAAAAAAAAAAAAAAAAAAAAAAAAAAAAAAAAAAAAAAAAAAAAAAAAAAAAAAAAAAAAAAAAAAAAAAAAAAAAAAAAAAAAAAAAAAAAAAAAAAAAAAAAAAAAAAAAAAAAAAAAAAAAAAAAAAAAAAAAAAAAAAAAAAAAAAAAAAAAAAAAAAAAAAAAAAAAAAAAAAAAAAAAAAAAAAAAAAAAAAAAAAAAAAAAAAAAAAAAAAAAAAAAAAAAAAAAAAAAAAAAAAAAAAAAAAAAAAAAAAAAAAAAAAAAAAAAAAAAAAAAAAAAAAAAAAAAAAAAAAAAAAAAAAAAAAAAAAAAAAAAAAAAAAAAAAAAAAAAAAAAAAAAAAAAAAAAAAAAAAAAAAAAAAAAAAAAAAAAAAAAAAAAAAAAAAAAAAAAAAAAAAAAAAAAAAAAAAAAAAAAAAAAAAAAAOOY/lv+aqtXOA1yAAAAAAAAAAAAAAAAAAAAAAAAAAAAAAAAAAAAAAAAAAAAAAAAAAAAAAAAAA450Jvo1UfT20ldt+cM/Z6BVnZnHYNcgAAAAAAAAAAAAAAAAAAAAAAAAAAAAAAAAAAAAAAAAAAAGuyDJAAAAAAAAAAAABxG5LH84gVuVVa2+OOTnsAAAAAAAAAAAAAAAAAAAAAAAAAAAAAAAAAAAAAAAAAAAA+fqCZQHfdekkaX00m7jbgAAAAAAAAAAAAccgAAAAAAAAAAAAAAAAAAAAAAAAAAAAAAAAAAAAAAAAAAAAODGoiV5XbSfaXfOW9NXdSVgddZcOOwAAAAAAAAAAAAAAAAAAAAAAAAAAAAAAAAAAAAAAAAAAAAAAAAAAAAAAAADjkUrh3q660RxfAoeU2ew5HPYAAAAAAAAAAAAAAAAAAAAAAAAAAAAAAAAAAAAAAAAAAAAAAAAAAAAAAAAAAAAAAAAAAAAAAAAAAAAAAAAAAAAAAAAAAAAAAAAAAAAAAAAAAAAAAAAAAAAAAAAAAAAAAAAA+IBlYLz3i9+Xo9Sdq8um3GmQAAACDx3fFtKlZxbSpRbSpRbSpcxmznT3c8gAAAAAAAAAAAAAAAAAAAAAAAAAAAAAAAAAAAAAAAAAAAAADpO7RwqBd+W2wdhlXfn/AJ+ixp8PUyL5iT5JY3n/AL6P0l+o7IYkrkYAMTLwChp9CrP76aVunPOlboaVuhpYzYES3xIp3X1g89g1yAAAAAAAAAAAAAAAAAAAAAAAAAAAAAAAAAAAAAAAAAAAA4xKs2xN6lw93Z1eBteV150OvAABj5DXaOTfV6uqvr3yfPNsU15LnHPPZgZ/WUJZ9Y8SNLPVg1WerAWerAWfEo9ibYsiwY7IuO4a5AAAAAAAAAAAAAAAAAAAAAAAAAAAAAAAAAAAAAAAAAAGsNlCoRopUfnLzuy886E2rDI+dPxk7DDwfituJNzGtzNrcwSoAZdWkkCPL7rXpPX0fpPRaBTyBP8AigPQfn7prcvGdxz2wmaMJmsKjsiu7J7a78cdgAAAAAAAAAAAAAAAAAAAAAAAAAAAAAAAAAAAAAAAAAHxpai3xNq2yNvb0uJmlvQBvzHXjPZg6/5r7fq32179ImJHZFHdeski8xdYMO3PzGudtKmv2FjVB05Pj7Yzo9pkYlbc29S+F8VN96C4+fqJ2AAqeya2sntrvxx2AAAAAAAAAAAAAAAAAAAAAAAAAAAAAAAAAAAAAAAAOItlJKyh/wBTYeDusjm882EmCGR0aSNN2Gs2UkhSY7zs9ZrmSiZ57EjsijsW8lolUfxCprDYl5lYk21mXR2xzPkZ2gm1gHGp27l31Vp1zpKb0d/qwsiss+8a5qeya2sntrvxx2AAAAAAAAAAAAAAAAAAAAAAAAAAAAAAAAAAAAAAHBzhRSreukpiew2NzRdPcWlGG2oxdN8nVYO4r7XQ73v+I/TfCf5nW6zZ6yLdyUSqTEjsijsW8lolUfxDZlDYl3NRLpPiBz+Dw75utjF9+kgafbT6/wCh2jhhrMbedUG1m8qoOQUnouyyartTn13447AAAAAIhL6B6a3lmefLALDfH3z2AAAAAAAAAAAAAAAAAAAAAAMOs9sWwjUlxkMAAAAD4rvOJlUug2tjA1+57F35sO8UB8Yeph2GV1t7BsMzLJvmNL19nXGud8JVHrdZs9ZFu5KJVJiR2RR2LeS0SqP4hsyhsS7mol0iDziDxbycccpVHoNHO4RC9HtszR8SdN66+yfVBnDAz3PpFrLjWnqfQehfqibcqLndDTIAAACgr9oPrrdldWf26ZoK0NFXHbX0jzqdtH3AAAAAAAAAAAAAAAAAAAAMOKZxNItLDNC2j2wDrpcbjnjuAAOg79BCYN35bPF2GTd+e+fosacMhrOXbO0uHJK6210m73Wmj2Xi5XKdthKpNL19nXFvN8JVHrdZs9ZFu5KJVJiR2RR2LeS0SqP4hsyhsS7mol0iDziDxbycCVRoRN4RFu5vp9w71cF2sghke+kaPbudA7hIhhliaiRcRJ+/smgfuj9J6ARqSw5YYAAKEvuhu2trVd0WuQC0ti55DXIAAAAAAAAAAAAAAAAAAAGFRt/Vt11sbsobcEqj0Yu7LYcnHYAfJo6Y+86yrsPZ8r3zAdeI4w56NfiwbT52O4z+GkT3ul3WM54l0cfysXKi3e2Eqk0vX2dcW83wlUet1mz1kW7kolUmJHZFHYt5LRKo/iGzKGxLuaiXSIPOIPFvJwJVGhE3hEW7m4k0qHTGHR7fcaCY9jWMbTB1W0ySMbJsKoN9HR3tdo7N9Voqj0Hof6gs6pbwMAGn3A+foAAAAAAAAAAAAAAAAAAAAAAANVr5Ky6u0wAAanbYmXn2QxuSej8uE+pPjT8ZOw0uRKIE+GTWLyjXTIEygi260u6iXmeJdHH8rFyot3thKpNL19nXFvN8JVHrdZs9ZFu5KJVJiR2RR2LeS0SqP4hsyhsS7mol0iDziDxbycCVRoRN4RFu5uJNKh0xh0e3lXf0d8iqRWVRbhZa3N3+Dznd31GtxNjZolV7Fytfykbm46qtXyvtA57AAAAAAAAAAAAAAAAAAAAAAAAAAAAAAAVXCfRMLk8K96JDnzq6uJHq5dtF5E/zMPlEXlEW7yBKpItutLkQ/QSFo3et6svTd0e1lLRpFV9deF8xraWtGk1OVrPnEjWsyaNJqtjHcvVxrWbNGk1W5hu30ca2nTRpNTvIPvI/Gtp40aTU7yEbuPx7WeNG71W8h230fGyl/f0d8uiRaUxbhY7vOwc7rCx4nNI7xsNdst78xb2PYc6nvHvxtCBNAAAAAAAAAAAAAAAAAAAAAAAAAAAAAAAAAcc8FAyeMSe681yJ3nIfKIvKIt3kCVSRGSRn0NRe+r9YKPJr5YIr5YIr5YIr5YIr5YIr5YIr5YIr5YIr5YIr5YIr5YIr5YIr5YIr5YIrmvPRMA3xG8zQ76+8Gi0pi3OVu87BzusJHZFHecqxpnDJnQe2DXIAAAAAAAAAAAAAAAAAAAAAAABwOXA5cDlwOXA5cDlwOXA5AA454KBk8Yk915rkTvOQ+UReURbvIEqkifoPz56D899EDh0AAAAGvM6L1rmdtdt0bzJMCZwKFHoJAp5y25GAAAACDziD74gO/wBBv7/xCLSmLa9N3nYOd1hI7Io7zlWNM4ZM6D2wh+MzBRnT01vlQzK+VDC+VDC+VDC+VDC+VDC+VDC+VDC+VDdheqBTzlnkYyAAAAAAAAAAA1O2qbbEe6LPmXTXz89AmfPz0CPPz0CPPz0CPPz0CPPz0Dwebth8WZ01zJb57tXjtLxz2cc8FAyeMSe681yJ3nIfKIvKIt3kCVSRP0H589B+e+iBw6AAAAddEz3RdtZBKjlsGDp7hTVg7mme+noF8/XDcAAABB5xB98QHf6Df3/iEWlMW16bvOwc7rCR2RR3nKsaZwyZ0HtsHz/dlNue6+/vcUlfpGZsDRt1hmCksfOpItEdT72uMadMtR030j7cufwmP336wv53+l5c4xd1PWTcz5uHcAAAAAAAAAABT1w0901sGQR+QabEUrXfF6qKZxeqiheqiheqipLjNocHPPnu1qptbvpi1pamNrnKl/nu1cJfxzxz2oGTxiT3XmuRO85D5RF5RFu8gSqSJ+g/PnoPz30QOHQAAag22np/I66/NmQSzz7HLYABUduRTpjtllSaLbHoJWtk8s8jGQAEHnEH3xAd/oN/f+IRaUxbXpu87BzusJHZFHecqxpnDJnQe2jtN3JTevGQbPWSunhRvM+N5tnSY+/1RkaadwZna6iawxja2PGMCfLzpN5ttKb2+tBYNe0lfcP3U31J7y2C93TDjaWya2sm2mTcbSAAAAAAAAAABimVT2xg/fS6JBH5Bx3+MbAiGcT5AWU+QET5ARPu2vNuTPhzpnz1atZSKRpK0W455kNaSnUdMWlv6xs7jtQMnjEnuPN8id5yHyiLyiLd5AlUkT9B+fPQfnvogcOjiK1b0xd3TTndti7KHxJRtiZb84bhgAAAA+PsVFM95RXfT0RiUxm4zdfZ58lOFtsfI5bIPOIPviA7/Qb+/wDEItKYtr03edg53WEjsijvOVY0zhkzoPbR2m7kpvXjICVU0GKs/eZzFEn1ZrE7hB1ptDSRy2rJfJ7xuwvnTzJHVEeeKqvtDtw+yysdDD5XFK+DpbJraybSVNxtIAAAAAAAAAA4o+5KEzndauaw6htrekEfkF9T62NS3T5aptWWqbUaptRqtn9CRI61zkxKSNsRpJd5lX2muCHZxH7QpOzynpPGJPa+b5E7zsPlEXlEW7yBKpIn6D8+eg/PfRERllA6b9lt/ecBzz1fGPhbN60RjetEN60Q3rRDetEN60Q3rRDe4Wv+jdvj71zxBp02xTd41LIumJ3B5xB9MwHf6Df3/iEWlMW16bvOwc7rCR2RR3nKsaZwyZ0HttPRXoyqM6YKK/UGHKEXYxKEXEoRcShFxKEXEoRcShFxKEXEoRfgybZglyzpv2NegAAAAAAAAAGtoy86M59ZxD5hD/O3NuyCPyD1FBG4FcDKn1wM4p9cAp9cAp9cAp9cAp9cAqCxty1zzDpjDiqvnZyWmta6nsDnnsfDcid5yHyiLyiLd5AlUkT9B+fPQfnvomjq6yIBja1Bx2QOeUT01ydxaX3lVS1WFVLVFVLVFVLVFVLVFVLVFVLVFVddssqPuaF9mU6HHbT19ZVW9tbwhE3hGmYDv9Bv7/xCLSmLa9N3nYOd1hI7Io7zlWNM4ZM6D2zjnB1zU20jOTpwliNqrnJEbEkRsSRGxJEbEkRsSRGxJEbEhhmx0Vnv6F51O26yAAAAAAAAAAANbRl50Zz6ziHzCH+dubdkEfkHqKCJVX6B42ef3oBtjz+9ADz+9ADz+9ADz+9ADz+v7oKIuHbNWVDpPEtcwGURWVeU9FAJpC5p7755yLPzMPlEXlEW7yBKpIn6D8+eg/PfRMOi/QFR67WXzAZ9plRl50Z0xefR36/jt0camAdNbW41EfJvzXc7wyWN8YZapLC3brivc0mqNxEtfZ6Df88wzCzcLriwDE47RvUxO7O2u1g84g+mYDv9Bv7/AMQi0pi2vTd52DndYSOyKO85VjTOGTOg9t1UBcdM50yvvac1Nfqm05w1Ta8Grbf4NW23yattPpjUpHh521DaMa6tIvvbaNfO+x8YjV90dZlrOmo17AAAAAAAAAAa2jLzozn1nEPmEP8AO3NuyCPSD09Dy4YcuBy4HLgcuODmuMeLM6/ssr6pJ9ZrMaZrNZgrPqtHXb4rad1/YHtPFcif5yHyiLyiLd5AlUkT9B+fPQfnvojo73DpSf1dMV7a4NaS6H74vbX7DGjbxeubddddPG54wrWxO4dPXlNVOWVuW6uM+cCMwy2THVv9Ttue0Mj8ghPfWWwmezbXMfl5y2QecQfbEB3+g39/4hFpTFtem7zsHO6wkdkUd5yrGmcMmdB7aO03clN68ZBKYtuKiFjbuPZ+c52s+8RmXQre6EmUO3WjMizI93TJMpxPPFvze8dwJ7AqWuuL7gfbPmZsE3Gngw9LZNbWTaS5uNpAAAAAAAAAAGtoe+PPG7f6Wc7yksIB3zlvpBk5EGTkQZORBk5EFxLF+8ITN+VNNCJ2AAAq+Yw6Y/T/AJ5yLPzUPlEXlEW7yBKpIn6D8+eg/PfRA4dAOPPfoWruutgc05usLJVsxmyVbCyVbCyVbCyVbCyVbCyVbCyVbdeWz7oDeG2NkOOwCDziD74gO/0G/v8AxCLSmLa9N3nYOd1hI7Io7zlWNM4ZM6D20dpu5Kb14yDZa2V08KN5nXvds6TGkGqO/TzqDs7TUzWGMS/Ng9kS5NFW5LtdNkaaCZmHTV0x7ZZ92E2ttHOoLAhaWya2sm0lzcbSAAAAAAAAAANbR140lrtYw8PfGswZXKQo82xIUeEharax+gc9gAAAAAKvmMOmP0/55yLPzUPlEXlEW7yBKpIn6D8+eg/PfRA4dAHHPBH6Wu+ke+lnu5rt0u4dLuHS7h0u4dLuHS7hFX3zvrZ+XjZMfcABB5xB98QHf6Df3/iEWlMW16bvOwc7rCR2RR3nKsaZwyZ0Hto/S/oShM6blpOyqgbdqGMbdqBt2oG3agbdqBIMfTs527UMY3/1Hm2d316j5w+bNqu+7SbmjXsAAAAAAAAABraSu2ktdrGHh77Ra2V9VjGjKTOusZSYanf4yH2yWN38On0NMgAAAAVfMYdMfp/zzkWfmofKIvKIt3kCVSRP0H589B+e+iBw6AKzsvz301ztxZ3OVYLPYzWCzxWCzxWCzxWCzxWCzxWCzxWHxaQo68YJkbYsMcdgEHnEH3xAd/oN/f8AiEWlMW16bvOwc7rCR2RR3nKsaZwyZ0HtmNk8a5orK+9jz4YrcKvnp24GnbgaduBp24GnbgaduBp24Glj83iFlvduf8/XaQAAAAAAAAAABraSu2ktdrGHh76J6Sx1rErhY7rpXCxxXCxxXEu3KP1CtkgAAAAVfMYdMfp/zzkWfmofKIvKIt3kCVSRP0H589B+e+iBw6AceffQXn3treePka/jtjNRXfXW22mj+qcq0sQ73R14zlqfsffG5V1nE3RqHFtbXQb/AJ5hvR3dPXFkjjsAg84g++IDv9Bv7/xCLSmLa9N3nYOd1hI7Io7zlWNM4ZM6D23FO2TR2dPjskivhRtJGMRtJBG0kEbSQRtJBG0kEbSQRtJBG/mTM5w7u8/2rPmS8a9QAAAAAAAAANbSV20lrtYw8PfAAAAAAAAAAAVfMYdMfp/zzkWfmofKIvKIt3kCVSRP0H589B+e+iBw6AceffQXn3treev2GPx2jFe2w6a6fQTcVvYPeOjry2qobG3DdXedNhGofao6d/q9pzzDOnu6euLJHHYBB5xB98QHf6Df3/iEWlMW16bvOwc7rCR2RR3nKsaZwyZ0Hto7TdyU3rxkErinNNBzt5FOc5k+q1vBPIP8/JN4Z8cH1NcKTSpH3p4NY83vXXXMobUQLR7cPtsp+gh8sidfC0tk1tZNpKm42kAAAAAAAAAAa2krtpLXaxh4e+AAAAAAAAAAAq+Yw7L+l+Fk6MJ9JjyeGbHhaSpGHes6vQfm+a1HsLbVI5bW2qQW158lMT6YvX6pbc6ZtBVzC0VXC0VXC0VXC0VXC0VXC0VXC0VXfBuMmr5X1xdCpHLNtqkFtweOajZ17+F5tt5eTxb612Okqzol3bxpPHerB17WzM6Q2lR6ec03v9BpykEpi24pYWNu49sNs5ur7MRmXwnfR/KaQ3d6LCb4WosudK812rId9O7aCvt3paSv2H3Z31Jk1JjTuCQ4mlsmtrJtpk3G0gAAAAAAAAA6sE7qIvCmNsWEi298beZjDct8xhjMYYzGGMxhjMYYzGGMxhjMYYzGGMxhRzvzjm0129+neCw2Yn1eGzBhswYbMGGzBhswYbMGGzBhswYbMGGzBhswYbMGGzBhswYbMGGzBhswYbMGGzBhswYbMGGzBhswYbMGs6NvHKe5lmz0XZ5CTm5ulG4xcESHS9A32o6B3bDUsYl2p07ffudLnzlvZDnbrvNT0/HPTXWTU9xXM6WtZ2u+cMAAAAAAAAIrXd3N8UhzdzbFIruFIruFIruFIruFIruFIruFIruFIruFIruFIru4PNOV8Z1jX4uUSYO151KXX7ZqTG2akbZqRtmpG2akbZqRtmpG2akbZqRtmpG2akbZqRtmpG2akbZqRtmpG2akbZqRtmpG2akbZqRtmpG2akbZqRtmpG21XGLxlZezlFjUXpKRXc1zSK7hSK7hSK7hSK7hSK7hSK7hSK7hSK7hSK7hSGfcA45OWwAAAAAAAAAAAAAAAAAADjkRHHmzbEJTYQlNhCU2EJTYQlNhCU2EJTYQlNhCU2EJTYQlNhCU2EJTYQlNhCU2EJTYQlNhCU2EJTYQlNhCU2EJTYQlNhCU2EJTYQlNhCU2EJTYazZmuQAAAAAAAAAAAAAAAAAAAAAAAAAAAAAAAAAAAAAAAAAAAAAAAAAAAAAAAAAAAAAAAAAAAAAAAAAAAAAAAAAAAAAAAAAAAAAAAAAAAAAAAAAAAAAAAAAAAAAAAAAAAAAAAAAAAAAAAAAAAAAAAAAAAAAAAAAAAAAAAAAAAAAAAAAAAAAAAAAAAAAAAAAAAAAAAAAAAAAAAAAAAAAAAAAAAAAAAAAAAAAAAAAAAAAAAAAAAAAAAAAAAAAAAAAAAAAAAAAAAAAAAAAAAAAAAAAAELmlDGK09jEdsSFU4ey1E3sAAAEM+yYAAAAV7YVUErlnmv0oI5I/PJKrc8L+5Ds45iZX12eQvXpyAAAAAADzxa9D3MWEAAAAAAAAAAAAAAAAAAAAAAAAAAAAAAAAAAABQ180MZ110pdYxcoeL/VVS7ksuhb/AIwUDJr4pcvWO1F6CPEMq3limlvPEzTz/DLylJ529AwylT2GBg5w8U+1PKN/kw8a+pvNx33lrIKeiqFvnx6WvY2V8FBx70HuykPQfnLeF9edvRPiI9E1BMbkNvVm9oI7Nl6PjZs5P4x9lnlqfwDBM7o9Dw8l8p8h+uzFoTV7Ihclvytyytz479hlI2h5wvYnGNk6wo70H4u9okBoyOeoTz7atiYZKYvJPGhKdffkkK8tnyJfxPQAAAAAAAAAAAAAAAAAAAAAAKGvmhjOuulLrBqij5HRXrs2dMaPJNXqfREVKc9Y+TvWJ5ls+sLPLM45qc+INqPQJR9Z+wvHx7k545AKij12+TC0syqPUZn+PfZvlM9J+Vptuy8MHP8ALxK47JrOPNm7nUFPTfiH294hPa2TjZJ58g9gag7eLeHk319iyw8s3NTNzFhYWbhnjL2x4n9sHh/234s9iG1456zxl678cezjzBe1F3gTzWbPQnkv2j4u9onlrXetoSQq2aQrs9PeRPYfkMs7m3OTztObQ3xsgAAAAAAAAAAAAAAAAAAAAAAKGvmNHnac7ERqr/QM+K9twPOev9JVCZ9P2fY55w9Y19YR5y679qIkeJ32eeRLp+dIRStvX8XLO5AB5M9ZxI82ewIXNBUVu4h4U9qwq1h5e9Q68oGY6/vKglN7asnPiH29WJY2T8/RG/I/tyPlVZ+N1kb9KxSWnle5uyVmzw8z4PFPtmsbOKRq/wBfV4aOt5hIyuvTHz9lGQD1fUh1VVZVrHkb2fW1lnnCUzqujrqy2rVNx5M9adB5pnvbojV2vpLNPsAAAAAAAAAAAAAAAAAAAAAAAAAAAAAAAAAAAAAAAAAAAAAAAAAAAAAAAAAAAAAAAAAAAAAAAAAAAAAAAAAAAAAAAAAAAAAAAAAAAAAAAAAAAAAAAAAAAAAAAAAAAAAAAAAAAAAAAAAAAAAAAAAAAAAAAAAAAAAAAAAAAAAAAAAAAAAAAAAAAAAAAAAAAAAAAAAAAAAAAAAAAAAAAAAAAAAAAAAAAAAAAAAAAAAAAAAAAAAAAAAAAAAAAAAAAAAAAAAAAAAAAAAAAAAAAAAAAAAAAAAAAAAAAAAAAAAAAAAAAAAAAAAAAAAAAAAAAAAAAAAAAAAAAAAAAAAAAAAAAAAAAAAAAAAAAAAAAAAAAAAAAAAAAAAAAAAAAAAAAAAAAAAAAAAAAAAAAAAAAAAAAAAAAAAAAAAAAAAAAAAAAAAAAAAAAAAAAAAAAAAAAAAAAAAAAAAAAAAAAAAAAAAAAAAAAAAAAAAAAAAAAAAAAAAAAAAAAAAAAAAAAAAAAAAAAAAAAAAAAAAAAAAAAAAAAAAAAAAAAAAAAAAAAAAAAAAAAAAAAAAAAAAAAAAH/8QAPBAAAAYBAQYDBQgCAgICAwAAAAIDBAUGAQcQERUXNTYUFjEIEhMgNCEwMjM3QEFgIlAYQiZDI6AkgLD/2gAIAQEAAQgA/wDv75zuG/Gf71dnKzOoSK7fSp44PKP2p8f3fOd2y/dkyQ0o6++GBv8A7tccyeK264TnzLkOuO+GP4xj4/4puH/+TDTrzDxNx43+7bhfvspMkNKevvhjAxj+ty03Hwbcq8gxftpJom6afu7s2WeVCRRb6VM3JJR+6Nj+tnNgpM5zcrBmwTh1E9M7B4V+aGcfvMY3f1zUmxcOjMRbfTeuFkHp5V1aYVStWMyaFWnCT8Gi8x/dpB8hGsF3jlZR9brPvLERqETFt2La81/jsGf4VCsHBJ4qK+M7/wC659BqbYvEOSwjbTaNZMWp5Z3iTY59MyDPOPsvsMjHTeXbShWHjUGVJb+6Z9BJ0CyGk3KhM6f2Xf8Abmg2XA8h2TA8jWXAoNYm4udM8ef3XcNw3DcNw3f/ALAb/tHvYG/73eN43jeN43jeN/8AYzqFTLkxrJqW2Z5O2hns7NTCucuC4kG2fiEhNRJiLUKR3B2SNn23xWWM7/urLqI1hnZ2TPmxJjmxJjmxJjmxJjmxJjmxJjmxJjmxJiO1XMZwUsk1dIvGybhv/Xs53CwWmMryG93YbjJ2I+UjtIgx9x3CaZEiYKmHcci53mGMPYh2RdKtalpqZI1nElk10yqJfPJrHbRbtdOCZElppBu48pQg8pQg8pQg8pQg8pQg8pQg8pQg8pQgt0Eyi0G7hnpW5UWrq6B/664doNEDruLJqaY/vtYIiDuSXOsdqwRa43l+Q5CqFyU7uIzjedtA2mUra3uoV24xlhTwRLGcZ9Plm+hSAp/cjT7m+9NaDSfoz/8Armc4wLJdo2AwZETVilLI6xl00iMY3Hc4xgpcFL87pmi6L/muzcMFMKFrepa7b3G02zfNX7Yjlp8k30KQFP7kafc33prQaT9Gf/1uQk2cW0M5eWXUh3Ie+1iWrBd3n3zNmiLUm5P7rOMZxuy7iSn3nbxU1KVx7lRpW77HznuN18ZxnaukVdIyR5yDkKpLDzfNjzfNDzfNDzfNDzfNDzfNDzfNDzfNBd7KWB0kiemwJ6/Aptlv6xnOMetl1DYxPvtmD+Sk7A++M7aRKaW463zO3yLXG4yEzgx9y5TFOXBifKu2Sck91V3GKtt5iVvUN/E5I2kIuZYTLTDljsVRTWJkisumQlueJlzERm/I4RGDhEYOERg4RGDhEYNRG6DaxpJt6Q3RJUo1Qn9YmZ+Ogmvx31kvsjOe+3btIpVbcdVFBNuT3EvlUUIkTJ1HcuY+8jdJg5XbquQ0aKvVcpIpruWC2ShpIoutxfndxaa+86TV3IwT4q7atakNZD3GstgxTY34Ez3k+GfXPzaldzIik9mxX9XOqmmTJz2TUtFt77WFUUfTL0667SNSbbjG+Z3JpNt5CGM6kV8FxH15NLco7k8YxEucYrnVQ8YN3yfurSEM4Y5ycrSWUS3EXSVTWTwdP5VUiLEyRR3EnS3nQrd2k6+YqOYKyxtgb/EZzPeT0Z9c/NqV3MiKT2bFf1XfgWG2RleS/wDybDbpSxqZTUaRBj7juU0yJEwQnyrLptye+q7lFV95EouNzIrmJlozQZJfDQEn0t0K51XbJQKKxTrN0F1ED++k0lE19xFfmdx6LreYZK8inRF0vFKOJPDpwmqmumVVL5dSu5kRSezYr+qOXbdm3Ou4smph1ffawaTd1IrGVM1Yotcby/M7liJbyIJIupJxuI8hUmMSoqer/UOdsn0t0K51Xat+QoIpFNxIIIqyECs23qN2kkq23EMg5Sck95L5TFKcuSmdxHqdtCWSTrq+cN4C2R0+TBEvk1K7mRFJ7Niv6lnOMCy3mOgcGQLMz8pZHeDOmkRgu47nGMFxjGPlcu0Wpd6jp+s7z7mI+vqrblHaCCTdLCaM90hUVf6hztk+luhXOq7VvyFBCdWbbJCFbvd5yuGruNXx77SXKfcRxjOM4xnHyuWaLov+bhk4ZHwpivaiLtfcbTDN42ftiOWmzUruZEUns2K/qMlKM4lqZy9suo7yS99tFtY5Z1n3zN2qLYnup/KY2ClyYzuX9SNjYVOXK5qyimYq6ptk90hUVf6hztk+luhXOq7VvyFBCdWbbVEk1k8pqmJkzgyZG71dkfJA1eou8f4fLnGM43ZdxJFN528dLSVfefEa168sJn3G7kaldzIik9mxX30rqHFxM0aOWjpNnKNcOWe//f5zjGMiy6isov32sc+kJKffZWdNIpNHcdb5nT9Frjdldy4fK4KI+u+ir2xkKnGIkJV/p3O2e6QqKv8AUOdsn0t0K51Xat+QoITqzbb/ACG3V0g/i2z8ucnexjqOP7xmkvku4jkhyqEwYnyrt0nJPdVdxirfeYlevj6J9xu9vEozl5pu7ZUns2K+9z6C44/8xlRum6nJFNiv6mtXPuN5hJZNZMqif+8m7DHQDb4z6yXuSnsnQRaRSi246yKKaBPcS+VRQiRMnUdyx1N5G8fFOJE2T4ZRzdgTckLL09MVf6dztnukKir/AFDnbJ9LdCudV2rfkKCE6s22/wAht1dIfyDFwYuSmkK6U+9Rkms4YLGLhpIoudxc/M7i0nG8ya7dVsp7qtJvUehHNYh+U2DFwbH3f8C5/ZcpULR7STjSN3s/piql77iEip+aqrsyKVf1AjJr3EF8Z+z/AFco/LGRjl6dPVh9hXerX7tF2A2EUvu1FSJJmUPZdS0UffbQhzPph4ddZpGpNtxs/M7k0m+8hM5dSLjBcSEYePRRMpXOl7bL09MVf6dztnukKir/AFDnbJ9LdCudV2rfkKCE6s22/wAht1ZL5JT7ZZzgP4Vwy3qFaSqiW4iyKya5PfT+VRIixMkUdxJ09529duclXjFRxA2eNsKPvM/uv4F2xuuUqGmd7NEb8bt4vNirjhE7TLJg6kXRWrOts3bCAZNX3+qUTKqQxDu9Oa46TNhOy1l7VX6ec0WxmsEPnDj7mw22MrqeSuLBbJSyK+4s0iDG3HckIVMmCE+Vdwk3J7yruTVcbyJx8Eu73KLNWiDNL4aFo/C1Fc6XtsvT0xV/p3O2e6QqKv8AUOdsn0t0K51Xat+QoITqzbb/ACG3VkvklOruBj0wJCBRc+8o3OR1GuNxmkqmtuIt8ztgi6xnOTJO4tyRZOtamY/wbTrdwk5QIsj9zeMbrlKCStUZX45Dxdgu0pPmygWu6cP5H3HEnEwkfCtcN2H+plZAkVFuXylQvSliklmLjZe2abynv/f0ucHTs6yGMfO7eN2LY7h1ZdS1F8nbQaLVzIKmVM1ZItS/4fLn7Mb8u5YieMkQUVOsfJ1IOMbeFSdn2Wj8LUVzpe2y9PTFX+nc7Z7pCoq/1DnbJ9LdCudV2rfkKCE6s22/yG3VkvklOruBj0xscNkXSWU15NqRm/UQI0klW24uW7pJyX3k/lMXBy5KZ3D79520JZJStuM4bVu6RlgKVIn3F6xuukmIOqS9kV+KlXqXFwGCqJ/6uXZcRiXbMViTzXrO3cuUVSLJFVTGo86kygTRxNKo855J7JZx6/NaLO0rbD4q0vOSljeYO7aRBS7jucYwXGMY+Vy8Ral3qOn6zvPuCPryiu5R3YEU27tBNKE6M222j8LUVzpe2y9PTFX+nc7Z7pCoq/1DnbJ9LdCudV2rfkKCE6s22/yG3VkvklOruBj0xtn+sLA8K3fMUD4ctHUatj32kuU24jnGcGxjOPlctEXRdyjliuzN8QtS1EWQVTZTZDYOX3sfM+rEPJvSPHpCFTJghP8AWZF8pCzlc8vFQlwma9jLdBzqlMrI5IhGxUxb5UxywcO2gotJi1+VQ2CEyc1gl1rFPrOstGibRLBS/KYxSFyYzuX9SNmke6klMmIwiW7DGDFFm+vSEJ0ZtttH4WornS9tl6emKv8ATuds90hUVf6hztk+luhXOq7VvyFBCdWbbf5DbqyXySnV3Ax6Y2z/AFdYMvoW4USIsnlNSQrxi71GTd4uyPkgavkXeP8AH5fXG4SjIqBsLJaaTh5CHPHr/wC2kq5ESxvefI0KtIqYPhu3RapYSQ+azqmQq8ooSJLjL8u/5Xcgi1/xys4cP1cFDlsq0WykswxjEe2xjZZvr0hCdGbbbR+FqK50vbZenpir/Tuds90hUVf6hztk+luhXOq7VvyFBCdWbbf5DbqyXySnV3Ax6Y2z/V1gy+hb7bLjHEE8gzRwi3TdBpLmLuI5IoVQmDk+SRLgzBbfpaqYlpVTx/v5Nph9GOmmW5jsJH3VsfbjfjYqqREmTqO5Y6m8iDCHcv8AOD5ZR7dgTcjYOrqBj09tts316QhOjNtto/C1Fc6XtsvT0xV/p3O2e6QqKv8AUOdsn0t0K51Xat+QoITqzbb/ACG3VkvklOruBj0xtn+rrBl9C322XqCQiMYNDNy5kK8RTeozIo6j18lDSSRc7im2y6+E2nwhpQwMZ++kTf7/ACNRKkqV0pNsGUmZuXCahZNobG8LzCJC5wisuq4U95SOr6SOCqut27G7AsHV1Ax6e222b69IQnRm220fhaiudL22Xp6Yq/07nbPdIVFX+oc7ZPpboVzqu1b8hQQnVm23+Q26ul8kp1dyMemNs/1dYMvoW+2y9QSEN0dtsdsm71P3F5OMNGqlwGkqqhuIqWUZmxvyvMIkxnCLBg/sEoRu2r8MhBQ6DBD+gGLg2Nwm9N4qTUMu0U0plim3JR+lG4+DSNiZoR9kfs2xfw422Dq6gY9PbbbN9ekGE21ZxqCRvM7ceZ2wl5RKRwjhOLmkWDP4J/M7YeZ2wlphGRalSTiJZKOTVKp5nbDzO2ElOIvWJ0CREinHKqmU8zth5nbB3YUHDNZEsW9IwefHP5nbDzO3B7M3OmcuI9yVm9SXP5nbDzO3HmdtvCSxU3pF8+Z2w8ztx5nbB2vhw9VXLiztsYHmduC2ZrnO40u4SdSCiyLL6FvtsvUEhDdHbbbR6tRWKQxsdWI6MtpTKlPuRYaTqZPg0hDwUfBtvgMP6Jn0Fv7xlQX8ONtg6uoGPT222wrkWkvdLXNN3Us0I8f8p40cpo0cpo0cpo0cpo0cpo0cpo0cpo0cpo0cpo0cpo0cpo0cpo0cpo0cpo0cpo0cpo0cpo0cpo0cpo0cpo0cpo0cpo0cpo0cpo0cpo0cpo0cpo0cpo0cpo0L6TM8pZ8PNwjyBkDM3sW4I4jUDE2WXqCQhujttto9Wo0x7QL/AEjPoLf3jKgv4cbbB1dQMenttn8iJQK+szNBYpcFxux+/wBVWqZoFo6zWDZy3cF22XqCQhujttto9Wo0x7QL/SM+gt/eMqC/hxtsHV1Ax6e221zu+M++MfBcZzmW1AgYsxk8ONWlsmzhqXViSxn/ADYarMFTYK+jZqOl0fisMZ3/AHuqnaqIq/5TnbZeoJCG6O222j1ajTHtAv8As85+3cN/32/5s+gt/eMqC/hxtsHV1Ax6e221zu+M+9lpdnDMVHb2x3KSsa2UCQ+nck+IVV8106gUC4+MehVw5dwkNMWpy5NHPYuZqz8iqlPv5JQ6cfKFzvx95qp2qiKv+U522XqCQhujttto9Wo0x7QLsz9mBbL02r5/CN3GoVlXUybHnyyjz5ZR58so8+WUefLKPPllHnyyjz5ZR58so8+WUefLKPPllHnyyjz5ZR58so8+WUefLKPPllCV/syR8GFW1FSlXJGMnjO/H7mwzravRSj1xJWmfsDv3RwiyDhFkHCLIOEWQcIsg4RZBwiyDhFkHCLIOEWQcIsg4RZBweyA6z0iuUjtZuegnGPh1C6IWJPw7jGd+Pkz6C394yoL+HG2wdXUDHp7bbXO74z7xdZNugdZWz2BzaprGU6nT0INEjp18jpo3etlGzq21ZSuvCrIUC0mm2GWTv7vVTtVEVf8pztsvUEhDdHbbbR6tRpj2gXZMyGIuGePsokWlJExlkmjdEmCp/CTHwkx8JMfCTHwkx8JMfCTHwkx8JMfCTHwkx8JMfCTHwkx8JMfCTHwkx8JMHbIKFyU8kz8E5x7lMlzzNYaOVv3Gq7s55lk0GnMM3ZVtB9jd95kSvdjwSEe2k2x27qSjX1ckyGLTbmlYEMNnWM78bc+gt/eMqC/hxtsHV1Ax6e221zu+M+81PmMs4ZKOS02hCrLLTC/zSkchLRq7FxFu3FXtCaiiZyqJlOX7rVTtVEVf8pztsvUEhDdHbbbR6tRpj2gXZeuy5QQX1qmyPrMhItCuknzFeOdmbOGFYkZFoVylJVx/FtvELx0c4k3PwG2aXK4xvwomdFU6aidOlTpFOFEzpKnTOIuvP5UvxEfIinufbJ1qQjSZUMPUI0ZRRAh1PIeROV1SGTTV2T/AKNxpd2mYY9P3GqfdDcUfsuK+9yJXux4M+uQ/YN5Jods5ko17XJMhi0y5pWBDDZ1jO/GzPoLf3jKgv4cbbB1dQMentttc7vjPusmxjeHlrgWB8kc3yabTdi+Ozq7PDCsR6GPn1GZlb2f4xazd4ROvMG75pIs36fxGmM7/T7jVTtVEVf8pztsvUEhDdHbbbR6tRpj2gXZeuy5QQX1qmxlYJJg2w3bu3a75wZdwzsMmwbYboPp6RkUPgOWT5zHOPjtc22ZzgHOZQ5jnJaZhNIqZTnMocxz1uJxKyO5Q5kGiGTnPqPXCOfghu4bvWxF29qhyxr0q6GPUJGxlImcbxeDY4a3xsn/AEbjS7tMwx6fuNU+6G4o/ZcVsvs7IQUImvH8wrKOYVmHMKzDmFZhzCsw5hWYcwrMOYVlFHuM5LT+GTzAyJXux4M+udj9g3kmh2zmSjX1ckyGLTLmlYEMNnWM7xn0Fv7xlQX8ONtg6uoGPT222ud3xn3M/YWVeYZdO5q2TNkcfByx0+nnZMHOXTCTyqUqiSZUUSJF+e5VNexGarNVNMpgpN5HkTN1lwVdWpaimXVTYTeM7/uNVO1URV/ynO2y9QSEN0dtttHq1GmPaBdl67LlBBfWqbISBiX0YRw4mWbZjJqINYSAin0Ym4cT8FGR8f8AGbQLFpISPwXmapB4xkOCETcKkTQrEIdqQ+VyETXUInRSF8A6ONU3K6VebopjSZysdpItjXUhcweDZCcpIIplTT4xJhw7cOs4M4E/6Nxpd2ocY9P3GqfdDcUfsuK2KIprFyRXhMaOExo4TGjhMaOExo4TGjhMaOExwRZtm2/4AyJXux4M+udr9g3kmh2zmSjntclCZLUJ/wAwwabk+fQW/vGVBfw422Dq6gY9Pbba53fGfL72A5m4pnnOHCVkhFze6md0iRsdxmclXdssPxE6zVmlea4z96qkmukZJW61PEIsV4z04sZ5OMPHOnMmwZfVFtEEc3u4RdIOCe+hjOM+m3VTtVEVf8pztsvUEhDdHbbbR6tRpj2gXZeuy5QQX1qnyZx9o9Nm7Gz7PXZS5ErZ6qzUmodtPRajF0bSeS8T7pK9ANa5G4ZtrrIlOZFgnjG/O4N6/FJt0yjgUULhFMmbRBdsJ/0bjS7tQ4x6ftnz9tGtFHTuV1WV+IYkTNTj2ffFdvqP2XFbLNZG9ZYFcrc3EhzcSHNxIc3EhzcSHNxIc3EhzcSFb1Bb2CUwwzjZa2i0XbnxTkvjDJC5U8+RozfI/wDjz7H/AMWKyspqPKgnpIob35VIZ9Bb+8ZUF/DjbYOrqBj09ttrnd8Zt37haLuyr29uSSs09YV/hKNaJYXRcHwrp7YUy78OEZeFwo2X0zjiryzl+p99MR5JWIdMjt3DpmqbLdnUJ+Sx8UhtO7Dgu/C8XO11TCx69qa8anIhMsnrd+1I6a7NVO1URV/ynO2y9QSEN0dtttHq1GmPaBdl67LlBBfWqbIWyR8fGJtlpl6hISajlvC2SPj41NsvPWFhJR/h28FIN4yR+O5zcYndkOFCquFVCIW2LTbEJlc5VV1FCYNkpsGLFXP3EyoyOLTEZL7wlLoT4eU45RQ6qhlFMfZkN7REmbpmN5mhxbJplINkUGon/RuNLu0zjHp+1zndgXixqzs2dBKMrSREyqvrG3RbSKZEKP2XFbJuCYz7Hwj7lbADlbADlbADlbADlbADlbADlbADlbACDpMRAvcu2uyfrMbYUCke50mZ787uUrQcpWg5StBaaC3r0IeQT0k+olRn0Fv7xlQX8ONtg6uoGPT222ud3xm282vEBHlQa16uvbRIHNmIg4+Eb4SY7HDdF2gZBwzYtI9D4DP79OIjUXpnqew2MGLkprRQUHSZ3kPUbQ4rUl8NZJUiyZVExqp2qiKv+U522XqCQhujttto9Wo0x7QLstTI8hV5JslFOSN3uDH/AGk24Iq4IkTTpko0qDYyn7WYWM2hXy5IBIq0y3wcWrqiYo/ZcVsfyDSMamcvfPNayPPNaHnmtDzzWh55rQ881oeea0PPNaHnmtDzzWh55rQ881oeea0PPNaDV0g9bJuG24amdnKij2lnWVnhncPb4acNhNpb+8ZUF/DjbYOrqBj09ttrnd8ZsOcpCGMaWeuLRZzqJxEWhDRiLFvtfTkVGm9175zro8510ec66POddHnOujznXR5zro8510ec66POddHnOujznXR5zro8510ec66POddCdwryh8FKksk4SKqjt1HgSt3Ccw30wmcvIZWOVGqnaqIq/wCU522XqCQhujttto9Wo0x7QLsz6C5UFyk6VkYcrx613pY4s9HFng4s8HFng4s8HFng4s8HFng4s8HFng4s8HFng4s8HFng4s8HFng4s8HFngNIvVS+5mq0J9LuE3MgkmRFIiaf7Ww9tyYrXWkdlq6omKP2XFbLnW1LLFpt0OVc4OVc4OVc4OVc4OVc4OVc4OVc4OVc4OVc4OVc4OVc4OVc4OVc4OVk2KtCGr8IiwONTOzlRDRJJT4+DSMO6i84VDhws7cncOC/hxtsHV1Ax6e221zu+M2XB0ZnUpNYmnTQri0YVNtvVuWYKZiY6HqcxPEy5Q5ZTI5ZTI5ZTI5ZTI5ZTI5ZTI5ZTI5ZTI5ZTI5ZTI5ZTI5ZTI5ZTI5ZTI5ZTI5ZTIW01nE08mJGysrU5QxcRsghKxyD5tstTTD2rSKOdM3WUbbhLGBqp2qiKv8AlOdtl6gkIbo7bbaPVqNMe0C7c4+wand2lEI2bmhGRjeEbDwjYeEbDwjYeEbDwjYeEbDwjYeEbDwjYeEbDwjYeEbDwjYeEbDwjYLNG2EFM4o+N9zi9+Mbsft7D23Jit9aR2WrqiYo/ZcVszn7d33/APOzUzs5UVH8bsKpEWSMko6Qy2eKoZL+HG2wdXUDHp7bbXO74zZfSZPSpLGNMlMFn3aedmPXAzg0zaslWSSTQRIil+x1OYJGYNJHGmDk6kQ9bm2TapUYGQUNp0mY10Z5xgaqdqoir/lOdtl6gkIbo7bbaPVqNMe0C7ZSXYw7TLl/c5xrYJ7xrNhbUWUe3bZ87IjzsiPOyI87IjzsiPOyI87IjzsiPOyI87IjzsiPOyI87IjzsiPOyI87IhS6InTOQV2SSh7AyfrwtijZ5HKjD9tYe25MVvrSOy1dUTFH7LitmoKUwrAlxEeEso8HZR4OyjwdlHg7KPB2UeDso8HZR4OyjwdlHg7KPB2UeDso8HZRTSSadbbFlhqZ2cqKj+N3sl+suwX8ONtg6uoGPT222ud3xmyUZFkY1yzNXnx4Czt1XGM4zjfgY9RC93Mtjpx4dPGceOcDxzgeOcDxzgeOcDxzgeOcDxzgePcDxzgeOcDxzgeOcDxzgIP1PiYwqNTO2kRpZ9JJ7dRJQrOveDLpTHGO8fSZhqp2qiKv+U522XqCQhujttto9Wo0x7QLsdLptWqzhabmHllmTOFEoFL3P/m4E1HAmo4E1HAmo4E1HAmo4E1HAmo4E1HAmo4E1HAmo4E1HAmo4E1HAmo4E1HAmoPAoZL/APG2cPYGVTXQhJROZhmsgl+1sPbcmK31pHZauqJij9lxW3cNw3DcNw3DcNw3DcPQHUIkX3j8RZDiLIcRZDiLIaju2y1RVIlUzlKo6wb+BMdZdgv4cbbB1dQMentttc7vjNupNcM0kOMt6JbU10E4eQGPUQvdzLZJ/wDqEvIlioxV2bzhNfH+KIeSLLRaTstps7lg78CxgLa9PIJNX+xY2St1TFxaZvOMCCcKu4NmuvaJyTYTiiDWnSz+ScOyvLY+cx8NhdowskwtItU1P+w/jA1M7aRGlv0knsk5NpEMVHjyTkH1sn8HJXYZOBhUGCY1U7VRFX/Kc7bL1BIQ3R2220erUaY9oF2XgxiU2VMWDLjL42cgpDGxvLnG7O7JSGN+ExTF/FjGc53Y+EpswQ+S+9jYQh1D4ITgkrkvvYVSURPkiuxOFk1kyqJ8Alg6YumWS4dCfxjegYaXnyapbs/tbD23Jit9aR2WrqiYo/ZcV95nO4W7UXLZZSPhfcl55UypvK8uPK8uPK8uPK8uMViXx6GrUwXGc5byEhFL/DDtx4p6quC/hxtsHV1Ax6e221zu+M2u2iL5qo2c2ujPIJU7ppB6hSEamRB601Cr7jGMqQhsGtjAxRJ/+oTsbmWiVmhfL0v8f4IgozMTEJNT22uu3D7MgzrtafKyaLh1sXxnLZXGMQ0nuwK8kojX2SattjnrmfUUQpDF00cvcuLi3XdQeE28dEyJJNoc/wD2H8YGpnbSIoU/GQjV/iQktTWaRMljV3UzbZQhTU2lpV9HxLnZqp2qiKv+U522XqCQhujttto9Wo0x7QLsvXZcoIL61TZDWlrGxhGqsxIJycidylDWlrGxqbVWdsrWUj/DIwcklFSHiFc3dju+xwphZwqqVG6M02xCZXUws4UVxHMFZN6m2RjIhpFIYI33l37hIRjWRQym5l4tSJfmbnxjfnASLjCRMDcLxjHDEM7J/wBG40u7TMMen7Ww9tyYrXWkdlq6omKRn/wuKG8bxvG8bxvG8bxvG8GPguM5zeb3hQp4qIrldNImw6dJpkSTKmn80xEIS7QyZzkMkqZM5fw422Dq6gY9Pbba53fGfIYuDY3Zl9PoOVOZUrjSd3g2fCwJMp2mOJkPG+XCePd8KvvHhVx4VceFXHhVx4VceFXHhVx4VceFXHhVx4VceFXHhlwgyVOpj3xqZ20iKzUXVnI4O3jtKGaZsGkI2Gj4dv8AAYbdVO1URV/ynO2y9QSEN0dtttHq1GmPaBdl67LlBBfWqbGNakJBoVyk+YrxzozZwxrMhINCuUZGuv4xt4hePjnEm5+A2zTJUKpnRVOkdOoSqieDhRMyShkz0VsX4Ltzm+T60FA4M0M7cnX+OfTqwuZqNXQe3dsU8Wk42IXdykiQh/Pi4mrCtMkTTMJ/0bjS7tQ4x6ftbD23JiDcpNJIi6zu0uDmzho6ervVcKuGdxno9mk0a+fbMPPtmHn2zDz7Zh59sw8+2YefbMPPtmHn2zDz7Zg7sE7NY+AvDVFZY5VpEpSkIUhPuJ3GCz77GC/hxtsHV1Ax6e221zu+M+bITNwi14MuUxTlwYv7HU52mSJZsxpM3OWLkV8/Lqp2qiKv+U522XqCQhujttto9Wo0x7QLsvXZcoIL61TYzn5Jg2w3Qdu13zgy7hnYJJg2K3bvp2RkUPguWT5xHuPjtc2yZzgHOZQ5jnJaJdNIqZTnMocxz0Z2XBXTXN2rylhgvgtzQcsRz4c1Ara8BGLKPLu6KSORa7G9GwogQyvkJMT1dzDJpqlE/wCjcaXdqHGPT9rYe25MEKY+SkLD1RqzRKo9w1bYxux4ZuPDNx4ZuPDNx4ZuPDNx4ZuPDNx4ZuPDNx4ZuCJkT/B9z/Anu4HwL+HG2wdXUDHp7bbXO74z59RKkudyebj4K8ycK2K1zzSXHNJcc0lxzSXHNJcc0lxzSXHNJcc0lxzSXHNJcc0lxzSXHNJcc0lxzSXC2qLwyecIpIy9wm84xAxKMHEIR6Hy6qdqoir/AJTnbZeoJCG6O222j1ajTHtAuy9dlyggvrVNkJART+MI4cTLNsxk1EGsJARL6MTcOJ+DjI+P+M1gmTV/I/BeZqkHuyFyETcKkTQrEIo1TPlchE3ChE2TxaPeJuUIqeZyiePh7xJzTOMSyZeTkVpR6dytj7M4yETYMimbG8Xk2OGty5E/6Nxpd2mYY9P2th7bkxVkirWBrg/7f+BPdwPgX8ONtg6uoGPT222ud3xnz5xvElSoCTVysu0aIrWFFmfl3Xd45eV0cvK6OXldHLyujl5XRy8ro5eV0cvK6OXldHLyujl5XRy8ro5eV0XaqxUHEIuWOntZi55u8WkGEYzi2+EGPzaqdqoir/lOdtl6gkIbo7bbaPVqNMe0C7LsmZWnSpSQh8FfmxkbsfLuxs3Y24zuzjOMSD3BPdGc5NnOTbE37xImCJ8TfhZws4Ngy4nzYyZAg0xTMSo4yb9rYe25MVHuFDbJT7GKWKk485xQ85xQ85xQ85xQ85xQjrCwlHGUEPvv4E93A+Bfw422Dq6gY9Pbba53fGfPnO4SFtg4xXKTto6RSsaLs+b7XN48+1wefa4PPtcHn2uDz7XB59rg8+1wefa4PPtcHn2uDz7XB59rg8+1wXmzRMzDIN2GnViioVs9SkGj9s/Qwu0+bVTtVEVf8pztsvUEhDdHbbbR6tRpj2gXYukRduoirYoB3WZfKRkp7OC4wrx9IcfSHH0hx9IcfSHH0hx9IcfSHH0hx9IcfSHH0hx9IcfSHH0hx9IcfSHHkgefL7ufhx8e/scsVu3iY5GJimzBD9rYe25MVHuFDbM1lGXdFcjyKQeRSDyKQeRSDyKQQ9WRinvis/ffwJ7uB8C/hxtsHV1Ax6e221zu+M+fUK4LtlzQsdCUuVnEMOU+V78cr345Xvxyvfjle/HK9+OV78cr345Xvxyvfjle/HK9+OV78cr345XvxyvfhXTGTInkyTN7L0+az7sJKoTUShIN/l1U7VRFX/Kc7bL1BIQ3R2220erUaY9oF2vmDWRbGbvLvDM4Ow+EYx1UZvI1u5P5MYDyYwHkxgPJjAeTGA8mMB5MYDyYwHkxgPJjAeTGA8mMB5MYDyYwHkxgPJjAKU1iRI5sVmPQlrGxYuouGYQ7f4LD9tYe25MVHuFDas4Qb4xlbiLEcRYjiLEcRYjiLEcRYjiLEcSYghyKEwdP7v8AgT3cD4F/DjbYOrqBj09ttrnd8Z82RguZi2e6uQhEiFTT/Y6nMkjRjR9jSdwc0TIN8/Lqp2qiKv8AlOdtl6gkIbo7bbaPVqNMe0C7c5+wamKEUtmMpw0mxShmaanFo4cWjhxaOHFo4cWjhxaOHFo4cWjhxaOHFo4cWjhxaOHFo4cWjhxaOHFo4LSsdlBTGKUoRK4Rh1CmwYuM4/bWHtuTFR7hQ22aAfyMgRy28pTA8pTA8pTA8pTA8pTA8pTA8pTA8pTArUY4i44yTn7v+BPdwPgX8ONtg6uoGPT222ud3xnzZ9cCG7vZbHbjw6ePd8Y43jxjgeMcDxjgeMcDxjgeMcDxjgeMcDxjgeMcDxjgeMcDxjgIPlSnxhQamdtIjST6SV+bVTtVEVf8pztsvUEhDdHbbbR6tRpj2gXYbO7GRc7w6knarCNRi3axPfLwV4OCvBwV4OCvBwV4OCvBwV4OCvBwV4OCvBwV4OCvBwV4OCvBwV4OCvBwV4OCvAeIeELnOavc31fdERXbrJuG6ayP7Ww9tyYqPcKH7j+BPdwPgX8ONtg6uoGPT222ud3xnzZ9cCG7vZbJP/1CbkuExSrvGbNM5cfGEFJ8XiknRrZY3TN54BlA2l+jIoovNi+clbqmxiwS+7AgFlXECyWWtctINJ5RFvS5F6+cvCurc7cMoXCraPnJVSSakP8A9h/A1M7aRGkn0kr82qnaqIq/5TnbZeoJCG6O222j1ajTHtAuy2u1GVUk10ohAqz7Hv8A7SdQKRdNYumzo7mnoEP+1sPbcmKj3Ch+4/gT3cD4F/DjbYOrqBj09ttrnd8Z82fXAhu72WyT/wDUJmNxLRarQZqs1hx8IQkZiIikmotdadPneH7GCqj48gku92L4yZuqXGK5M7sCAQVbQTNFe1Q8i9nVFm1LjHrBy8M7tzNy+hcJNY+AlkpJqof/ALD+BqZ20iNJPpJX5tVO1URV/wApztsvUEhDdHbbbR6tRpj2gXZeuy5QQX1qmyEiIR3GEWdTLdo1k1EmUJEQjuMTWdT8VDM4/wCKzgmrJ5I/Cf5r9b3ZDgqZHCpEm8FXTtSGyuVMi6hUiEMooUhImmIlIVSRxAReCe4JSmtlE8qMF0VG6x0VsY353BtAxiTdMg4JGC4RbNo0QXbif9G40u7TMMen7Ww9tyYqPcKH7j+BPdwPgX8ONtg6uoGPT222ud3xnzZ9cCG7vZbHbfxCWMY8E4wPBOB4JwPBOB4NwPBOB4JwPBOB4JwPBOB4JwPBOB4JwPBOAgwVMpjKo1M7aRGkn0kr82qnaqIq/wCU522XqCQhujttto9Wo0x7QLsvXZcoIL61TZghjY343bs7hgmTfbjJcl9d2/7MfCPu2e4bOPewKVHlWdLPD2Ccb16JUfLm1RnsufiFq9jQssZ4ol2YFwVF+TH2ZDe1RBm6eT+Z4YWyaYyDVFu0E/6Nxpd2ocY9P2th7bkxUe4UP3H8Ce7gfAv4cbbB1dQMentttc7vjPmyN+Ya2e8uRQiqZVE/2Opz1IsazYDSdsckTIOM/Lqp2qiKv+U522XqCQhujttto9Wo0x7QLsvXZcoIL61TZC2hrGxpGqkzIJycmd0nDWlrGxqbVSdsraVYeGSg5NOKkPEK5vDLdkLqYWcKq4RurJJsQmV1MLOFVcUVQuWLpMaoMV3VdRcJDShiuixfvVLqoUsJgmQlAyqyRVE/LkwHce8YZLh0J/0bjS7tQ4x6ftbD23Jio9wofuP4E/3A/GLM4xjcPM7geZ3IeuzPnRlzo2JdFBNLHmdwPM7gMXx2Em3fJ82JQc2JQc2JQc2JQc2JQc2JQTswadkzP1IS5SsGjhulzQkhzQkhzQkhzQkhzQkhzQkhzQkhzQkhzQkhzQkhzQkhzQkhzQkhzQkhzQkhzQkgtqbLHTyVJ69cyDo7p3E6iPIaMQYNebEoObEoObEoObEoObEoLFeHtkjisnEdKqRxVCp+Z3A8zuBIPzyC5VVGs+u0apoF8zuB5nciRk1JHKfxK/e31ei8MW/NiUEvqK+mIh1HrwX1qmxhWZGRaFdIvmK8c7M2cMKxIyLQrlGSrj+MbeIXjo1xKOfgNs0uW3fYomdFU6SidOlVEinCiZ0lTpnr8twmRwociiLpApiHotbO5+PkuEGqGCls0wWVf4Kjj1wE8Y+GQbsC8YxwxDZP+jcaXdpmGPT9rMImcwr5AlYWKhYGuT/uJRUruadKJ8LaDhbQcLZjhbMcLZjhbQcLaDhbQcLaDhbQcLaDhbQcLaDhbQcLaDhbQcLaDhbQcLaDhbQcLaDhbQcLaDhbQcLaDhbQcLaDhbQcLaDhbQcLaDhbQcLaDhbQcLaDhbQcLaDhbQcLaDhbQcLaDhbQcLaDhbQcLZjhbMcLaDhbMcLZjhbQcLaB7HtkmaihIL60+xlYJKPbYbt3btd84M4csrDJsG2G7d9OyMkh8FyyfOY9xhdrm2zOcZwDnMocxzp2mYTSwng5zKHMc4jpp/F53NvPL73dwkZ6QlMZIvsQuz1JEhD+enYmLA5mCpkVE/6Nxpdj/wATN+0XcoNUjKuPMUKM2GFzgW2Pax86qrHQ9ubqolRkcS8bnG/HFY4cVjhxWOHFY4cVjhxWOHFY4cVjhxWOHFY4cVjhxWOHFY4cVjhxWOHFY4cVjhxWOHFY4cVjgaXjSY9407bEzoHaxsS0yovhc3+zWTwsidPKCqjB5g2UpFosT3seMbDxjYeMbDxjYeMbDxjYeMbDxjYeMbDxjYeMbDxjYeMbDxjYeMbDxjYeMbDxjYHftEy5NmQeZeufexU3UPB1tozV8xQobzMY7Wwi337/ANjea89sMOmgy5bWUctrKOW9lHLezDltZRy2so5bWUctrKOW1lHLayjltZRy2so5bWUctrKOW1lHLayjltZRy2so5bWUctrKOW1lHLayjltZQZE5XGUM8IdjEQ73hCG3GwZcpSkJgpf9pNJE+ERUQtXlLAkqpH8t7KOW9lHLeyjlvZRy3so5b2Uct7KOW9lHLeyjlvZRy3so5b2Uct7KOW9lHLeyjlvZRy3so5b2Uct7KOW9lHLayjltZRC6dT6Ew0XcFxux/qMh0f4cs4OOOYHHMDjmBxvA43gcbwON4HG8DjeBxvA43gcbwON4HG8DjeBxvA43gcbwON4HG8DjeBxvA43gcbwON4HG8DjeBxvA43gcbwON4HG8DjeBxvA43gcbwON4HG8DjeBxvA43gcbwON4HG8DjeBxvA43gcbwON4HG8DjeBxvA43gcbwON4HG8B7IYeJFINJenSX9AzjeH2nUC/fKuj8rq+OV1fHK6vjldXxyur45XV8crq+OV1fHK6vjldXxyur45XV8crq+OV1fHK6vjldXxyur45XV8crq+OV1fHK6vjldXxyur45XV8crq+OV1fHK6vjldXxyur45XV8crq+OV1fHK6vjldXxyur45XV8crq+OV1fHK6vjldXxyur45XV8crq+OV1fHK6vjldXxyur45XV8crq+OV1fHK6vjldXxyur45XV8crq+OV1fHK6AEJBMYBl4Vj/wDSK1G1Ba0CLbOFP+S6o/5Lqhl7SbQ58Ye1fVGq21QqDD9nqjqTy/bMMI6e3Zve63iTS2Xe2taVWVph1p1rSW4T/BX+PtxsNnBcb8o6/oOLsSLTL+HH3+ut1n4m2tImM0vnHtj08ipOQ/pHtLfR1waP6awF5g5B3Lf8faUJT2c4BVM2Yy4ab2GirlWeaPatryDlGtWLHp8+oWocdRInKi2mloeXGltZh/8Ac6/QPE6GWST9nad8PY5KEU2e0dPYM7iIFOtyylfssbLJoLJuEE1UhqXO+XdPZh8XRuv8d1Kj/fx6ff8AtC/qSkNEv0mh/wCk+0t9HXB7N3a0ztkI9rKsFmL2/VdaiXRxHpUCx+a6VGy5rbaI+n19aXkZr2i51wc5Ic+t1+Op7+K17Qs02dETsMHOR9hiW8nGajagM6FCFXUnZ2QsUs4kpSrau2SoQScRGacaz2Oy3NlDyb56hHx7h65sHtGucqnSr7jXG+rn3lhvaAtzFwXiVLu8Td4nxsbtmYxGZhnsa4rT5el6hsnC5DYOXGS5zuF8k1rhqbIqNtaaclVJiIM00cneO6bRpjj2j57KbWIgU/Z0gPDV+RnVbvdo6jQuJGQmPaIsblQxYvOtt/yp74qntDyKTtNCzR8i0lGKD1jn0Fo10nom/PGbTUHWVhUilYxqeud6NIprBmqZZkisfUHW2PrDtWLhnWuN8dK5OnC+0DbGC5OJ0y8Q91isu4we0L+pKQo97hqNotDOJKZ1/tz9wfMbFa9XRg5Kd5RbxG3mGy+YiSk2cPHrP5C1e0Q6y4UQrBtbb8ZT38V72h51quROdrNoirZEpyUQNWtV52qWpOHhaVPntFNi5pQSDvDCNdPDUfWywTl+ZR8jv/x3jUXVCNoiJERIa8Xh4qYzdrrpfGx8GU001oVuM4nBygul7iKRF4dyUxr/AG18ufhrXXG+NlcHU0+1sjrQ6TjJf/X+0t9HXB7N3a0z8ntKMSYxX3+PZxeHVp8o0NZa3HWyEWiZSH0ZpERjGQelVc6OUs6y6VRMPBnsUB7OthWbz7+vqSMNGzBSEktfoqOiLiwRjdFazBSemzRy/j67DRK+Vo521RfM12jiN0OpEe4MsdKk1ZBL4aeoejsBJwTt5C6RWFav6iRmS4zv+TXWBzEahqvE9Lp3zDp3EPD3+dxXKNLymNEoLMzqS0XU12gOLadqPE/ZznvgSstBKb/sGq80ax6mSh0afBlrdSi4kttp0TdInEdLRGkNJhyl9xWk1ZZHKSmtOmEdV2qM7BezjYFlkZSvrZF4/UCwDTnRYku2TnrfH0isRZ0jstXbarUaOuu00roHn6fVM8iqzCwjQraNumlkBbmCu6tTUjpvfiqLIrEXRIqn7Qv6kJDTfTN/fVyuHcRp3U4RsVFnqhpVByVZeyUVotOrQ+pLBHGPQa93JaSsnlttpNo6zl41GwWVKo11BthulqJojEyMYvIVrS+5L026NzKF/Dga+/qeqNH/ANKIDZZO15YaZfqZXR/1F3frz2pEuqvWdMKtXI9NFJ5TK0/Sym6gNPKvWJJWQh1liIJHUUs8xJakX/KiNJ0ur9RYJYEtWoaca5bSWqmn+aHPInZaRW5W3UhBZ3/rvaW+jrg9m7taZ+T2k5NMzqCiy+zowO3pT96eQkGkUxWfPrB7Rca0XOjBn9pCxe9n3LJrlO2avPYZ3oRnfqkzGPQe0f3vGjQf9LWWwxsELk2bXr3X4Ryo1ilvaRn8mz8E/tG2Q5DFzWT+9cYc2Mfz8ntBwHEaUhLJ+zhPb05iAU9o2f8Agw8VBJ+zvA4aVZ9NKSbFGTjHMe4qT1ejaoMzubVMkr1Tk5Y2k0GeyamR2F8egl5mOgY1WQlJz2jmiK5k4Q3tIWP3v8bhrLM3OvLQz32cu+pAZF57/sIjumtdntKOz5dV9mKBqu5oMQ5Ytf8AknKj/knKi3WI1ss7ubPp8ssvp7X1F/aF/UlIaJfpPD7JfGDQ73GdPP1Froz/AAJ9Y8rdpJRVo2SZtEWyINjfj7NTGKMbqTYGyNWdHe1KGdKa+/qeqNH/ANKIDZZO15YaZfqZXR/1GsenEjB2N5Ps65rXbq4gk1NBe0XEOslJNQtgirEwK+iNRnZ2WndgXTqViNVLMzmif8k5XA/5Jyov2rDq+w7dg69mxVbB7Ej/AK/2lvo64PZu7WmdtgsMbWohaTlLFNyOoN2Vdlp9eTq1UjoZP2irI5PMMK4lpFpJCzlcQsU8lp7T0SYKTU6pVqP04nHTPQj9U2gx6D2j+940aD/pay2a+2NzC0pFg00d04ZXh08eyzTTamM08ESVotSKmYV3GMXSJxjH8/JPxKU7AP4pfTSSVqWqUfh1rBLnsOp79NGpwha7VYyILu3jXiC4RqEd8TUK9cV0RraOPZzgPgxEpPqj2gLE5f3XEJjS3R6BdVhlOTyen9QTLgpdZ6tXorTZ85j/AGcu+pAZF57/ALCI7prXZ7SkcfKEDJl0Kh6rZGknHTPK2kDlbSATS+kpnKcpCFTJgpfaF/UlIaJfpND7Jbo70aefqNXBkXaOVg7/ADLXNcmm9hrzCVbBZQiKRlFLdKeZ7zKv2sIxzGQMewzr8QxdTTmzo0umtpTB4ILpJs4qnS7h7pnjdqZXRj0wDFKcuSmnNJaZPnMo4sfs5mTRUWrumVkfVK+sS4u0eeWpE4wToykUjdYrjhdLqOb05W0gcraQIaBi6+0M1if9d7S30dcGmOq7WgRL1kt/yVjxJ+0k8OmYsVMT9n1AmEsO9JtJcVT3Zub9MD2iq25JMsLClpbrG2qERiCmn3tB1BBrk7W53+zakEc4T0IxnGqTPfj0HtIxq5Z2HlBpNq5DVStcEmojXKqzNjaxDfX2uuJqlJP2ml2o5tP5JyVwb2gKXhtk+Lbq9P3s+IGtVkpi2+GwbH8/LrZCGgNSnLtHSeIPZ9To8zjGz2goHiFIQlSZcLroots0eAxWaZFRWz2gK65YXYs0XTXW1lXoBtBz8l7QlVbN8mY3S52bUJNeQc+zl31IDIvPf1hEd01rsvVURuVTeQ6qZ7Bp9bPfLCe0dHnbkLOPfaNraSefBk1+tcjYGuGJM5zj7faF/UhIaJfpPD7Jbo70aefqLXdmumnTmXIW0ROn2qcpQjGbYR9oepma/EV1A1rkLayUiYvRLTlxLTKFmksY3YHtC1Jd80Z2VnplqytRElY1689ousJNveaTM/bNX5dTCemn6mV0f9Q/19ssZanyR2HtGVtZPGXth9oqN8EqnX9NK49td/YFLuxuGrmnrmp2JaQaUjXl/X2CMZNZ9oqp/B97Fg9ouQclMlX9LLRJ2+mJyct/rrnR4i8xqTOV/wCONXH/ABxq4Z+z3TW58GWganBVlHKUPuxjZIxzSVYLMn0v7OcG7cGVjI32cYRBYp5FGjV9rWXVea0fSKFpEwrKNxP1+Ms0SrGSr32bYxRYxmNS0NgKxKISa2SYMTJTWTQOtTTo7pg09myOIpjLyrUGvU5IxYdhodW2FuJOk+W9afRF9YIoSFE01h6Em4Mx2Scc2lo1xHvYTQWtw0+nKZx6bJmFjp+MVjpOS9m+HXXMeOifZ0r7VYqkk+ocA8qC1YJQdLoqgruXLTP24zumND65NWxSdXIXBCYLjZZ6XA29sVGYfezbEKKGMxa+zXGlPjLurab1mn5wpFi+aURF8fNn7qvwbOtwbWIjwqmVVMyZ4HRCuwFqJOIY9MDOMZ9bTozU7Ouo6Mb2amvxN5K/oLVIZcjh4kkRFIiaYVSIsmdNSwez5XJRydxGR/s3xKKxTyERV4eBhcxMbWtE69WrSScQ3Y3bhaNNqvbj5Vk3ns2RRzmyyYezdEJKlM/rlWh6pHeBhw8ZNpBoq1dzfs+VaRWMtHl9mlt7/wDlX9CKjCqlXdIopN0iJI//AMEL/8QAUBAAAQIDAQoLBAYIBQUAAgMAAQIDAAQRIQUQEjFBUZGTsdETIlJTVGFxgZKywSAyoeEUMEBClKIGI1VgYnKz0kNQgqPCFSQzc/A0oIOQsP/aAAgBAQAJPwD/APf4P79OKbdDYAWk0IqoA07jDy1MlkOYClEgKwgK29R/frkJ86Y6L/zH78cJ9KoP/F7+DXjYPXSP+sf7sf8AUuA+/wANwmD31sj6VwmDxvo+FhU68HJH/WP92BOfQeCNfpOF79RTBwstK1p++5MchPnTHRf+Ygn93JlLKFHBTUElRzAC0w8h5hwVStJsP2xtTjpbBCEipNFAmncIYcSzwIbw1JIBVhA00D93CAAKkk4oUfojFW2BnGVXefhSF/qZk4bBP3XMo7x8R+/K6TM4njkG1DWXTi0w0FS0vVDSVCxbhFvcAdJ6oKkMlQelVjGBXFXOk2aIoHhxH0j7qxj04+/991YLLKCtR9O2E1mJx2iU5G05O4CBRplOCDlJyk9ZNsIrNy1XWTlOdPePiBC8GTmyG3K4kq+6r0Pb++6/1bRC5gg415E92PtPVEzLpmH+KylbqQUN5TSthJ+Aicl9anfE2xX/ANqd8LbVKzlV0bUDgL+8LMVcY7YXhTkrRt2uNSfuq7xZ2j99pYTSVuqUHg6kYYJrUgmtYuV/uo3xclWsRvi5C/GjfFyHe5SN8S6pWXDSkKStQq4TiFAcht//AKdCAkCpJNABATMvYi+r/wAaezlbO2J6aeJ+4lRCR3CyFTTZH3kqUKaIdM/LYil08cdit9Yfwlj32lWLR2j1xfVs/S5ls0cJXgoQc1cp7IubJ+JUXNk/EqLmyfiVFzZPxKi5sn4lRc2T8SoubJ+JUXNk/EqLnJQ0TQuS6iSnroccOJcadSFIWk2EH94HsJ8iqJdu1au7IOswrgJQniyzZsP8x+8fh1RVKeQMZ7c0JCUjIL3Ec5Qy9sOLZdQeI62aaD6QA2vEJpA4p/mGTtFnZC0rQsVSpJqCM4P1B47TK1jtCSRC1YLhK3CDabKm3riS/wBxW+JL/cVviS/3Fb4kv9xW+JL/AHFb4kv9xW+JL/cVviS/3Fb4QpsLWUKRhEjFWtsGqWJghHUCAaaa/u86lppAqpazQDvgUTiM2tNv+hJ2nRC1uKWardcJNT25YGE5yzj7s3spCknGCItHIPoYcKmK8eWdrgns5J6xDham6VVLuHjDs5Q7Pb6M75THJX5T9Tz58sdJHkH7uq+kzoxMNn3f5jk2w6VIB/Vy7YohPYMp6zBr/APWAABiA+oTReRYxwVUSapdQSKH0jCeaxCZQOOn+Yfe7cfbD6HmV+6tBqD7PRnfKY5K/KfqeePljpI8g/duYQwyn7yzjOYDKeoRhystiLxscWOrkj4wSlBNStWM74TblUcZ+rFRFEK5BxHszQ6ppVeO0q1C+0Ze2CJSeNnBLPFWf4Veht9gVQtJSoZwRQxwiG0rrLzKRYoZLc+cROJ1ad0TidWndE4nVp3ROJ1ad0TidWndE4nVp3ROJ1ad0TidWndCnJp6tG2m0Z8wG2KfSHFF16hsCjk7gAP3ZMFM5OCw4J/VtnrOU9Qh5b7v3RiSgdQxARRxeb7o3+2cJeRAx9+aG8BJxKTbTthQUk4iD7Sa5jlEfrG84xjtjDnJMWAk/rEDqJxjqOmJlDreWlhScxGMG+2laDjSoVB7jCEpbE8pISBQAYeKkXOk8fMJ3Rc6T1Cd0XOk9QndFzpPUJ3Rc6T1Cd0XOk9QndDLbSDLJOC2kJFaqyCGW0rWwCtSUgFVpxnL+7MwlsH3UC1a+oDLBVKSRswEHjrH8ShsHxj9W3mymEBI2+0oJSMZMVSnlnH3ZoSQ0hJUVqy9meKFYSVAE0rSMJCgeM2oekcRzknL2e3RtzqxGHXJd5P3kmxQzHIRGDKTJsDuJpZ/4nts64IIx2Xunq88Z/a6KjzKjmBtP7rrSlIFSpRoAICZh4WGZUP1af5R97Z2w64+8r33HDi3dkcdzOcQ7Pbo45mBsHbAU4s4kpFgiji8jY90dueBQBo0AyRzavSEVIxLFih3xVxkffSLR2jJFVo5WUb4UFJOUe0kKSchiq0cnKN8KMzJA2sOG1P8pydmKH+OkVWyuxaO0eosjp6vPGf2uio8yo5gbT+6z2HMEVRLt2rVuHWYVwMrXiyzRND/ADco/wD1IqkcgYz25oSEpGID2lhI+J7Iq2322mF4CECqjSp7obCRlOU9pvc2Y5tXpfo04BUp+6rdCyk7e2KNufA+2MBzlDL2wtbTiDVt5s00H0hdXHHg44silThVJhaXG12pWk1BHUfa6KjzKjmBtP7qPNtNIFVLWqgEAoTiM2tNp/lScXadEKUsqNVuuEkk9uUwMJeVZx/L26LXysg3wFOLynIndCuEfqm3ILckcgbb/NmObV6X+SdkDCQokEdxirrWOn3k74/WNjIcY7DCgc4yj2gFJOMGPATshZLNePLOe6dx6xC+Bm6caXcNv+k/eHs9FR5lRzA2n90jbBE1O8w2fd/mOTsxw6Viv6thuxCOwepi08gYu+AABiA9pVuRIxmKpQcSE5e3PFWm8iB7x3QgIQMgjlJ2xyBtv82Y5tXpf5J2RnOw3v1T3KAsPaICkGvFWnEewxxVcsYj25oNQcvtJ42RQxiCcFJqlxFhG6Ap9nEJhI46f5h97b2w+h5lWJaDUfI9V/oqPMqOYG0/ujMIZaGVRxnMBlPUIC5OVxF3E6sf8R2W9cVQ2TUqOM9meE25VHGfaIAGMmBXOs+kBSklVCs5+2EJLiVAJURaBTJf5Sdscgbb/NmObV6X+SdkZzsN9CVoVjChCSSVlKQO2wRUpB4zasm6DReVBx+0KxRCuTkO6HVMr++2q1Kx1jLGDKTpswFHiLP8KvQ3uio8yo5gbT9c1MLLZCXXUJBSg5qVqaRMtvsn7yDi6iMh7f3AIgInJsWFQP6ts9ZynqGmHVzDxxVsSgZgMQEUcXmyDf7ZwnOQPXNFTU8VtIg9YaB2mEhKQ4AABQCwxy07L/KTtjkDbf5sxzavS/yTsjOdh9jnx5oTguZHE4/nAJRXiuoxfKLRkWMffCgpJxEH2kBQyHKIq431C0dsYU5JiwVP6xA6jlHUYeDrSpZIJpQpNVWEZDHMDafrukHYI4eSfpUH7rg2KENplnjZw6LW1doxp2dkOIW2oVSpJqCOo/56+Ek+42m1a+weuKKykkbOCQeMsfxK9BZ2xVtvIMp3QgJHtKCUjKYqhOVWU7oOC1WinFZ+rOYTVZ95Z943udGwxy07L/KTtjkDbf5sxzavS/yTsjOdh9jnx5rwBBsIIsMEJVlbOI9hyQSlSTRSFYu+OI5yTl7Pbo251Yj2wmhyHIeyB9GUyng23lHiL7T90/CCCCKgg/W896CGEPsqQmqViuTH1HrEOF1GMyzp4w/lVl7DCltBKv1ko+k4PenJ2iCJKcNnBuq4qj/Cr0ND/liCtLDSnClOM0GKLlyym64kOKBp2mFKl5sivAO2E/ynEdvV9YpKUJFVKUaADOTAS87iMyscRP8AKPvduLthxb7yjx3HDX4+kcdzlEYuwe3RxzMDYO2ApxZxJGIboWCtytQMSaUyxzivS/zo2GOWnZf5Sdscgbb/ADZjm1el/knZGc7D7HSB5vY50xV1nHhJFo7RFXEZDlG+FBSer2khSTkMVWnk5RvhRmJMG2XcPu/yn7vZi6oe/WAVWyuxaO7KOsWfWc7/AMRHNp2CCKRLIuhOpqlLrasEMn+cY+wVEMOPvKxIQKntOYdsOcJMtNBK1Vr3Vy0FB/laQpCgQpJFQQckSi5ZZxLZcIp3GohxS2FnCYmEcU1GQ5lCFAzssQ28eVmV37QfqnOEmSKol2zVZ7cw6zC+Dlq8SWarg9/KPbFg5ANvfCQlIxAe0sJGTOYq238T2mKss46kcZXYIbCRlOU9pjOr0jnFel/nRsMctOy/yk7Y5A23+bMc2r0v8k7IznYfY6QPN7HOmM0Uadx0+6rdAU04NBHrFG3MVch3e2MFzlj1zwtba0GqHm1EU7DkgUyCaQmz/WBtGiHEONrFUrQqoI6j9Vzg8gh7CfLSSmXbtWqwZMg6zBMtKKNAwyTVf8xxq7MUYUlKm0N0/WqHZ93vt6ol0tI+8RapXWTjP+VIK0MNlwpGM0yRJtsLCC42ptRIIBFQa5bcd8AllHDIOZSbdlR3wTgPSysIdaSCPX6h5tllAqpa1UAgKabxGaWOMf5Rk7Tb2QpRwjVbrhJqe3KYFV5VnH7WKKLXysg3woqUcphOG6q0YWJNuQX/AOL0jnFel/nRsMctOy/yk7Y5A23+bMc2r0v8k7IznYfY6QPN7HOmM15sLTmOTshRUlNCK47RHHb5JxjsMKrnBxj2gCDjBjwE7DDh4Ov6yXcrgK7sh6xCvo8596XcNp/lP3h8fqR99J/ImEKQwTx5p6uD3ZVHshHDzdLZh0VI/lGJO3r/AMs/x2VNjtIsgKShtSmnxS0A2HQbe6FJWhYCkqSagg4iLyx9JnBg4INqW62k9tKQn9W03wKTnUo1PwA0+2OEmHKhlkG1ZznMBnh1Tlv6tlAohHYPU2xRR5Axd+eAABkHtK42RIxmKpQTYhOXfFW0ZGx7x7c0IShAaxAdZjMdpv8A8XpHOK9L/OjYY5adl/lJ2xyBtv8ANmObV6X+SdkZzsPsdIHm9jnTGa/yU7I/VPcGnjpGOzKIBSa8VxOI98cU8sYu/NBqDiI9pNuRQxiCSkGqXEWEboc4VgnBRNH3kfz5x14x1wQQcRBx+3INPPoAGGoG2mKoxHvgBKQKAAUAH+XNFxxVswwnGo8pIynOO+HA4wk2y76SQk9WVMSspLqP3wFLI7AbILjy1qq9NOk4KB1nYBA4iBVSjjWo41HrPtEBKRUk5BFSlasBlPJQMQ9e+ACo+8rKfaIAGMmPGfQQDSvGcXiG+Bhu5XFC3uzXua9TGY7Tf/i9I5xXpf50bDHLTsv8pO2OQNt/mzHNq9L/ACTsjOdh9jpA83sc6YzX+SnZHNp2QhK0HGlQqDBKhlaJt7jlitAeM2r/AOsg0XlQcfz9sUQo0IzGFlTskQEkm0tnFoII0f5vc9h5fLKaK0i2LloURkcWpQ0Ew0hptOJCEhIHcPb95Ms5SnZA91JI0e1x3OSPWApRJ4raBAAWACQDWlYH+GnZf5r1MZjtN/8Ai9I5xXpf50bDHLTsv8pO2OQNt/mzHNq9L/JOyM52H2OkDzexzpjNf5Kdkc2nZfGNobTCTwSxVK05O3NAKhyxj74UFJOIj2ciax7q5VVe5SafuBSj7Sm9IIgFKm1lDgOTIYxX1BKRlMVQnlZTuj9W0cbisvZnhHGONZtUY5Kdkc0nZf5r1MZjtN/+L0jnFel/nRsMctOy/wApO2OQNt/mzHNq9L/JOyM52H2OkDzexzpjNf5Kdkc2nZf5obTABBTaDltMUQrK2cR7M0BTah7yFCwx+rc5JxHsPsHjOWd0J4iEBhJzqJqfgBp/cFoqbXbNISLUnl0zZ9MArbyEYxDtOogiAXFZzYBCsI5MwijrmMJ+6N9/kp2RzSdl/mvUxmO0386vSOcV6X+dGwxy07L/ACk7Y5A23+bMc2r0v8k7IznYfY58eb2OdMZr/JTsjm07L/NDaY5PqbzYOZQxjsMLC0LqUnEbM8VcRkziHcHqUkwkuKzkUEILj7mX7qE5zmAi0ItWsi1ajjV+4IEKVIvqtPBpqgn+XJ3UifklpzqwknRQxdIFIxol0Ur/AKjuhOAyy8UITWtBQZYzX+SnZHNJ2X+a9TAcW4kGoSnFacpiXe0iJd7SIbWjArXCpbWkNOKOGVVSRS2Jd7SIl3tIhpxBC8KqqZobWsrUCMGmaJd7SIl3tIhlxKlEGqqUsMNrWFpAGDTPEu9pES72kQw6FLQUgkighClJwSmicdsS72kRLvaRDDtSkjGM0JKkoNoGPFEu9pES72kRLvaRAOClzDplx1iXe0iJd7SIl3tIhJCVrwgDjES72kRLvaRDLyRnsMKJQpIoSKZI5tOy/wA0Npjk+pv5lekPOy82HnE8IjjAgGyqT6Uifk1pzqCknYYumnAyol0WnvVuiXS0k+8rGpZzk5f3G6QdgjNf5Kdkc0nZf/wk4BPXjiYMow4KobSmrihnNbBF0ZzQjdF0ZzQjdF0ZzQjdF0ZzQjdF0ZzQjdF0ZzQjdF0ZzQjdF0ZzQjdF0ZzQjdF0ZzQjdF0ZzQjdF0ZzQjdF0ZzQjdF0ZzQjdF0ZzQjdF0ZzQjdF0ZzQjdF0ZzQjdF0ZzQjdF0ZzQjdF0ZzQjdF0ZzQjdF0ZzQjdF0ZzQjdF0ZzQjdF0ZzQjdF0ZzQjdF0ZzQjdF0ZzQjdF0ZzQjdF1JhLlLC4hKh8KQgBdKoWm1K05wY+6kIIzEWX+aG0xyfU38yvSOkObR+5PSDsEZr/JTsjmk7L/GQ9NpSsHKCq2BQf5AkcI3MhAPUpJqPgINgWCNF/mhtMcn1N/Mr0jpDm0fuT0g7BGa/wAlOyOaTsv9NR5vrrAMZiZVNPDGiWGFQ9asXxi5SAnIXXiT8BFzJUjMHFCJF+XzrbUHE6LDE22+kYwk2p7RjH13S0eVUcpOw3+aG0xyfU38yvSOkObR+4Vfb6QdgjNf5Kdkc0nZf6ajzfWu8G2izOVHIAMpgrYkyaIl2zarNhEe8erFCxIsm0JUMJwjsyd8JmJhWUrdwfgmkSKk9aXlg7YnnWV5EPjDTpFo+MByWdB/VzDSuKrsUNh0QUtThsbdFiXjm6lfA/W9LR5VRyk7Df5obTHJ9TfzK9I6Q5tF9AmZ6lSgmiW/5jn6hE+lkZEtNJAGkExdZzwI3RdZzwI3RdZzwI3RdZzwI3RdZzwI3RdZzwI3RdZzwI3RdZzwI3RdZzwI3RdZzwI3RdZzwI3RdZzwI3RdZzwI3RdZzwI3RdZzwI3RdZzwI3RdZzwI3RdZzwI3RdMr6ltIIPwhtEvMrNG3EHiOHNb7p+H2qqiOK22MbijiAiYfAUeJLStQB3C09piRur4HIkbq+ByJG6vgciRur4HIkbq+ByJG6vgciRur4HIkbq+ByJG6vgciRur4HIkbq+ByJG6vgciRur4HIemEuJVglBcVUHFSlccTc2wof4b1Sk9qVY4CWLoIFVNg8VY5SfUZPa6QdgjNf5Kdkc0nZf6ajzfWLCG0JKlKOJIAqTCVlgK4OVYAtty05RhKXboqFSrGGupPXnPssodZcFFIWKgwVLkXVfqlnGg48EnPmOWHKz0sBVRxuoxBXbkPd9Z0tHlVHKTsN/mhtMcn1N/Mr0jpDm0XhXgGlLAOU0sGmkOFTjqi46s2k5SYaQB1iphtHhENo8IhtHhENo8IhtHhENo8IhtHhENo8IhtHhENo8IhtHhENo8IhtHhENo8IhtHhENo8IhtHhENo8IhpBB/hEE4ChVJraOqFYT4BacOdSTSvfYftJPBtsFyn8SlUroTCEmZmwVrcpaE1ICQc1n13Tlf1IbC0HEcqTnByGHFJKVYbEwiytMvUc4gpbui2njIxB0cpPqMns9IOwRmv8lOyOaTsv8ATUeb6xdHJxRw6H/DTj0mg0wioaJbYB5X3ldwNO8+2KtuppXknIR2GKpXKvFt5PKTWivhbohQUlQqCMo+r6WjyqjlJ2G/zQ2mOT6m/mV6R0hzaL3NDzCObO0XuCS2r3cNdCfhCQFih4pqCDlEBpLavdw10J68UBpTdQCUKrSEgqphEqNABBl+zDO6E0WhRSodYgMJJFcFS7ezFAotCilQzEXkBDPOOWA9meJ9OF/67NsIS6yMa27adoxi/OpQtQBKQ3Wnxi6H+184fDza1YNcGhBpW9nV6R0pzYn7T0RPmVHM+p+u6cr+peRhNq0pOcdcOKSUqw2JhFlaZeo9UKS3dFtPGTiDo5SfUZPY6QdgjNf5Kdkc0nZf6ajzfVHFF1ZZKxjSleER3CsPB6VaZShCgCK4ycfWYFDwIWr+ZXGO36gWTLKVntHFOwRdJtqabZCFpWFWEWY6UxARNMzCM7Swqmj6rpaPKqOUnYb/ADQ2mOT6m/mV6R0hzaL3NDzCObO0XpgBoYkqQDSHMNxWM0pEwA0n3UqQDSHwputcFKQKnrpDnBuUoTSoIzERNJ1SYUVKUSSTjJiaFAKAlAJ0woqUo1JOUwKsNDCcGfMIKGmm01JJolIGwRNuqTWnCpZUUaflDiHmXE4SVpNQoQkJl360SMSVDGPW8agpFDeNvDVp/pN7+L0jpTmxP2noifMqOZ9TeAStx0IU6U4QbFCa9+K2LqDVN7ouoNUjdF1BqkbouoNUjdF1BqkbouoNUjdF1BqkbouoNUjdDqZphbalKUGwC3QWGoyZLc9/pyv6l9GE2rSk5x1w4pJSrDYmEWVpsPVCkt3RbTxkiwOjlJ9Rkv8ASDsEZr/JTsjmk7L/AE1Hm+pWSSaNtJ95xWYb8kLcQys0RKS9aHtpaow01KJOIProrQKxPSnBk8dScKoGWgpbHuoSEiuYCn1D7bbzIKCl2tFJJrjGWJuSWrk4ShtENPyqgeK+0rin/UNhhSUrUQlE1SgJzLzdv1PS0eVUcpOw3+aG0xyfU38yvSOkObRe5oeYRzZ2i9MKLyicJIcCcG3FD3CNJAtrWhyiuWJhRdUThJDgTg24qQ+rhcIAIU4FYUPFtvAJFFYOEc1YfcHXw4sheGhKylK84BxxNqVVAJWHgAeukLw0JUQlWcVsMe8XQD2AWbYJDT0xR0jKACQD37LxUWGloWiuJJUDUfAGPeS8mnxF6dmEISKBIcNBF0JnWGH3HSmwFaiaXv4vSOlObE/aeiJ8yo5n1N5CVpNhSoVB7oufK6lO6LnyupTui58rqU7oufK6lO6LnyupTui58rqU7oufK6lO6JCV1Kd0S7TVcfBoCa6L/Tlf1PYRhNq0pOcdcOKSUqw2H0WVpl6j1QAmYQeDfSMWEMo6iLb3SDsEZr/JTsjmk7L/AE1Hm9kxdKUaUMYW8kHRWLrySjm4dO+HUcChJWpYNQABUmsJWrhF8FKsj7qa2DtOMmEpdnlD9a+R8E5ht+tbS42sUUhYqCOsQk/QHlYOCbeCVm7Dk0QsqmZQDBUo2rbxDvGLRE7Ls/8AsdSnaYuxIk/+9MPNup5TagofD2elo8qo5Sdhv80Npjk+pv5lekdIc2i9zQ8wjmztF4VvCLLwGi8BovGgmACgnlDJ3jZAOAu0KT7yFDER1xdGVLFffUlQVT+X5wSqpw3HFC1as53QqpSeEcpkOQbTekWFUSLVIqT2mLny2rEMIZWXMA4AoCKE+l7+L0jpTmxP2d9DLLYqpazYN56okkYAsDszWp6wkYu8wWy6lAbHBpwRQEn1jmfU3mluqcXgNtoIGEaVx5BSLjOfiBui4y/xA3RcZf4gbouMv8QN0XGX+IG6LjL/ABA3RcZf4gbouMv8QN0Sbks6tJU2SsLCqWkZKGl9NKvl9snEpKjhA+ndErMhZHGCcEgHqNYlprQnfErNaE74lJr8u+JZ5DqHAtKl0oMhEHifq1U6+ML3SDsEZr/JTsjmk7L/AE1Hm9gCZniLGUmgR1qOTsxxMPKSs8WWlgQnQLT31iQDIOV5xKDoxxLMO9SHkk/GkJm5NLqShaDVKVjKMxhNRLNhKK8pXyB0/XioebIHUrGDppDzrLqgW1FtRSSMos7Iue4Eqtw3yEV8VsMyyuoPisS83JkYnWyQnxJshP0lg2cOgUcT1kYlbYeQ8w4KpWg2G/0tHlVHKTsN/mhtMcn1N/Mr0jpDm0XuaHmEc2dovSq+ESTVSEg4VuO2GeDbUAKEAE0ymkSq+ESTVSEghXXbEssLwgQpaQMGmakMl1GAUigBKTnFYlXj1cGnfCAhK1lQQMSQTiiTdSUpAwEoTQfGEBCVKJCRkBOKCQQagjGIQpRFgeQK17RuidR2YJropCFKWf8AFcFAOwZYUVLUaqUcZN6cQ2cEVSoGoObFF0GtB3Q8HSHMNSkiwWU9b2dXpHSnNifs6z9ClllDSRiWoWFffiHVAw3CK8HWgT25zDSG0cEDRIpbUxzPqbzalICsJKkqopJzgw5Pa4bocntcN0OT2uG6HJ7XDdDk9rhuhye1w3Q5Pa4f2w5Pa4f2wl9b+CUpW85hYIOOlgvtKw0VwHUGi0dhzdRi6syBkBaTF1pjVJi60xqkxdaY1SYn3nlJcSjAWgAWmmSOS1tVe6QdgjNf5Kdkc0nZf6ajzX1Az8wDweXg05Vn06+yHFJZCsKYmV2mptoM6jEulBpxnDatfWTfaQ60qwoWmoPdEs0w1WuC2mgrn+wSMuiaUal0NjCJz9t8ApIoQRUGG0szI4ypdNiXP5cx+BgrMi4ukw0caDiwgM4y54WFoUkKSoYiDiN7paPKqOUnYb/NDaY5Pqb+ZXpHSHNovCri2FYIzkWgfCDRCxgk5vsprwYOERnOSBQvrW8B1E0HwFfsxIU3LuKB6wkxaE1XblIFdt7mhtMcz6m9MNsMpsK1mgrF12NCt0XXY0K3RddjQrdF12NCt0XXY0K3RddjQrdF12NCt0XXY0K3RddjQrdF12NCt0XXY0K3RddjQrdF12NCt0XXY0K3Q8h1lwVStBqCL3PteaGnlh8IALQBpSuOpGeJxIeP+C6MBfcDj7o6QdgjNf5Kdkc0nZf6ajzXiAkCpJyCAVLmXg0wk/dTWiRot0wOK2LVZVqyqPb7F0JdlfIUvjaBbF1WdCt0XVZ0K3RdVnQrdF1WdCt0XVZ0K3RdVnQrdF1WdCt0XVZ0K3RdVnQrdF1WdCt0XVZ0K3RdVnQrdF1WdCt0XVZ0K3RdVnQrdF1WdCt0XWlwTyiRtEOIcbViWhQIPePYSAl9WA+Biw8iu/0hVXJMgIqcbasWg1Gi90tHlVHKTsN/mhtMcn1N/Mr0jpDm0X2C6w4StyXQOM2cpSMo6hihxxGDZgLGLuMTHwETHwETHwETHwETHwETHwETHwETHwETHwETHwETHwETHwETHwETHwETHwETHwETHwETHwEPrNciRSuiGXJa54NThii3eoDGB1mEhKEAJSkCwAYh9m6K55THIVsvc0NpjmfU3n0tPNOBxGHXBVYQQaduOJqR8av7YmpHxq/tiakfGr+2JqR8av7YmpHxq/tiakfGr+2JqR8av7YmpHxq/tiakfGr+2JqR8av7YmpHxq/tiakfGr+2JqR8av7YmpHxq/th7hVpKlLUBQVJqQOq9z7Xmh1TZbAIoK1rWDhtg2OoswTkrmMOKcecNVrVjUc5jNf5Kdkc0nZf6ajzXjRQYKQetXF9YFRLMqcHbYkbT7DhQ+UgvvJxoBxJGY0xmGwlkn/AM76sEKPVlMTUl41bompLxq3RNSXjVuiakvGrdE1JeNW6JqS8at0TUl41bompLxq3RNSXjVuiakvGrdE1JeNW6JqS8at0TUl41bompLxq3RNSXjVuiakvGrdDsm6ofcS4QTpFIDjSkKo9KuWJWOsbCINWnk4QrjByg9YNl8VIZLiepSeMNkHizDC0kdlFDZe6WjyqjlJ2G/zQ2mOT6m/mV6R0hzaPY6K3tVDDSlFoEkoBJiWZ1Y3RLM6sbolmdWN0SzOrG6JZnVjdEszqxuiWZ1Y3RLM6sbolmdWN0SzOrG6JZnVjdEszqxuiWZ1Y3RLM6sbolmdWN0SzOrG6Jdn3Ff4YzdkW/rD5T9o6K55THIVsvc0NpjmfU/Y+fa80Zk7TCQpCxRQOURbwayn4xmv8lOyOaTsv9NR5r2RCVdwUDGNcsadyh7CjWbnMFRy0K6bIQENtpCUJAsAGIfYkgPJc4FSgPeSQSK9hHxg1S0+FJGbCTbsvmxMs55TH3G3FHwket7paPKqOUnYb/NDaY5Pqb+ZXpHSHNovzKGWsQJtKjmAxkwlxLIaS2OEFCaE2074k3FlpASVBYFYkXdYN0SLusG6JF3WDdEi7rBuiRd1g3RIu6wbokXdYN0SLusG6JF3WDdEi7rBuiRd1g3RIu6wbokXdYN0SLusG6JF3WDdEi7rBuiRdGEkivCDKIStbTC6qCBaRQizTEylZT77ahgrT2g/Z+iueUxyFbL3NDaY5n1N7hieFHDhiuGUUOKltK0rSGLr6HYYuvodhi6+h2GLr6HYYuvodhi6+h2GLr6HYYuvodhi6+h2GLr6HYYuvodhi6+h2GLr6HYYuvodgufSeNY774TXihXXS9z7Xmjkp2m9zpjNf5Kdkc0nZf6ajzXvdfaU3pFIBQGnCy+MwPFVox90EEHERlv9OT57wqo2CsLGgQsaBCxoELGgQsaBCxoELGgQsaBCxoELGgQsaBCxoELGgQsaBBCknLTFe6UnyqjnG9hvq/XTisCn8AtUdg74TxW0BhB/iNp+AGm90tHlVHKTsN/mhtMcn1N/Mr0jpDm0XlYLTSCtZzACpjCOGcFlqtjacgHrDqir+CwQt3SN0Ld0jdC3dI3Qt3SN0Ld0jdC3dI3Qt3SN0Ld0jdC3dI3Qt3SN0Ld0jdC3dI3Qt3SN0Ld0jdC3dI3Qt3SN0Ld0jdC3dI3Q64lWQqoRDhbmGjVKhiUMxzgwMFLyKlPJOIjuNfs3RXPKY5Ctl7mhtMcz6n60wtKU51GgicY1qd8TjGtTvibl9anfE3L61O+JhlauGbsSsE+9CkioTSppW03udMZr/JTsjmk7L/TUea+3/wBvMkB+g9xzOeo7e2HQl9AwZdxRsWMiSc4yZ7/Tk+e91wnDKaBKeUo4hEymlf8Ax8GMHsz/ABhOAVVStOZQxwQhaUguOkVIJxAd0OB5t5QQFlICkE4sWMXzQhCiD3RdBzwp3QsrdW3VSjlNTE2ttoNoISAMZHWImVPBCElOEBYSTmEOlpzhUpwgBiNc8TzikLdSlQKU2gkdUZ73Sk+VUc43sN50IaRpUcwGUw2pTrqg2wyk1wU5B6k9sUJQKuLH31nGf/sl7paPKqOUnYb/ADQ2mOT6m/mV6R0hzaLxoeBppIEYwg0+F5KiBmFbyVHsFYSodopAqcwhtfhN5CiM4BpfSpajiSkVJi58xT+SG1NrGNKhQ35F9SFCoODjEXPf0RLuMlWLDFK3haaisGxEy4B2WH1+zdFc8pjkK2XuaG0xzPqfrcBTiDguTRGEEnMgYievFH0qcUTatRKgNNkSB0p3xIHSnfEgdKd8SB0p3xIK8Sd8SDhpmIJ2wXEYPvNO1poOKE4PCKwsGtaRmv8AJTsjmk7L/TUea+2lxlxJStChYRCVzFzq1CxaprqV1deyEfTpcCgUVUcSP5svfph96XVlS60bO8Vg1Cp1JB6sO91woJcNFIJxYQxVi57+HWlcHi6cUKCnAStZGLCOOkNKeS4kBxCbVJIsrTKKQwtiXZWFnhBQqIxADtvipKFADuMXOmtUYQpDiW6KSoUItMSb7jZbQApDZIxRLOshTaQkuIIraYZcdXwyTgoTU0tiQmUpS8gklo0AqIz3ulJ8qomeCU4tBQAgqKgAa4olHX3Mi3uIkd2M/COEm5g2IaQKJQOoYgOswUu3RWKKWLUtjkp9Tlv9LR5VRyk7Df5obTHJ9TfzK9I6Q5tF7mh5hHNnaL0o4VJJqtunGqcZ64Z4JJAFDjNMp64lHCpFeM3TjW4z1xLLSoqBwnKWUzUhnhUlBTZjT1iJOYPVxd8ICAtZUEjEKnFEk6ClIGCnBwe7qhIQFqKgkZKnFFhVaVHEkZSYQAqnGcPvK7TBFc0NhYyK+8nsOSDhIPGbXT3k74zxyRex8P8A8Tezq9I6U5sT9m6K55THIVsvc0NpjmfU/V4haSckOgg1S/MoOPOlJ2nuEJKZRJsTiLh6uqEJQhIoEpFAPbADwH6pzKk7oFFpVgqGYgxmv8lOyOaTsv8ATUeb2MUNKlH1WlcvRIJ604ouqypOThWik/CsY0ziEnuVS976cXXDS9ENL0Q0vRDS9ENL0Q0vRDS9ENL0Q0vRDS9ENL0Q0vRDS9ENL0QkpQDbW90pPlVEyyylhSUq4QEk1BNlOyLoOv0xoaTwY02mJVthGXBFqu04z7HS0eVUcpOw3+aG0xyfU38yvSOkObRe5oeYRzZ2i8Gktqrg4a6E9cJAcABsNQQc0BpLa/dw10J66UgNKbBAJQqtK57ICSsJwiVGgAgy+sO6EkLQopUMxEBlNRXBUu3ZAotCilQzEQOMVBsHqAr6wrBmphzgm10rgWEk9tNsTDynia8IXDhVz1hwuTEqUjhDjWkiyvWKEVgcdp2leo//AAvSbbikihVhkV66RIN6w7oZQ02g4VEmtTe/i9I6U5sT9m6K55TCsFtKFVNOqG0tI5ShhKPoIdw1gYINgsi6JbYaGChAQg0HeIusrVo3RdZWrRui6ytWjdF1latG6LrK1aN0XWVq0bousrVo3RdZWrRui6ytWjdF1latG6J6amEq/wAJGI9yccJLTQtDP3lduYfGEhKUigSBQAfUizhjGa/yU7I5pOy/01Hm9sU+iz1V9QC7fhBCkqFQRiI+xEcK49wmDmSkEV0mBxHH0pSc+Cm3b7XS0eVUcpOw3+aG0xyfU38yvSOkObRe5oeYRzZ2i9MANDEFICqaYcw3FYzSkTADScQUgGkPhTda4IQE17aQ5gOUpWlQRmIiZTqkwoqUo1UTjJiZFAKAlAJ0wSpSjUk5TB41Q4kZxiPpGD9KZXwrQUaBRpQprkqDFzJwPVpgcCquyAEzU0QpSK1wEjED12kmDx3XMKnUPmRenlJcIBKUtggfGLoL1Q3xMcM2tWCapwSDjvfxekdKc2J+zdFc8phJUpVAAMphtL8ybSFWpR1AZe2JdkD/ANY3Qw1qxuhhrVjdDDWrG6GGtWN0MNasboYa1Y3Qw1qxuhhrVjdDDWrG6GGtWN0MM6sboQlH8oA+r54xmv8AJTsjmk7L/TUeb22i4lQ/7ltAqQR98DKKY9MJbmpZNiEOkgoGYKGTqMXJa153RchrXndFyGted0XIa153RchrXndFyGted0XIa153RchrXndFyGted0XIa153RchrXndFyGted0XIa153RchrXndFyGted0XIa153RcxhC8ilOKUB3UEYUxNOe8siiW09eRKRFqWhxlUtWo2kntPtdLR5VRyk7Df5obTHJ9TfzK9I6Q5tF7mh5hHNnaL0yrhSThJDgTg24oe4RoAGtakHNWJlRdVXCSHAnBtxUiYVwuEAEKcCsKuOHi23gEiiqYRzViZcHXw4heGhKiEr5QBxxNqVhJBKw6AD10heGhKiEq5QrYYNFoOI4iMoPVCwh6nGaUbQerPecGH91tJqpXdFlbEpGJIzXrQUggiBBAJeqB/pN7Or0jpTmxP2bornlMCoThLHaBZ9p54xmv8AJTsjmk7L/TUeb6iQQl1R4y2SWye2lhgEsqmw0QDbg4dMfZDEx+IMMTH4gwxMfiDDEx+IMMTH4gwxMfiDDEx+IMMTH4gwxMfiDDEx+IMMTH4gwxMfiDDEx+IMMTH4gw26lxb4QSt0qFKE+kMKdUy6lKBwhSKEVtpEs1LtcltNK9uf2+lo8qo5Sdhv80Npjk+pv5lekdIc2i8KkMYXcCCdkG1SCB7YF4X8YicmMHNwhgkk4yTfm30JGIJcIAiemdaYecdIsBWommm8eMASRAoFzDih2WD0+zdFc8pjkL8t9Sy4oYWChNaDrgTOrG+BM6sb4EzqxvgTOrG+BM6sb4U4l2mEEuJpUZafYOeMZr/JTsjmk7L/AE1Hm+ouiyh0Y0JJWodoTWkKowmbDpVT7uHWtOyJ5WpXuieVqV7onlale6J5WpXuieVqV7onlale6J5WpXuieVqV7onlale6J5WpXuieVqV7onlale6J5WpXuieVqV7omS66l8LILak2UIyjribSwp11KkYSSQQBTGBZD7b7RxLbWFD4e30tHlVHKTsN/mhtMcn1N/Mr0jpDm0XkhTbiSlSTlBsIjC4Eqwpd8CxacneMohmqs6TSvdEu54hEu54hEu54hEu54hEu54hEu54hEu54hEu54hEu54hEu54hEu54hEu54hEu54hEu54hEu54hEu54hEu54hEu54hEucL+JVkIK3nDxlU4rac5zARa2wgJBOM5z3mp+zdFc8pjkL8t+YUy5ghKqJwgQMUXQVqhvi6CtUN8XQVqhvi6CtUN8XQVqhviYU8tIISMHBArjP2DnjGa/yU7I5pOy/01Hm9t0tqAH0l1Joq37gOSzHojg5eWV7rr1eP1gC09sXTldWqLpyurVF05XwKi6cr4FRdOV8CounK+BUXTlfAqLpyvgVF05XwKi6cr4FRdOV8CounK+BUXTlfAqLpyvgVF05XwKi6crq1RPyjixiTRSa98BbD7ZHCsr91wdeQg54qEOpqUnGk4iD2H2ulo8qo5Sdhv80Npjk+pv5lekdIc2i/LtvsqxoWmohCkMqZS5gqUVUJJynsh99K3UBRCaUHwiYmdKd0TEzpTuiYmdKd0TEzpTuiYmdKd0TEzpTuiYmdKd0TEzpTuiYmdKd0TEzpTuiYmdKd0TEzpTuiYmdKd0TEzpTuiYmdKd0TEzpTuiYmKpSTjTm7ICiy8shYSaGmCTj7olm2EG1WCLVHrOM9/wBn6K55THIX5b7zbdcWGoCumJ2W1qd8TstrU74nZbWp3xOy2tTvidltanfE7La1O+J2W1qd8TstrU74WlaTiUk1B+t54xmv8lOyOaTsv9NR5vbJP0qdos9RXb8ISEoSMFKRiAGIfYkgPNvcFhZ0kE00iDxGn0qSM2Em3Z7XS0eVUcpOw3+aG0xyfU38yvSOkObR7C0rAlkJOCa0NVWROMIWloBSVOAEGJ+W1gifltYIn5bWCJ+W1gifltYIn5bWCJ+W1gifltYIn5bWCJ+W1gifltYIn5bWCJ+W1gifltYIn5bWCJ+W1gielySg0HCDNC0oSHDVSjQDin7R0VzymOQvy3wl1GAE4ClAFNO3PEsjWpiWRrUxLI1qYlka1MSyNamJZGtTEsjWpiWRrUwoYa14eAk1CBT63njGa/yU7I5pOy/01Hm9vpyfPeFVKxVyQ6YdVDqodVDqodVDqodVDqvhDqodVDqodVDqoVhJOOuS90pPlVHON7D7XS0eVUcpOw3+aG0xyfU38yvSOkObRffU1IIJQpaDRTxymuRPVlhrBBt4xpWEt+OEt+MQlvxiEt+MQlvxiEt+MQlvxiEt+MQlvxiEt+MQlvxiEt+MQlvxiEt+MQlvxiEt+MQlvxiEt+OGgoZkqBhxx655NHGVmpQM6a4iM2IwsLacSFIUMRBtB+zdFc8pjkL8v2nnjGa/yU7I5pOy/wBNR5vb6cnz3uuEhS00ShJxFRxRPuVrXBswfDihIS5UoWBiwhjpDhaKUhTjg96pxAZrIfU/LurCDwlpSTYCDfNCEKIPdF0pnxw4px1bdVKUbSamJ15psNoIShVBaImnXghtJSFqrS0w8tlzhkjCQaGltkXQmFIU8hKkldhFRZGe90pPlVHON7D7XS0eVUcpOw3+aG0xyfU38yvSOkObReNFpYUAc1bPWBUIThUz5vsooXAQrrIywa8A6todgNRt+zdFc8pjkL8v2nnjGa/yU7I5pOy/01Hm9vpyfPe64UEKVRSFHEFDFEio20w8IYHbWFBSwSpahiKjjp1QnhFKSEuNVobMRGeGSww0oLos8ZZGIAZr4qShQA7oubMeGG1NuobopCsYNTEk860W0AKSLKgRKuMhbaQkrFK2mGVuucMlWCkW0ti576UJeQpRKbAARGe90pPlVHON7D7XS0eVUcpOw3+aG0xyfU38yvSOkObRe5oeYRzZ2i8+kvknDSXsDBtxUh3hGQBbhYVDlFcsPpL5rhJL2Bg24qQ8OGwgAkO4eFnh3AawSRxsHCOasPoHX9J+cLw20qISrOK2GJkKJQCVmYA76QvDbCiEqzithhJUtRokAWkwS44RXgkmiU9pGOLny9P5I/UOjEgmqDuhJQ4g0Uk5DekWFUSLVIBJ7TFz5bViJdtlZcwDgCgIoTbovZ1ekdKc2J+zdFc8pjkL8v2nnjGa/wAlOyOaTsv9NR5vb6cnz3jRSbRWGjpENHSIaOkQ0dIho6RDR0iGjpENHSIaPwho6RDR0iGjpENHSIaPwgYKRjttN7pSfKqOcb2H2ulo8qo5Sdhv80Npjk+pv5lekdIc2i9zQ8wjmztF5JV2CsWQgnsFYSU9opArWG1D/TeQSM+DeFeBolFc5xnRtgFVCEobTjWo4hDcmlqv/i4MmztrWEFt1CsB1omuCrqOUGEgKwuDWRlyj1vTYQrBFUqSag6InkaDuh3hSHMNSgCABSmXtvfxekdKc2J+zdFc8pjkL8v2nnjGa/yU7I5pOy/01Hm9tJH0SdqsdQXXZCgpCwFJUMRBxH7EoF5bvClOZIBFe8n4QOI6+lKTnwU27fa6WjyqjlJ2G/zQ2mOT6m/mV6R0hzaL3NDzCObO0XpVwqQTxm6capxnrhngkqAFDjNMpiUcKkV4zdKKtxmuWJZxKioKw3KcWmakMl1JQU2UqnrFYlJg9XF3wgIC1lQSMQqcUSTwKUgYKcHB7uqEBAWoqCRiFTij3kugnsI+UAqRLPYbgGRJBFe71vJUll9aUt1+9g1qfjSPeW8kDuqb0i6UKFQaAVHfEg78N8S62sL3cIY738XpHSnNifs3RXPKY5C/L9p54xLs6TEuzpMS7OkwlKVKAFE9UMNEISEgkm2kS7OkxLs6TCEqWw6HQlWIkGtDFzpLxLi50l4lxc6S8S4udJeJcXOkvEuLnSXiXEs1LurSAsNE0URZW3LTZC235Ye608CQnsItHZFzpPxL3xc6T8S98XOk/EvfFzpPxL3xc6T8S98XOk/EvfFzpPxL3xc6T8S98XOk/EvfFzpPxL3xc6T8S98XOk/EvfFzpPxL3xc6T8S98XOk/EvfFzpPxL3xKSbSjiXxlU7iYeU68s1UtX/1g6oubKcE0mgKlKqo4yT1kxc6S8S4udJeJcXOkvEuLnSXiXFzpLxLiUl2UJdDmE2VE1AIy9sNoXhkE4VbKRLs6TEuzpMISgpTg0TDLakoFASTWJdnSYl2dJhtCMCtMEm2sSku6gLUvCcKq1PZFzpPxL3xIS6EPowStC1VTaDl7I5v1F4NJaVXBw10J68UJAcAB4pqCDlEBpLa/dw10J68UBpTdaEoVWkJSVgYRKjQAQZfWHdCaLQSlQzEQGEkiuCpdvZihOCtBKVDMRFeAcGC4BmyHugpcaWKgi0KBi5TWETXBClBPhrSEoaabTQAAJSkDYINZZmoQeUTjVeGQQIFvD/8Te/i9I6U5sT9mtU5LuIHaUmDghVUW5CRQfH7Talx44PXbSGvzGGvzGGvzGGfzGGfzGGvzGGvzGGvzGGvzGGvzGGvzGGvzGGvzGGvzGGvzGGvzGGvzGGvzGGvzGGvzGGvzGGvzGGvzGGvzGGvzGGvzGGvzGGvzGGvzGGvzGGvzGGvzGGvzGGvzGGvzGGvzGGvzGGvzGGvzGGvzGGvzGGvzGGvzGGvzGGfzGGfzGGvzGGfzGGfzGGvzGGvzGG8FSRUHCMc36i9MANDElSAqnZDhW4rGcUTADScSVICqdkPhTda4KUhNT10hzAcpStKgjsiZTqxCipSiSScZMTQoBQEoBOmCVKUSSTlN58hBNShQwk6IlpfCz1MPANH/DQKJ789+WZWUimESRWJNjxGG0NtoOFgoqanPbezq9I6U5sT9kdQ02n3lrUEgd5i60j+ITvi60j+ITvibYelX1F1ssOhXBkmpSaYqHF1QrgnhZwtOKvtzGJ+Wp/7RE/La0RPy2tET8trRE/La0RPy2tET8trRE/La0RPy2tET8trRE/La0RPy2tET8trRE/La0RPy2tET8trRE/La0RPy2tET8trRE/La0RPy2tET8tT/wBghSlFYop+lKDMnfAo2jF1n/NMSkkQnjINFJziHkp/hUaERMNeMRMNeMRMNeMRMNeMRMNeMRMNeMRMNeMRMNeMRMNeMRMNeMRMNeMRMNeMRMNeMRMNeMRMNeMRMNeMRMNeMRMNeMRMN2ZjUwCEJFEg44utIcMAVu0mE++q0jHkxd0XWkfxCd8XQlXnDiQ28lRPcD9iWkOtO8Jwa1USsUIpXOMcSsvr0xKy+vTEqxr0xKsfiExKsfiExKsa9MSrGvTEqxr0xKsa9MSrGvTEqxr0xKsa9MSrGvTEqxr0xKsa9MSrGvTEqxr0xKsa9MSrGvTEqxr0xKsa9MSrH4hMSrGvTAHCBZQRXLWkIR4hCUeIQuo5Kd8ABIxAf5qnj4WDXOKQ02tLSgleG4E0JFcsSrH4hMSrH4hMSrH4hMSrH4hMSrH4hMSrH4hMSrH4hMSrH4hMSrH4hMSrH4hMSrH4hMSrH4hMSrH4hMSrH4hMSrH4hMSrH4hMSrH4hMSrH4hMSrH4hMSrH4hMSsvr0xKy+vTCWZdpp1LinEuhShQ1sAy/5UK4Mws0/wBRiXPj+US58fyiXPj+US58cS58cS58cS58cS58cS58cS58cS58cS58cS58cS58cS58cS58cS58cS58cS58cS58cS58cS58cS58cS58cS58cS58cS58cS58cS58cS58cS58cS58cS58cS58cS58cS58cS58cS58cS58cS58cS58cS58cS58cS58cS58cS58cS58cS58cS58cS58cS58cS58cS58cS58cS58cS58cNYNFVrhVjn0eX9wW5hpbqipSWnaJqcZApZCp3XfKFTuu+UKndd8oVO675Qqd13yhU7rvlCp3XfKFTuu+UKndd8oVO675Qqd13yhU7rvlCp3XfKFTuu+UKndd8oVO675Qqd13yhU7rvlCp3XfKFTuu+UKndd8oVO675Qqd13yhU7rvlCp3XfKFTuu+UKndd8oVO675Qqd13yhU7rvlCp3XfKFTuu+UKndd8oVO675Qqd13yhU7rvlCp3XfKFTuu+UKndd8oVO675Qqd13yhU7rvlCp3XfKFTuu+UKndd8oVO675Qqd13yhU7rvlCp3XfKFTuu+UKndd8oVO675Qqd13yhU7rvlCp3XfKFTuu+UKndcN0NqSgqwlKUqqlHOT/APpFya5yZmllDLCV4ANBVRKqGgFRkyx+iyPxx/sj9Fkfjj/ZH6NvtpyqYmkrOgpG2J/gpxWKVmhwbh6hWxXcT9kkBOTU4V4AWspQhKaVJpaTxhZDBl323CzMMYWFgLABsOUEEG+0p7AUG2mUmhcWrEK5BjJOYRc1ElMupUqXW06VJWUipSaioNKnuv4hFyMK5TkyJdMyHTwhqrBC8GlKVyY6fYLpTMjLIlUPn6M4UKWtSlCpItIASKCF8JNuIUhxylMMpWpOEesgCv7k85MbER9LDsvMhpHAOhAwcEG2w5YVdP8AEj+2LrT8q6RxeGCXU17KA/GGw7JFVGp6XJKK5AcqVdvdWHi7ML4snOLPGcPNrOU5jlxG36ij90HgfosoFUKzylZkDP3CGmW5lbjjawyCEnBURUAk0+qRV65jwcNB/hq4qvjgnuhdETjAebB5xs207UqOi+qxtKpt5IOU8VHwCtMEhUrMIdNMqQeMO8VEKCm1pCkKGUEVBvKwXiwWWc+GviinZWvdCMKXkazjtRZxPd/MU/YP2e15lxne/qr/AHJ5yY2Ijpyf6YvsIflX0FDrSxUKSckOOcElQfk3q8Ytk1Sa5wRTtEEF91rAfAyOpOCrSRXvjhCy2QhKGxVS1HEkZNMXLlJJqti36vL9EjQYu0lP8KZVqnliTYnpYnjusI4J1Izge6rss7YmEvyj6aoWPiCMhGIiG+HnpnCTKMVoFKFKqUciRUVynFEyqYmnjVSybAMgAyAZBCJAyza1LBeZKlVUam3CEScm6xNYScKWaKVNkJKsLGaiy2F8GxLtqdcVmSkVJ0CLjNobFiX51RUo9eAkgDSYus0yOS1KtgfEEwJS6TH3kraDSqdSk+oMLUlxBCX5dygWyrMc4OQiw+wAWZphbK+xQpWKocufPcFMDFxQooWNFYIINoIOMRlgl3h5sSsqBlSkhtFO2le+EASr8g2zUClXGgEKPeME6YXhPyaTJu21tRYn8pTeXa4tU28kHIOKj4lWiEUXOvBlonm0YyO1RPhhDrpcc4JlloDCcXQmltgFBaYufJSDVbCsF5ek0Hwi7SR/CJVqnliSamJZRoqZlUYDiOspxK7qQ+h+WfQFtOoNQpJy3peV/wClyUyphTK26qdCTRRwq1BNtKYrMcMpnrrLbC1IUaNsAiow6WlVvujvpE8wpsKB+iplUBChycWF1Y6w2ptTiErLasaSQDQ9mKGEXRuk0cF1alEMsqzEi1Ss4FKZ8kXTZlk1sQzKooNIJ+MIlLpsfeCmw0vuUmzSDDhDjdA/LOUDjKjnGUHIRYfhe/Z7XmXDpU+5w/ASrVrjp4VWIZBnJs2R9FuYx91CGg4unWpdansAiYlroM14zbzCU1HUpFCPjFWn2yEzMss1Uyo7Qchy3phuXlWU4TjrhoEj/wCyZYue2hkGgmpwFSldYQDQd5PYIu0lI5IlWqeWJGXn5evGcZHAugZx909lB2xMh5hVigbFtqypUMhvJl20tsoddcdbwysqrQAZBQdtsMhlyaawloSagKBKTTqqDeSVJl2VulIxkJBNPhDEoZCfe4JLbTeCpmvukKrU5K1+F5ozl1HU4bUqlWCEp5SzkGbKfjE3KySCbEMSyTTvXUxdKXmRyXpVFPygGLmty826hSmnpdRKFlIqQUm0WA21N5alOuVDEs3QuOkZswGUnFCZS5jH3UpbDq+9SrNAEXTYmEi3g3pVFD4QD8YYRc66bnFaUF1ZeVmBNqVdRx58n+Yc5MbER05P9MewP1h4ZlRzjiqG06YNUsTuEnqwkCvxENqXLOEKqhWCpKgahSTkIi5CZ1znJ1ZdOixPwj9HLkFBFKfQm90S/wBESwtKZqWQSUYKjQLSDioSARioYcJlplkzDaTiS4ggGnak/lEXPlZxDZwkJmGUuBJziosiRlpNpcglakS7QQCeEWKkAY7IuNc+afU+8C6/LIWogKsFSKxcmRk3FDBUuXl0IURmqBihtLjD6FNuIViUkihGiJB6cJNUpmnypKeoAUr31j9HLkpRm+ht7okGrn3UYaU62JcYKHaCpQpOK2lhFLYcIl51wSj6a2KSuwV7FYJ9lOCxdNpMyCMWH7qxpFe+FYT7bP0d7Pht8U17QAe+FYLrUupLNv8AiK4qfiRCSpm56FTazkwhYj8xB7oRhP3NdTMAjHgHir+BB7oXxZhpM00DykcVVO4jw3jwjbLgk2ALahHFs7VYWmAAZaXSlfWs2qPiJhtamkuBxtbasFbaqUqD2EiLiMzTgxuThLxPcbNAj9HLklBFKfQ2x6Q2piUcd4GYlsIlLaiKpUmtoBoQR2UhZU2yBNS4J90E4Kx2VwT3m9+0X/OYLyxM/rWpIrKVKBtCnVY7cw7zkj9H7mMuNGqHEyycNJzhRFaw5wc/NqEtLqBtQVAlSh2JB7yIU4i5cmErmVJNFOKJsQDkrQknMOuLlyks0kUAbaFT2nGe0xKMSV0cElqcYbCVBWTCA95PbbmgKbclHzLTrINi260WnrzjrAMKCm1pCkqGUEVBj9nteZcPOy9xJb9Wp7GpdteDbrZlqTiFcpi4MjYKFx5kOrV2qVUxc9iSupKNKfSqWbCEvBIqUqSLDUA0OOsLIl7oVlHU1sOEKpPaFAfG86RI3PoXkpNjjxFbf5QQB1kw0XWXxhyskSUhSci10tIOQZrTji4Ny0sgUwBKIpsiVRJXTaSV/RmrGn6Y0hP3VZqWZ88LUmQmliXnW1WDBJoFUzpNukZb3RGdhjml/wBRd7ob3kMdObvOYKnJ9TKSs2ISlWAkdgAEXJlZqYCQHJqZaDi3DlNtadgi4Fy3Qc8oiukCsXKblppwYJXhqVgg4wnCJwa9UKCUISVKUcgFpMVW5NviWkmTiQ3WiB1Zz1kxJsTl0aVenH2wpRVlwAfdTmp3xcuUmWlChDjQqOw4wesQ44u5k5VcstRqptQxoJykVBBzHqhzDn5NX0aZUcayAClZ7UkV6wf8v5yY2Ijpyf6Y9gjhG0OzCxlAUQlPlVAoJqdIR1pQkDaTEw3LyrKcJx1xVEpHWYuS9PBJoH5hfBIPWE0KiO2kXGuUkZlcIT5ouZc1tibRgLW0F4QtBsqojJHR3/Je/Zyf6i46Q/572ICpiXcuu+2aKW2sIZB6l2lXcKdcXEuahOQLU4o6aiLkXJoRQ8Vz+6BSs+waf/yCM/sIq7cx8FRA/wANfFV8cCF4imcZST/pX/whVFTLpmXQOSgUTpJPhhFHJ9/g2yR/ht2fFRVogVZmmlsrH8KgQdsEoMlPGWmcnEJLa/gawR/2sstxNcqqUSO9REAuNS6zOzBNtcC0V7VFOm9NNysq0OM44bOoDKScwti4jkwgGgemneDB7EAE6SIuPcoDMeEP/KLnXPZZdWhZWyF4QKTUY1ER+zVf1EXv2i/5zHMo8ovH9WEPOkZzVI9DFyJeaL7/AAynXHVJPugAUAxCnxj9HpPXr3R+j0nr17olG5RyaKStptRKQQkJrU56VgEOG57Nai2xIA+Efs9rzLjO9/VVexfR3PKY/aLHnEZ4USuZug5Un+JwiEhLbLaW0AZEgUA+F7HCQlsTalpAxDDAVtVBJW9IsuKJykoBMdEZ2GOaX/UXe6G95DHTm70up65E44XlrbFeAWq1QVmBNSDitpD7N0ZRsBKW5xOEpKRkCwQdNYuVMySjYXZdQeR3ixQ+MTrU3LqNMJs4jmIxg9Rg0WJB1IIyYQwfWJRubclSpSGnFEJJKSkGozVrH6OyWvXuj9HpPXr3RceXlSw+HkOtuKUfdIItGI1+EA8DRhdaWBXHGz/L+cmNiI6cn+mL8yGJZoWnKs5EpGVRyCGFLmZ15LMtLptwU1ohA9T2mCFfRmQlah95ZtUe9RMOqTKtMiaeSDYtaiQmuegHxhtU39IUrgJbDKUJSlRTVVLVEkGzFSP0YuTQZ5RB2iLg3Ml5hpgFDrUqhKknCSLCBZHR3/Je/Zyf6i46Q/57zim3LpvFlxaTQ8EkVUB22DsrC1m58mpKOAbVgl1agTQnGEgDJjrH6M3MIGIuMBw6VVMfozcgcU2/Q283ZAoBdBmmtEZ/YA4Obl1sknJhCgPcaGP1f/cKkZlJyYRwDXsVQ90EuIlFJkWQLalNh/OVQB/2suhtRGVdKqPeom8mjF02UvgjFhjir2A98O1mbpEImRW08BYqvarBMI40y4JZknkItUe9RHhvOqEnc5tB4MGxTi04RUeuhAHfniX+nzM62Hm2VqIabQfdsFMIkWmtluKP0YuQAM8og+kXEudKTKXmQl1mWQhQqsVoQK4o/Zqv6iL37Rf85jmUeUXgcBCnZdZzEhKh5VRcqUm7oMOJeaU8mqi0RQgW4gR+aP0Zuf4Dvj9Gbn+A74/Rm51Umoq3UaCYSEpAoABQAR+z2vMuM739Vd7mHPKY/aLHnF4FK2Z5xaLPulWGk6CIUFNzTCXKjIaWjtBqO68sIbSCpSlGgSBjJhJWmcm1cAALVJrgo0gCMctLNsn/AEpA9IFAqTZI6xaPSFVwEOIV1EOKsvPpZaEo4jCUcalJISBnJJAAjpzd4AgihBGMRcZph5RqXZQllVc9BYe8RddTiwCUy04kAq6gtNle0d8OLSxMTCZWbZJsUlSsG0Z0m0HqgEuvSTqUCmNWCSPiIl2X7mreDb6HhVICgUgnsJB7o/Rm5/gO+P0Zuf4Dvj9Gbn+A74ufLSbClYRQwjBwjnOc/wCX85MbERcp6cVMzAeCm3QgJGCBS0HNH6NzX4pP9sXAZZWRY5NPlyn+lIG2Hpm6E2tWCxLNJsTXIhCbB26TCW13ZUmjbQIKZZJx25VnETiGIXmyqVdZEq6oCxC0klNe0E6Ilph2TbWpTD8uAVNhRqUlJIqK21Ftphq6M07kbDARpJNnxiXVL3Ik08O5LMElKEg0C3FfeNTZiGYRj+jv+S8gmXcllS+FkC0qKqaFfAwzNIDTy3GnmEYaSFWkEVqCDXTDc+gzKw02+60EoKzYARhVFTlpDanHLmPF5xKRU8EoUUe7insrEuuZudOBPDNtkBaVJrRSa2GwkUyx/wBSUun/AIxLcbThU+MST8oxMng8Bs4UxMVyEj3U5wO80jGJ9gHWJjP7IKGp9KZxtQyLxK/MknvjCdQw4qemFKtrg8YE9qynTfRV25swFKIGJtfFV8cCFrW20TwTZtCSo20HWaQkBbEunhetxXGX+Ym82TKXRaQOEGIOIGCUnroAdMS0ypuVBQxMy4CuJWoSpJIxYgRkyRLXRnHvuo4INJr1qJs7gYaUi5MiUngGAeCYKjgpKj95RxVPXQAR+zlf1EXv2i/5zHMo8ovKS2taQth0j/xuptSrsyHqJgOXPurJLxEWEbFJI7iIuNNNP0opcmoLQTnCVEEdlTFy7qPuUsCwhsacI7IufKJlVOpQJJKC4t2ppTDx1zUA7IEfs9rzLjO9/VVe5hzymP2ix5xeZLsyw3gTjKBVS2xiWBlKcRGamaGhO3KdVhLlVrwSlWVSFZDnGIxJ3WQ7S1sMoVb24VIl13Oua6KPFS8J14ZiRYlPUMeekMFFzpNWHLBaf/yHRiI/hSba5TQZ7zZX9ESWJsJFSlsmqV9gJIPaIlXJy5brnCYLagHGlEWlNbCDZUWYscXOuo+8RYhaENjvVhHZDWBIyba3+AbJDMuhIJKlnKogUqbTiAEdObiyLmyapFl9bQlXEqS4kJURauvvWZqdUXMunLOUtDYQ6nuNQfhFzZtc2pJSh6bCUIQT96gJJpmshC1ssPpmpt6liUJVhWnOoig7eqBDKjcWdcLjTiRxWVG0tqzW1pnHYYk13RlWUhDT6F4LyEjEDWxVMlaHriRuuV8jgm9uHFy25Qc/Nq4RfckUA7yYYS3McMtoLQnBS6lNKLA7yM1R/l6XRwKytp1lWCtskUNKggg5QYupdfxt/wBkXUuv42/7IXdKaA+65MBIPhSD8YuXLSgIopSE1WrtUbT3m/LNTEs8nBcacTVKhF1ZuQSq3gloDyU9hJB0kxdmdm0DG22hLIPabTFzWmLnTLZbeQ3UKXUYyrGVdZiZmZuaUgttqfwQG0nHQAWnJW9KomJVyhKTYUkYlJItBGeP0gm2GibEOsJcI7wRsiambozkuoLaLoCG0KGJWCMZHWYANbCDDz9yXnDVSGAFtV6kHF2A06o/SKbdRW1LMulsnvJOyJBCHlpouYcOG6sZio4h1Cgh6aUht76Q1JqI4NC61FtKkA4h7RcZflySxMM0w0Vxi2wg0FnVCnZibmAEuzL1MIpFoSALAMvXfZS9LTCC262rEpJiZnJtDLgcZlnynACgajCIFVU7uut+UampV33m3B8QcYPWIu3NyiCa8G60l6nUDVJ0xdOdnwn/AA0gMpPbSp+IiQblbmugcSXGCUqBqF1yqqAamtYmH5uamE8Gp54AYKK1wQB10qeq8/NIDzvDPyiCng3F4zbSoByjZAAAFABkv3PbfKBRt0HBcb/lULR2YuqLvTkugmxDzKXad4wY/SKbdTlDUulB0kmLnI+lUoZp88I73E+73AXpmYlJtlHBFxjBOGipIBBGMEmh64QUSssjBQFGpNtSSc5JJ77wCkKBCgcRBh+bd4BzhZeWcUMBpWQ1AqqmSvfW/LOSE44aqek1BIUc6kEFJ0CP0mfDeYyaSdOFAfuq6k1AmSA3X+ROPvJhCUIQAlKUigAzAXkJWhYKVJUKhQOMEZompi5SlkktNpDjQPUDQjsrSLuTc02Da200lqvfVRi57MvKKSUrQkV4SooSo41EjKYmJp4sqK5aXdIwWictQKqpWyvxvXMR9JI//JYPBu95Hvd9Y/SCcZRkS6wlyneCmLuzkygY0NMpar3kqiSblma4SiLVLOdSjaTel2n5d1OC406kKSoZiDD83cxSjXAbUHGx2BVo0x+k7xRmEmAfNDb91Xkmo+lqAbB/kTQHvrDaG20AJShCQAkDIAMQ/wD8EP8A/8QAMBEAAgIABAUDBAMBAQADAQAAAQIAAwQREhMQFCEyMwUVMSAiMDQjQVBAQ2FwkKD/2gAIAQIBAQgA/wDwTAzOUZdJy/3AM4KsjHr1NnGXScv87/5/MvyJb3/5yjM5T7T9kyy6f7ijSuqAkHOWDMah/t7pm80NpIy/+gwpb4GGYjOMjL8/SK2PWbTTaabTTab/AEasOznKYfAKozcAAZS/CJZ1F+Eas9SCOh42MQZqM1GajEY6hH7j/nKhb4w2AZupqpSoZLxZQwybEen5jNHqZTxZdfUbTTaabTRayDmXObE/5tOFawyjBLX1bhbelQ+5sXcXBWnFrZ0PC7DpaOuIwTJ1hBHQ0/JmZmZmZj9g/wAxK2aYb08nqyVrWMlhIAzNuMLHRUlHXU9vmWWUq8TEWUHTZXYtgzWEAjI4jABhmmya2IPFuwf5QBPxh8G1hlGFSrrxuxKVdIRZec30hblAlvmXhiBm6iNSyHVVTjATps4W0paMmxOAZOoZCvzG7B/k10s5mG9PAGbqoUZCO6oM2fEvadNSV6bgDH868LfMvDEd68MUASsV7cPKrktH28L8Er9VuwzIco4yQfXWoY9WrI6j/nVC3wQR0P0hS3xhsEz9ZTh0qHThdi1T7VGq23KwKAMgf2OD+deFvmXhiO9eGJ+V4XoK8nSrGFfttBBGYj1q4ybE4Agfa1ZX6qfmKxX40hxmf+UKSM4CR8E60zP0VYdnOUw+BVOrgZcLLUrGbPe950JXSqfC/sHgf2OD+deFvmXhiO9eGJ+V4YvtEZFdcjnZhjmtOJS344X4VLOovwjVmEEdDxp+Z9iRnLfP/LWw6qTU39Nki6foweE3OpqqSsZLCcpbjOumpaCx121DK9uC/sHgf2OD+deFvmXhiO9eGJ+V4YvtEHxMX2RqFYZivFPUdNquGGaxlDDI4vAgDUpGRy455f8ATqP0D5mAYaCOFt6VD7ma3EfOHULYwEr87cF/YPA/scH868LfMvDEd68MT8rwxfaIPiYvsEX4ExXjiJZWA9dOLV+jS8gVkm3u/wAGjEtWejepNlMMBYSzSjytwVgtzFt+uCxd4tN+uGxd7VN+uNYpuDTfrllimxSN+uXWKzqRv1y+xWK5b9cxNisoy365iLFZMlX4ExPjlfaJiUXTqlfqDp9svxrWfJ6/4eC+Dwo8rcMRadU3Gm403Gm403Gm403Gm403Gm403Gm403Gm403GldjZ5GltSAzE+OV9gmI8Zj9x/wAXBdp4UeVuF/d9YrA6tnXNCN2spU5H6a+4TD+MTE+OV9gmI8Zj9xgBJyGy02TNkzZM2TNkzZM2TNkzZaMpU5H8iDM5Q25HIbxm8ZvGbxm8ZvGMwGWbpl1HDBdp4UeVuF/d9SDSuskknM8B965H6a+4TD+MTE+OV9gmI8Zj9xhYpUzAa3PQK5OQKuDpLK69zB1+VDscg1VqjM6jNi2NrRsjW5ehWb8lXdD8xaywzGy02Wmy0NRAz4WfAivpjpl1EwXaeFHlbhf3fQBnNoDucrpAHGsgN121PwylTkeNfcJh/GJifHK+wTEeMx+4yzwPKlYt9qK5cgMriwA2pYuWu1XUDVhKxpEesKMxiECWdBjFyl1gsfUMP+sPy1oQcyfmBWPUaHmh5oeFGy6xwWAy0NEDA5FxkxEwXaeFHlbhf3cFrLdZtrAoQaoSScz9S/yLkdtR8mo5ZiV9wmH8YmJ8cr7BMR4zH7jLPA8rUMciqKWILIobKWIq5ZWIqgZYbEBRpazErl1sfW+og1ZTEadz7cP+sPyFxXW1h9Lxl2IxudjfJgLf1nZM7JnZPvM0mAuPjW4+VsYkZ2g6iZgvg8KPK3C/ula5nq7luGRymkzSZpM0maTNJmkzS3BWKnMOAw1CvuEw/jExPjlfYJiPGY/cYArKUY+m2f17dbPbbZ7bZPbbZ7bbPbrZ7bbPbbIPTbJpWtBWv48T+rZPQ/2xG7jFsZeg3Wm603Wm603Wm60Zy3Qp3CYv1S7DYwrMCwZSRKPK3C/uidh4VKCcybW/rdabrTdabrTdabrTdabrR/uXVwTsMr7hMP4xMT45X2CYjxmP3HhjabbKlFfJ4qcnipyeKnJ4qcnipyeKnJ4qcnipgKba1YWZZfkxP6tk9D/bEbuMWzSMpuzdm7N2b03YzlhlE7hPWQecYz0rwjhR5W4X90qI7SylTkav74KhaBSTlGUqesZCvzoOWcVCRnDP/Lg32JplfcJh/GJifHK+wTEeMx+4zVt1s8OLuJnNXzmr5zV85q+c1fDicQPnm7pv4mc1eDFfdqWw/jxP6tk9D/bEb5P1WOlFe7a/r1uf2e/Xz36+V+si06MRgAqrkso8rcL+7gLARkyBcjpi2FYHIOcZtRzmcazVNf26YLCBlDEANfXWq9pJJzNfcJh/GJifHK+wTEeMx+4yzwPKi4b7EawOSrNZuAm1rDlrtawga8JSNIaWVZL1uQI+QGJryl7h3zXD/rD8m2tlbIw9QweFbKj35J76k99Se+pPfUh9eXLpi8Zbim1WfR6X4Rwo8rcL+7jUwByJqb+tpptNNpptNNpptNNpptNHyVNPGvuEw/jExPjlfYJiPGY/cZZ4HlSsW+1FcuQGVw4BtVxlrtVwBqwlwy0yy77et1gsfODD15TEIqvkuH/WH5LjlhrCImCxDqGX2/FT2/FS2p6m02fX6X4Rwo8rcL+76Ks8jP5J/JP5J/JP5J/JP5J92j6K+4TD+MTE+OV9gmI8Zj9xmnWjVw4K8GcnfOTvnJ3zk75yV8ODxB+eSvnK4mcneTFTaqFf5L/1rOFOOxiIFr9wx89wx8vbEXtqsZGX5+r0vwjhR5W4X93GpQTmTa39brTdabrTdabrTdabrTdaP9y6uNfcJh/GJifHK+wTEeMx+48MbZatSmvmMXOYxc5jFzmMXOYxc5jFzmMXOYxcwFlrqxs/Jf8ArWcKPV76axWvvmJnvmJnvmJmK9UuxNe2/wBXpfhHCjytwv7uNX98FrLQIScoyFT1yjV6RDXkuqLXmM4Z/wCXGvuEw/jExPjlfYJiPGY/cYCEU2E+o259Pcbp7jdPcbp7jdPcbp7jdPcbp7jdB6jb/eoWViwfjv8A1rPy+l+EcKPK3C/u41f3wVysDEHOMxY9Yzluh19MothAyhn/AJca+4TD+MTE+OV9gmI8Zj9xlngeVsFOZVwGzjOC+qWWBssrLAwAGGoDDU1mHXL7rK9D5QGrKYjTufbh/wBYfkv/AFrPy+n2qlQ1czXK7VV2J5muWoWOY2nm08rRlPU1NNpptNNpptNNpptNNpptNChCaRtPNp4lbBgTTeioAbr0dMgmIQKBLr0ZCA1bFiZcpWhs6i4b7EazWSrNZuAm5rSBrtawga8JYNIye0EZDEOHs6comUurFb6Rh/1h+PKbe4jVm7BX0vpbZsmzZNmybNk2bJs2TZsmzZNmybNkw+BvvcKvp+GVavu2a5s1zZrmzXNmubNc2a5s1zZrmzXNmubNc2a5s1zZrmzXNmubNc2a5s1zZrmzXNmubNc2a56rRmmSBbEPQbgOYIsJzLbjfLCxvkK6nMM1zDI6Gm5dCtjnM11slCo2R/EthUZDeabrTdM3TN0zdM3TN0zdM3TN1pQtLD+VRhFOcGLpHxzlM5ymc5TOcpnOUznKZzlM5ymc5TOcpnOUznKZzlM5ymc5TOcpnOUznKZzlM5ymc5TOcpnOUznKZzlMxGJqesgPawYibzTeabzTeabzTeabzTeabzTdabrf82tpraa2mtpraa2mtpraa2mtpraa2mtpraa2mtpraa2mtpraa2mtpraa2mtpraa2mtprb/+DD//xAAtEQACAAMGBQMFAQEAAAAAAAAAAQIRIRAgMDFRkUBBUGGxA+HwcHGBodGQoP/aAAgBAgEJPwD/ABRY/rUvqAraMV5jH1GiFcXV0VdrKIo7c+qUX7FbuVdmZVDt26jV21ZRXnJlHajLqDKLUrg1hHbRiwaroG9yrxaMp3tRVYKlxGauq4yi4B0KPS2jFeq+H52Z3VbVjm+CozLW5l0TMpDwz/BR9EY0VuMY6DHQY6DGMYxjGMdzMe4+idrrGMYxjGMYxjGPpfbDYh9GQhCEIQjK3tjZrEzKszM7itzM+Hys7YLvPEch1HUcxnO1WfK8MhUs7X2VwWVwXIiIqakUxzsdkrPlcTkiLk6cr6tdnbBQhCEIWHzGhoaGhoaGhoaGjliaM0eHWGlDtxeYnuJ7ie4nuJ7ie4nuJ7izxdGaOxCEIQhCs7eDRXeeNnf5EREREREyIbIhsiM8TRmjv5ECSIV+/wCkK/f9IE4WZcYqiqIRm7Mh2fK4mTPTnLmemememememenU2u6LxxbkOo6jmOZmrVZ8riaPxZA2memz02KTwNF44rmQkJCQkJCQkImQmeJo/Fjcl2G9vYb29hNv7Clf0Xi/y4ScxsbGxsbGxsbJ4uj8WJSQlt7iW3uJbe4lL597+i8cVyJEtiWxLYlsS2JbEtiWxI54mj8Yui8cWpkP4IfwQyFKxWSs+VxNHi6LxZz4pVFUVmatdnyuJzRCyF7EL2IXsQvYhexC9iF7EL2IXsQvYhf3FP2IUQohRCiFEKIUQohRCiFEKIUQohRCiFEKIUQohRCiFEKIULNCaJk5kyYmTETE5mfDuQ5jGMYxjGMYxjGMYxjGMYxjGOvQmMYxjGMYxjGMYxjGMYxjGMYx/wDBh//EADMRAAEDAwIEBQQCAwACAwAAAAEAAgMEERIFEBMhMTQUFSAyMyIwNVAGQkBBUSRhcJCg/9oACAEDAQEIAP8A6FAb/vckDyQN/wB4U3p+uJsv/f708zbZv/P3mIWIWP8A8Bk2RmYDYgg+q4WQWQWQWQ/YyStjGTqvVXO+mEkk3NLqEkH0mnq4523b6ArKysim9P1xNlV6lHD9LZ6mSd137se6N2TKTVgfpma8O5jYGyyWSyV7odP1s9THC276rU5JfpZtT0sk5s2OgpWxuD6mgfEMm7U1bLTn6aWujnHIG6d6B1/WFwCq9Vaz6YpZXyuyemtLjYQ6e2JnFqarVHOHDgouxlKpNQlpjYcCCuaZIJYXwuxegS03FJqpb9MzJWyAObuOv6omyqayOAXdVV8k/LemoZJ+akq6eiGEDZnzafI+RUPYy7aUSIJiINTbI3h1U+nEN4kG0FTJAbspNSjm+kg32HX9S+QMFzV6t/WFz3POTlHG+R2LG0sFI3OpqKnjUDpGqn/GSbUPYy7aX2822ivLRImupq8KopZIDZ+1Jqb4vpkhqGStyaOvrcbIO/yCQPWTZVVfHALGprJZz9W1Pp75BnJNKympOJTSSOkdk9v4s7U/4yTah7GXbS+3m20f2yoclpVS+oDoppaBkjeJTFpabFRTPidkyk1Rkn0yBwPqciAVe3+NdWXQ+mSZkbcnVequf9MRJJuVDBJM7Fhp4aCPiy1VfLUn6pPxbdm/iztT/jJNqHsZdtL7ebbR/bLtonyPUNRJA/KOCWHUfofU0UsBudqXUJIORp6uOdt2+hy5lAAf4zh/tZBDmb+iurm04U1RJM670BfkIdPs3i1FRqga3h0tYSdPjJUn4tuzfxZ2p/xkm1D2Mu2l9vNto/tl20T5Ho9VoncFQ6nJC8se6lgqm8SmfG6N2L0x7mHJtBqRkIjkBv8A5lvTq7XCUOKp6SSc/S6WloBZuqyGSmieVV/jotpPxbdm/iztT/jJNqHsZdtL7ebbR/bLtonyPR6rRO4Kl+Ry0Y/+UE6ugme6GpqdPfEM2Kla50zQ1vT9DPTsmbi9mkQtdc6vM+BjY4lqHZw7TQyS0ETY/LapPpZjp7Yh5bVJtLMNPMS8tqlDSzNoHxHy2qVJSzMpJGO8tqlp9LNHBK1/ltUtMpZomyB/ltUtJpZoZHGQ6bVXWlUs0M5MkvyOWj90FU/O9aRUSCcRKbTIZTkqahig9v6PX/6bah2cO1LCI4msFgrBYhWCsFYKwVgrBWCsFYKwVgrBECyrohFUOYNH7oKp+d60nu2odP0uv/021Ds4UFF7fXe/SzlcjqDf1HotU7t60fugqn53rSe7ah0V1mFmFmFmFmFmFmFmFmFkEDf7pNgsVisVisVisVZA76//AE21Ds4UFF7fUeZsrb9D6j0Wqd29aP3QVT871pPdtQ6KYkNJADnHkGuJsC1wNi5rm9XNc3q0OcbB0UjRc3K4EicHNNjA4lov9x3RBE2WQWQWQWQ2CIQO2v8A9NtQ7OFBRe305f8AG3vf0OFwrlA39B6LVO7etH7oKp+d60nu2odFP7Sow4n6WteXkBzX52MrXj3SNeAMoGhrLoOup2hr+QqmqV+bshT+0fdJHRBXCuFcK4VxsFcI2Q6LX/6bah2cKCi9uxNlcom/L7B5FXKy2PRap3b1o/dBVPzvWk921Dop/aUxocebWguIJa3Kyexrej2NaBaCYAYuMjGi6e/N1yDHZT2z5U/tH3GtL3hgraeOGmswdEbf7sFYKwXJXVgrBECyaeS1/wDptqHZwoKL2pxQFt7q6urq6urrlsRdDkbI9FqndvWj90FU/O9aT3bUOikbkLLw7lwHLgOXAcuA5cBy4DlwHLgOXh3KNmIt9yn+di1Pt0OiIBWIWIWIWIWIWIQFkeigoY5qcOWvgjAFah2cKCi9qPXYlYrELELELELELELELEIcjbY9U7otU7t60fugqn53rSe7ah02kBPTFyxcsXLFyxcsXLFyxcmAjr9yn+di1Pt0OiIusVisVisVigLI9Fpx/wDHC/knyN21Ds4UFF7U7/qBunbXV1fa6uroL+2w5m6PRap3b1o/dBVPzvWk921DopXYtuuK8riPXEeuI9cR64j0XyDrxXrKVcR4POF2Qv8Acp/nYtT7dD1Ma6R2LW6e23Py+NeXxo0ZjGUX8gJJYStQ7OFBRe3bH/hv/tWVkBZWQCsiEEevKxPVHotU7t60fugqn53rSe7ah0U/tKiLwfoYZA42c55eCZTIffIZCBlTxgNyNw7kZWYPsBURqZ4e+4p/aPuNeWPDg6GeYXk8A5eAcvAOXgHLwDkNPP8AuGFsQs30fyL3N21Ds4UFF7d3LILILILILILILILILIIczfc9FqndvWj90FU/O9aT3bUOin9pUQcTZrGvLiA5rw8Ayte22UjXgDKnkBbgeTeZlfm+6EEanaGvsKf2j7kfOVuzp42mx8REvERJr2uF2+v+Re5u2odnCgovb6HWXJclyXJclyXJcr+g9FqndvWj90FU/O9aT3bUOilbk2y4L1wnrhPXCeuE9cJ64ci4T1w5FwnlRNxFvuRfK3Z8EDnXd4anXhqdRiOMWaHA9PV/Ivc3bUOzhQUXt3csQsQsQsQsQsQsQsQsQhyNtz0Wqd29aP3QVT871pPdtQ6bSXHTJyycsnLJyycsnLJyycmXPX7kXyt2fRxvcXHwEa8BGvARqKlZE7Ier+Re5u2odnCgovbu7a6ugVdByy52Rcgv7bnotU7t60fugqn53rSe7ah0UjsRdGocuO5cdy47lx3LjuXHcuO5cdyFQ5RPyF/uRfK37v8AIvc3bUOzhQUXt3dtZWQG1lZWQX9tz0Wqd29aP3QVT871pPdtQ6Kf2lRuDTza8BxJc8F11I8O6PeHAWgiFsnFjHCykZg6yBjsp7Z8qf2j7kXyt+7rNJLUuHD8nqlV0M0tPHG3yiqTOQscgsgiVkFkFkFkFkFkFkFkFkFfndZBZBEiyrtNqJp3PZp2nzwT5vn0qpfK5woNOqIahsjw4KY3aVGXg/Q10mZLXOkzBMpkPvkdIQMoHBzMUG2U7g5/LwrFKwMdYU/tH3A7FwcmTMeLjNqzas2rNqzas2rNqzas2rNqknYwXOq1juKGx+KmXipl4qdeKnXip14qdeKnXip14qdeKnXip14qdeKnXip14qdeKnXip14qdeKnXip14qdeKmXipl4qZeKmWmTOlicxwyaeQLgbglxNyS53Ulx6jIcwXyEWNiuLInZONzC3FoB+0QCsQsQsQsQsQsQsQsQsQsQsQqp9S1w4D3ai8WB06qPM+XVK8uqV5dUry6pXl1SvLqleXVK8uqV5dUry6pXl1SvLqleXVK8uqV5dUry6pXl1SvLqleXVK8uqV5dUry6pXl1SvLqleXVKo6Koima4hoKxCxCxCxCxCxCxCxCxCxCxH+NYKwVgrBWCsFYKwVgrBWCsFYKwVgrBWCsFYKwVgrBWCsFYKwVgrBWH/wCDD//EAC4RAAIABAUCBgICAwEAAAAAAAABAhARUSFhkbHRQMEgMDFBUPAioRKBcZDxoP/aAAgBAwEJPwD/AHgP5x0RhmMxhH8zix+B0Zg7/LOhgv3NYXHVr1djGGeKsetvk8X+h1cvUdEvYX8Yfuh9wMYbGD90Kk9R1Xx7MFaeCuL+UVx1deJfcJW7MVVcf8oZswfxuo6uSqx1dvv/AAVMafuV+JfcJW7OXsuT8Y/v24p4r9jqvicXYeFp/jCe+FR1ZfvK/EvuErdnK3MsUkOqtN0MH+vhnRGCvNVPyff77jorIv3cr95X4l9wlbs5W5lYdGKka90Yq88V99B/B4tjm/4w/ftxUVy/Mr93K/eV+JfcJW7OVuZWlbg/KGo8bff+Co5OjPX4L0pJYXPyj+6HvL76yv3cr95X4l9wlbs5W5laVuC5ZipRujPyhvK/wSqirME6+n9eBVf/AEgIfyr6akBD+VfT+yAh/Jv00ICHF+hAQ0bWGjICGlVh+yAhpVEBDRULlmXY/wAX7f0Kn+BY3+Ez7eD2XRWZdmez+Gz7dLlsWZdmez+Gz7dLlsWZdmeznjL18Ckurz7dLlsWZdmezm6DxHiMdT3murz7dLlsWZdmezm6DGOo6ycqed7it5mfbpctizLsz2fU3Lry8IjPt0uWxZl2Z7Pqbl15l3uuly2LMuzPZzYxjGOTKj826LryGNjZFiZ9uly2LMuzPZ+BYixF4X53sRf0RERERERF4rvt0uWxZl2Z7OboPEeIx+BedeTIiIfkXfbpctizLsz2c0IQhCEKS828lj/kpqU1KD8d326XLYsy7M9n1N5VxK6ldSuvkXfbpctizLsz2fU38277dLlsWZdmezmqiEKgqSUqedfzV6VF+xYw+ov30SweeQsBYNv3Fgq7eBYnrP26H2GMYxjGMYxjHS9MyN6kb1I3qRvUjepG9SN6kb1I3qRvUjepG9SN6kb1I3qRvUjepG9SN6kb1I3qRvUjepG9SN6jq/G+rhqiGmnJDtyQ7ckO3JDtyQ7ckO3JDtyQ7ckO3JDtyQ7ckO3JDtyQ7ckO3JDtyQ7ckO3JDtyQ7ckO3JDtyQ7ckO3JDtyQ7ciovf0/8N3/2Q==;" parent="1" vertex="1">
          <mxGeometry x="720" y="124.35" width="180" height="180" as="geometry" />
        </mxCell>
      </root>
    </mxGraphModel>
  </diagram>
</mxfile>
